#VRML V2.0 utf8
# 3D model generated by easyeda2kicad.py (https://github.com/uPesy/easyeda2kicad.py)

Shape{
    appearance Appearance {
        material  Material 	{
            diffuseColor 1.0 1.0 0.7529411764705882
            specularColor 0.5019607843137255 0.5019607843137255 0.3764705882352941
            ambientIntensity 0.9718
            transparency 0.0
            shininess 0.5
        }
    }
    geometry IndexedFaceSet {
        ccw TRUE
        solid FALSE
        coord DEF co Coordinate {
            point [
                0.2463 -0.2168 0.2777, 0.2559 -0.2264 0.0945, 0.2463 0.2168 0.2777, 0.2559 0.2264 0.0945, 0.2266 0.2365 0.2777, 0.2362 0.2461 0.0945, -0.2267 0.2365 0.2777, -0.2363 0.2461 0.0945, -0.2463 0.2168 0.2777, -0.2559 0.2264 0.0945, -0.2463 -0.2168 0.2777, -0.2559 -0.2264 0.0945, -0.2267 -0.2365 0.2777, -0.2363 -0.2461 0.0945, 0.2266 -0.2365 0.2777, 0.2362 -0.2461 0.0945, -0.2461 0.2434 0.0945, -0.2438 0.2446 0.0945, -0.2544 0.2339 0.0945, -0.2414 0.2454 0.0945, 0.2413 0.2454 0.0945, 0.2544 0.2339 0.0945, 0.2552 0.2315 0.0945, 0.2438 0.2446 0.0945, 0.2461 0.2434 0.0945, 0.2533 0.2362 0.0945, -0.2553 0.2315 0.0945, -0.2414 -0.2454 0.0945, -0.2438 -0.2446 0.0945, -0.2553 -0.2315 0.0945, -0.2544 -0.2339 0.0945, 0.2552 -0.2315 0.0945, 0.2438 -0.2446 0.0945, 0.2413 -0.2454 0.0945, 0.2544 -0.2339 0.0945, 0.2533 -0.2362 0.0945, 0.2461 -0.2434 0.0945, 0.2518 0.2384 0.0945, 0.2482 0.242 0.0945, 0.2501 0.2403 0.0945, -0.2533 0.2362 0.0945, -0.2519 0.2384 0.0945, -0.2482 0.242 0.0945, -0.2502 0.2403 0.0945, -0.2533 -0.2362 0.0945, -0.2461 -0.2434 0.0945, -0.2519 -0.2384 0.0945, -0.2482 -0.242 0.0945, -0.2502 -0.2403 0.0945, 0.2482 -0.242 0.0945, 0.2518 -0.2384 0.0945, 0.2501 -0.2403 0.0945, 0.207 -0.1971 0.315, 0.207 0.1971 0.315, -0.207 -0.1971 0.315, -0.207 0.1971 0.315, 0.2317 0.2358 0.2779, 0.2364 0.2338 0.278, 0.2405 0.2307 0.2781, 0.2436 0.2266 0.278, 0.2456 0.2219 0.2779, -0.2456 0.2219 0.2779, -0.2437 0.2266 0.278, -0.2405 0.2307 0.2781, -0.2365 0.2338 0.278, -0.2317 0.2358 0.2779, 0.2456 -0.2219 0.2779, 0.2436 -0.2266 0.278, 0.2405 -0.2307 0.2781, 0.2364 -0.2338 0.278, 0.2317 -0.2358 0.2779, -0.2317 -0.2358 0.2779, -0.2365 -0.2338 0.278, -0.2405 -0.2307 0.2781, -0.2437 -0.2266 0.278, -0.2456 -0.2219 0.2779, -0.2463 0.2168 0.2778, -0.2405 0.2307 0.2783, -0.2365 0.2338 0.2782, -0.2317 0.2358 0.278, -0.2267 0.2365 0.2778, -0.2309 0.2344 0.2862, -0.2261 0.2353 0.2852, -0.2456 0.2219 0.278, -0.2452 0.2162 0.2852, -0.2443 0.221 0.2862, -0.2444 0.2158 0.2874, -0.2412 0.219 0.2942, -0.2257 0.2345 0.2874, -0.2288 0.2313 0.2942, -0.2247 0.2325 0.2928, -0.2424 0.2148 0.2928, -0.2402 0.2137 0.2963, -0.2357 0.2155 0.302, -0.2373 0.2123 0.3007, -0.2338 0.2106 0.3039, -0.2275 0.2102 0.309, -0.2253 0.2259 0.302, -0.22 0.2176 0.309, -0.218 0.2191 0.3083, -0.2204 0.224 0.3039, -0.2222 0.2275 0.3007, -0.2236 0.2303 0.2963, -0.2185 0.2029 0.3132, -0.2176 0.2039 0.3135, -0.2259 0.2066 0.3097, -0.229 0.2081 0.3083, -0.2167 0.2049 0.3136, -0.2258 0.2122 0.3095, -0.2337 0.2185 0.3029, -0.239 0.2228 0.2951, -0.2423 0.2255 0.2868, -0.2437 0.2266 0.2782, -0.2157 0.2058 0.3137, -0.224 0.2141 0.3097, -0.2312 0.2213 0.3031, -0.2362 0.2263 0.2954, -0.2392 0.2294 0.287, -0.2168 0.2021 0.3135, -0.2119 0.207 0.3135, -0.2138 0.2077 0.3135, -0.2128 0.2087 0.3132, -0.2165 0.2161 0.3097, -0.2353 0.2324 0.2868, -0.2327 0.2292 0.2951, -0.2284 0.2238 0.3029, -0.2221 0.2159 0.3095, -0.2147 0.2068 0.3136, -0.2168 -0.2021 0.3135, -0.2185 -0.2029 0.3132, -0.2259 -0.2066 0.3097, -0.229 -0.2081 0.3083, -0.2338 -0.2106 0.3039, -0.2373 -0.2123 0.3007, -0.2402 -0.2137 0.2963, -0.2424 -0.2148 0.2928, -0.2444 -0.2158 0.2874, -0.2452 -0.2162 0.2852, -0.2463 -0.2168 0.2778, 0.2266 0.2365 0.2778, 0.2261 0.2353 0.2852, 0.2257 0.2345 0.2874, 0.2247 0.2325 0.2928, 0.2235 0.2303 0.2963, 0.2221 0.2275 0.3007, 0.2204 0.224 0.3039, 0.218 0.2191 0.3083, 0.2164 0.2161 0.3097, 0.2127 0.2087 0.3132, 0.2119 0.207 0.3135, -0.2267 -0.2365 0.2778, -0.2405 -0.2307 0.2783, -0.2437 -0.2266 0.2782, -0.2456 -0.2219 0.278, -0.2443 -0.221 0.2862, -0.2317 -0.2358 0.278, -0.2261 -0.2353 0.2852, -0.2309 -0.2344 0.2862, -0.2257 -0.2345 0.2874, -0.2288 -0.2313 0.2942, -0.2412 -0.219 0.2942, -0.2247 -0.2325 0.2928, -0.2236 -0.2303 0.2963, -0.2253 -0.2259 0.302, -0.2222 -0.2275 0.3007, -0.2204 -0.224 0.3039, -0.22 -0.2176 0.309, -0.2357 -0.2155 0.302, -0.2275 -0.2102 0.309, -0.2128 -0.2087 0.3132, -0.2138 -0.2077 0.3135, -0.2165 -0.2161 0.3097, -0.218 -0.2191 0.3083, -0.2147 -0.2068 0.3136, -0.2221 -0.2159 0.3095, -0.2284 -0.2238 0.3029, -0.2327 -0.2292 0.2951, -0.2353 -0.2324 0.2868, -0.2365 -0.2338 0.2782, -0.2157 -0.2058 0.3137, -0.224 -0.2141 0.3097, -0.2312 -0.2213 0.3031, -0.2362 -0.2263 0.2954, -0.2392 -0.2294 0.287, -0.2119 -0.207 0.3135, -0.2176 -0.2039 0.3135, -0.2423 -0.2255 0.2868, -0.239 -0.2228 0.2951, -0.2337 -0.2185 0.3029, -0.2258 -0.2122 0.3095, -0.2167 -0.2049 0.3136, 0.2405 0.2307 0.2783, 0.2436 0.2266 0.2782, 0.2456 0.2219 0.278, 0.2463 0.2168 0.2778, 0.2443 0.221 0.2862, 0.2452 0.2162 0.2852, 0.2317 0.2358 0.278, 0.2308 0.2344 0.2862, 0.2288 0.2313 0.2942, 0.2444 0.2158 0.2874, 0.2411 0.219 0.2942, 0.2424 0.2148 0.2928, 0.2253 0.2259 0.302, 0.22 0.2176 0.309, 0.2357 0.2155 0.302, 0.2274 0.2102 0.309, 0.229 0.2081 0.3083, 0.2338 0.2106 0.3039, 0.2373 0.2123 0.3007, 0.2401 0.2137 0.2963, 0.2137 0.2077 0.3135, 0.2147 0.2068 0.3136, 0.222 0.2159 0.3095, 0.2283 0.2238 0.3029, 0.2327 0.2292 0.2951, 0.2353 0.2324 0.2868, 0.2364 0.2338 0.2782, 0.2157 0.2058 0.3137, 0.2239 0.2141 0.3097, 0.2312 0.2213 0.3031, 0.2361 0.2263 0.2954, 0.2392 0.2294 0.287, 0.2168 0.2021 0.3135, 0.2176 0.2039 0.3135, 0.2185 0.2029 0.3132, 0.2259 0.2066 0.3097, 0.2422 0.2255 0.2868, 0.239 0.2228 0.2951, 0.2336 0.2185 0.3029, 0.2258 0.2122 0.3095, 0.2166 0.2049 0.3136, 0.2119 -0.207 0.3135, 0.2127 -0.2087 0.3132, 0.2164 -0.2161 0.3097, 0.218 -0.2191 0.3083, 0.2204 -0.224 0.3039, 0.2221 -0.2275 0.3007, 0.2235 -0.2303 0.2963, 0.2247 -0.2325 0.2928, 0.2257 -0.2345 0.2874, 0.2261 -0.2353 0.2852, 0.2266 -0.2365 0.2778, 0.2463 -0.2168 0.2778, 0.2452 -0.2162 0.2852, 0.2444 -0.2158 0.2874, 0.2424 -0.2148 0.2928, 0.2401 -0.2137 0.2963, 0.2373 -0.2123 0.3007, 0.2338 -0.2106 0.3039, 0.229 -0.2081 0.3083, 0.2259 -0.2066 0.3097, 0.2185 -0.2029 0.3132, 0.2168 -0.2021 0.3135, 0.2405 -0.2307 0.2783, 0.2364 -0.2338 0.2782, 0.2317 -0.2358 0.278, 0.2308 -0.2344 0.2862, 0.2456 -0.2219 0.278, 0.2443 -0.221 0.2862, 0.2411 -0.219 0.2942, 0.2288 -0.2313 0.2942, 0.2357 -0.2155 0.302, 0.2274 -0.2102 0.309, 0.2253 -0.2259 0.302, 0.22 -0.2176 0.309, 0.2176 -0.2039 0.3135, 0.2166 -0.2049 0.3136, 0.2258 -0.2122 0.3095, 0.2336 -0.2185 0.3029, 0.239 -0.2228 0.2951, 0.2422 -0.2255 0.2868, 0.2436 -0.2266 0.2782, 0.2157 -0.2058 0.3137, 0.2239 -0.2141 0.3097, 0.2312 -0.2213 0.3031, 0.2361 -0.2263 0.2954, 0.2392 -0.2294 0.287, 0.2137 -0.2077 0.3135, 0.2353 -0.2324 0.2868, 0.2327 -0.2292 0.2951, 0.2283 -0.2238 0.3029, 0.222 -0.2159 0.3095, 0.2147 -0.2068 0.3136
            ]
        }
        coordIndex [
            0,1,2,-1,2,1,3,-1,4,5,6,-1,6,5,7,-1,8,9,10,-1,10,9,11,-1,12,13,14,-1,14,13,15,-1,11,9,13,-1,7,5,3,-1,16,17,18,-1,19,7,9,-1,9,7,3,-1,9,3,13,-1,13,3,1,-1,13,1,15,-1,20,21,5,-1,5,21,22,-1,5,22,3,-1,20,23,21,-1,21,23,24,-1,21,24,25,-1,19,9,17,-1,17,9,26,-1,17,26,18,-1,13,27,11,-1,11,27,28,-1,11,28,29,-1,29,28,30,-1,31,32,1,-1,1,32,33,-1,1,33,15,-1,31,34,32,-1,32,34,35,-1,32,35,36,-1,25,24,37,-1,37,24,38,-1,37,38,39,-1,18,40,16,-1,16,40,41,-1,16,41,42,-1,42,41,43,-1,30,28,44,-1,44,28,45,-1,44,45,46,-1,46,45,47,-1,46,47,48,-1,36,35,49,-1,49,35,50,-1,49,50,51,-1,52,53,54,-1,54,53,55,-1,4,56,5,-1,5,56,20,-1,20,56,23,-1,23,56,57,-1,23,57,24,-1,24,57,38,-1,38,57,58,-1,38,58,39,-1,39,58,37,-1,37,58,59,-1,37,59,25,-1,25,59,21,-1,21,59,60,-1,21,60,22,-1,22,60,2,-1,22,2,3,-1,8,61,9,-1,9,61,26,-1,26,61,18,-1,18,61,62,-1,18,62,40,-1,40,62,41,-1,41,62,63,-1,41,63,43,-1,43,63,42,-1,42,63,64,-1,42,64,16,-1,16,64,17,-1,17,64,65,-1,17,65,19,-1,19,65,6,-1,19,6,7,-1,0,66,1,-1,1,66,31,-1,31,66,34,-1,34,66,67,-1,34,67,35,-1,35,67,50,-1,50,67,68,-1,50,68,51,-1,51,68,49,-1,49,68,69,-1,49,69,36,-1,36,69,32,-1,32,69,70,-1,32,70,33,-1,33,70,14,-1,33,14,15,-1,12,71,13,-1,13,71,27,-1,27,71,28,-1,28,71,72,-1,28,72,45,-1,45,72,47,-1,47,72,73,-1,47,73,48,-1,48,73,46,-1,46,73,74,-1,46,74,44,-1,44,74,30,-1,30,74,75,-1,30,75,29,-1,29,75,10,-1,29,10,11,-1,61,8,76,-1,64,63,77,-1,65,64,78,-1,6,65,79,-1,6,79,80,-1,80,79,81,-1,80,81,82,-1,61,76,83,-1,83,76,84,-1,83,84,85,-1,85,84,86,-1,85,86,87,-1,82,81,88,-1,88,81,89,-1,88,89,90,-1,86,91,87,-1,87,91,92,-1,87,92,93,-1,92,94,93,-1,93,94,95,-1,93,95,96,-1,97,98,99,-1,99,100,97,-1,97,100,101,-1,97,101,89,-1,89,101,102,-1,89,102,90,-1,103,104,105,-1,105,104,96,-1,105,96,106,-1,106,96,95,-1,55,107,104,-1,104,107,108,-1,104,108,96,-1,96,108,109,-1,96,109,93,-1,93,109,110,-1,93,110,87,-1,87,110,111,-1,87,111,85,-1,85,111,112,-1,85,112,83,-1,83,112,62,-1,83,62,61,-1,55,113,107,-1,107,113,114,-1,107,114,108,-1,108,114,115,-1,108,115,109,-1,109,115,116,-1,109,116,110,-1,110,116,117,-1,110,117,111,-1,111,117,77,-1,111,77,112,-1,112,77,63,-1,112,63,62,-1,103,118,104,-1,104,118,55,-1,55,119,120,-1,120,119,121,-1,120,121,98,-1,98,121,122,-1,98,122,99,-1,65,78,79,-1,79,78,123,-1,79,123,81,-1,81,123,124,-1,81,124,89,-1,89,124,125,-1,89,125,97,-1,97,125,126,-1,97,126,98,-1,98,126,127,-1,98,127,120,-1,120,127,55,-1,64,77,78,-1,78,77,117,-1,78,117,123,-1,123,117,116,-1,123,116,124,-1,124,116,115,-1,124,115,125,-1,125,115,114,-1,125,114,126,-1,126,114,113,-1,126,113,127,-1,127,113,55,-1,55,118,54,-1,54,118,128,-1,128,118,129,-1,129,118,103,-1,129,103,130,-1,130,103,105,-1,130,105,131,-1,131,105,106,-1,131,106,132,-1,132,106,95,-1,132,95,133,-1,133,95,94,-1,133,94,134,-1,94,92,134,-1,134,92,91,-1,134,91,135,-1,135,91,86,-1,135,86,136,-1,136,86,84,-1,136,84,137,-1,137,84,76,-1,137,76,138,-1,138,76,8,-1,138,8,10,-1,139,4,6,-1,6,80,139,-1,139,80,82,-1,139,82,140,-1,140,82,88,-1,140,88,141,-1,141,88,142,-1,142,88,90,-1,142,90,143,-1,90,102,143,-1,143,102,101,-1,143,101,144,-1,144,101,100,-1,144,100,145,-1,145,100,146,-1,146,100,99,-1,146,99,147,-1,147,99,122,-1,147,122,148,-1,148,122,121,-1,148,121,149,-1,121,119,149,-1,149,119,55,-1,149,55,53,-1,71,12,150,-1,74,73,151,-1,75,74,152,-1,10,75,153,-1,10,153,138,-1,138,153,154,-1,138,154,137,-1,71,150,155,-1,155,150,156,-1,155,156,157,-1,157,156,158,-1,157,158,159,-1,137,154,136,-1,136,154,160,-1,136,160,135,-1,158,161,159,-1,159,161,162,-1,159,162,163,-1,162,164,163,-1,163,164,165,-1,163,165,166,-1,167,168,131,-1,131,132,167,-1,167,132,133,-1,167,133,160,-1,160,133,134,-1,160,134,135,-1,169,170,171,-1,171,170,166,-1,171,166,172,-1,172,166,165,-1,54,173,170,-1,170,173,174,-1,170,174,166,-1,166,174,175,-1,166,175,163,-1,163,175,176,-1,163,176,159,-1,159,176,177,-1,159,177,157,-1,157,177,178,-1,157,178,155,-1,155,178,72,-1,155,72,71,-1,54,179,173,-1,173,179,180,-1,173,180,174,-1,174,180,181,-1,174,181,175,-1,175,181,182,-1,175,182,176,-1,176,182,183,-1,176,183,177,-1,177,183,151,-1,177,151,178,-1,178,151,73,-1,178,73,72,-1,169,184,170,-1,170,184,54,-1,54,128,185,-1,185,128,129,-1,185,129,168,-1,168,129,130,-1,168,130,131,-1,75,152,153,-1,153,152,186,-1,153,186,154,-1,154,186,187,-1,154,187,160,-1,160,187,188,-1,160,188,167,-1,167,188,189,-1,167,189,168,-1,168,189,190,-1,168,190,185,-1,185,190,54,-1,74,151,152,-1,152,151,183,-1,152,183,186,-1,186,183,182,-1,186,182,187,-1,187,182,181,-1,187,181,188,-1,188,181,180,-1,188,180,189,-1,189,180,179,-1,189,179,190,-1,190,179,54,-1,56,4,139,-1,59,58,191,-1,60,59,192,-1,2,60,193,-1,2,193,194,-1,194,193,195,-1,194,195,196,-1,56,139,197,-1,197,139,140,-1,197,140,198,-1,198,140,141,-1,198,141,199,-1,196,195,200,-1,200,195,201,-1,200,201,202,-1,141,142,199,-1,199,142,143,-1,199,143,203,-1,143,144,203,-1,203,144,145,-1,203,145,204,-1,205,206,207,-1,207,208,205,-1,205,208,209,-1,205,209,201,-1,201,209,210,-1,201,210,202,-1,148,211,147,-1,147,211,204,-1,147,204,146,-1,146,204,145,-1,53,212,211,-1,211,212,213,-1,211,213,204,-1,204,213,214,-1,204,214,203,-1,203,214,215,-1,203,215,199,-1,199,215,216,-1,199,216,198,-1,198,216,217,-1,198,217,197,-1,197,217,57,-1,197,57,56,-1,53,218,212,-1,212,218,219,-1,212,219,213,-1,213,219,220,-1,213,220,214,-1,214,220,221,-1,214,221,215,-1,215,221,222,-1,215,222,216,-1,216,222,191,-1,216,191,217,-1,217,191,58,-1,217,58,57,-1,148,149,211,-1,211,149,53,-1,53,223,224,-1,224,223,225,-1,224,225,206,-1,206,225,226,-1,206,226,207,-1,60,192,193,-1,193,192,227,-1,193,227,195,-1,195,227,228,-1,195,228,201,-1,201,228,229,-1,201,229,205,-1,205,229,230,-1,205,230,206,-1,206,230,231,-1,206,231,224,-1,224,231,53,-1,59,191,192,-1,192,191,222,-1,192,222,227,-1,227,222,221,-1,227,221,228,-1,228,221,220,-1,228,220,229,-1,229,220,219,-1,229,219,230,-1,230,219,218,-1,230,218,231,-1,231,218,53,-1,54,184,52,-1,52,184,232,-1,232,184,233,-1,233,184,169,-1,233,169,234,-1,234,169,171,-1,234,171,235,-1,235,171,172,-1,235,172,236,-1,236,172,165,-1,236,165,237,-1,237,165,164,-1,237,164,238,-1,238,164,162,-1,238,162,239,-1,239,162,161,-1,239,161,240,-1,161,158,240,-1,240,158,156,-1,240,156,241,-1,241,156,150,-1,241,150,242,-1,242,150,12,-1,242,12,14,-1,0,2,194,-1,0,194,243,-1,243,194,196,-1,243,196,244,-1,244,196,200,-1,244,200,245,-1,245,200,202,-1,245,202,246,-1,246,202,210,-1,246,210,247,-1,247,210,248,-1,248,210,209,-1,248,209,249,-1,249,209,208,-1,249,208,250,-1,250,208,207,-1,250,207,251,-1,251,207,226,-1,251,226,252,-1,252,226,225,-1,252,225,253,-1,225,223,253,-1,253,223,53,-1,253,53,52,-1,66,0,243,-1,69,68,254,-1,70,69,255,-1,14,70,256,-1,14,256,242,-1,242,256,257,-1,242,257,241,-1,66,243,258,-1,258,243,244,-1,258,244,259,-1,259,244,245,-1,259,245,260,-1,241,257,240,-1,240,257,261,-1,240,261,239,-1,245,246,260,-1,260,246,247,-1,260,247,262,-1,247,248,262,-1,262,248,249,-1,262,249,263,-1,264,265,235,-1,235,236,264,-1,264,236,237,-1,264,237,261,-1,261,237,238,-1,261,238,239,-1,252,266,251,-1,251,266,263,-1,251,263,250,-1,250,263,249,-1,52,267,266,-1,266,267,268,-1,266,268,263,-1,263,268,269,-1,263,269,262,-1,262,269,270,-1,262,270,260,-1,260,270,271,-1,260,271,259,-1,259,271,272,-1,259,272,258,-1,258,272,67,-1,258,67,66,-1,52,273,267,-1,267,273,274,-1,267,274,268,-1,268,274,275,-1,268,275,269,-1,269,275,276,-1,269,276,270,-1,270,276,277,-1,270,277,271,-1,271,277,254,-1,271,254,272,-1,272,254,68,-1,272,68,67,-1,252,253,266,-1,266,253,52,-1,52,232,278,-1,278,232,233,-1,278,233,265,-1,265,233,234,-1,265,234,235,-1,70,255,256,-1,256,255,279,-1,256,279,257,-1,257,279,280,-1,257,280,261,-1,261,280,281,-1,261,281,264,-1,264,281,282,-1,264,282,265,-1,265,282,283,-1,265,283,278,-1,278,283,52,-1,69,254,255,-1,255,254,277,-1,255,277,279,-1,279,277,276,-1,279,276,280,-1,280,276,275,-1,280,275,281,-1,281,275,274,-1,281,274,282,-1,282,274,273,-1,282,273,283,-1,283,273,52,-1,
        ]
    }
}
Shape{
    appearance Appearance {
        material  Material 	{
            diffuseColor 1.0 1.0 1.0
            specularColor 0.5019607843137255 0.5019607843137255 0.5019607843137255
            ambientIntensity 1.0
            transparency 0.0
            shininess 0.5
        }
    }
    geometry IndexedFaceSet {
        ccw TRUE
        solid FALSE
        coord DEF co Coordinate {
            point [
                0.0957 0.2461 0.0157, 0.2165 0.2461 0.0157, 0.0957 -0.2461 0.0157, 0.2165 0.0689 0.0157, 0.2165 -0.2461 0.0157, 0.2165 -0.0689 0.0157, 0.3937 -0.0689 0.0157, 0.3937 0.0689 0.0157, -0.2577 0.2238 0.0945, -0.2631 0.2022 0.0945, -0.2386 0.2022 0.0945, 0.2577 -0.2238 0.0945, 0.2631 -0.2022 0.0945, 0.2385 -0.2022 0.0945, 0.2559 -0.2461 0.0945, -0.2559 -0.2461 0.0945, -0.2577 -0.2238 0.0945, -0.3161 -0.0522 0.0945, -0.3161 -0.0085 0.0945, -0.3689 -0.0085 0.0945, 0.3937 -0.1083 0.0945, 0.3937 0.1083 0.0945, 0.3697 -0.1104 0.0945, 0.3464 -0.09 0.0945, 0.3464 -0.1166 0.0945, -0.3689 0.0351 0.0945, -0.3937 0.1083 0.0945, 0.3697 0.1104 0.0945, 0.3464 0.1166 0.0945, 0.3464 0.09 0.0945, 0.2385 -0.09 0.0945, 0.2385 0.09 0.0945, 0.2385 0.2022 0.0945, -0.2902 0.0351 0.0945, -0.2902 -0.0522 0.0945, -0.2386 -0.1449 0.0945, -0.3162 -0.1321 0.0945, -0.3001 -0.1449 0.0945, -0.3937 -0.1083 0.0945, -0.3732 -0.1098 0.0945, -0.3532 -0.1144 0.0945, -0.334 -0.1219 0.0945, -0.2631 -0.2022 0.0945, -0.2386 -0.2022 0.0945, -0.2559 0.2461 0.0945, 0.2559 0.2461 0.0945, 0.2577 0.2238 0.0945, 0.2631 0.2022 0.0945, -0.2386 0.1449 0.0945, -0.3001 0.1449 0.0945, -0.3162 0.1321 0.0945, -0.334 0.1219 0.0945, -0.3532 0.1144 0.0945, -0.3732 0.1098 0.0945, 0.006 0.2461 0.0157, 0.006 0.05 0.0157, -0.2166 0.2461 0.0157, -0.0899 0.05 0.0157, -0.2166 0.0689 0.0157, 0.006 -0.05 0.0157, 0.006 -0.2461 0.0157, -0.0899 -0.05 0.0157, -0.2166 -0.2461 0.0157, -0.2166 -0.0689 0.0157, -0.3937 -0.0689 0.0157, -0.3937 0.0689 0.0157
            ]
        }
        coordIndex [
            0,1,2,-1,2,1,3,-1,4,2,5,-1,5,2,3,-1,5,3,6,-1,6,3,7,-1,8,9,10,-1,11,12,13,-1,14,11,15,-1,15,11,13,-1,15,13,16,-1,17,18,19,-1,20,21,22,-1,22,21,23,-1,22,23,24,-1,19,25,26,-1,27,28,29,-1,21,27,23,-1,23,27,29,-1,23,29,30,-1,30,29,31,-1,31,32,10,-1,33,34,35,-1,35,34,36,-1,35,36,37,-1,26,38,19,-1,19,38,39,-1,19,39,17,-1,17,39,40,-1,17,40,34,-1,34,40,41,-1,34,41,36,-1,42,16,43,-1,43,16,13,-1,43,13,35,-1,35,13,30,-1,35,30,33,-1,44,8,45,-1,45,8,10,-1,45,10,46,-1,46,10,32,-1,46,32,47,-1,31,10,30,-1,30,10,48,-1,30,48,33,-1,33,48,49,-1,33,49,50,-1,50,51,33,-1,33,51,52,-1,33,52,25,-1,25,52,53,-1,25,53,26,-1,54,55,56,-1,56,55,57,-1,56,57,58,-1,59,60,61,-1,61,60,62,-1,61,62,57,-1,57,62,63,-1,57,63,58,-1,58,63,64,-1,58,64,65,-1,
        ]
    }
}
Shape{
    appearance Appearance {
        material  Material 	{
            diffuseColor 1.0 1.0 0.0
            specularColor 0.5019607843137255 0.5019607843137255 0.0
            ambientIntensity 0.886
            transparency 0.0
            shininess 0.5
        }
    }
    geometry IndexedFaceSet {
        ccw TRUE
        solid FALSE
        coord DEF co Coordinate {
            point [
                0.3937 0.1083 0.0945, 0.3937 0.1083 0.1102, 0.3697 0.1104 0.1102, 0.3697 0.1104 0.0945, 0.3464 0.1166 0.1102, 0.3464 0.1166 0.0945, 0.2559 -0.2461 0.0945, 0.2559 -0.2461 0.1102, 0.2577 -0.2238 0.1102, 0.2577 -0.2238 0.0945, 0.2631 -0.2022 0.1102, 0.2631 -0.2022 0.0945, 0.3464 -0.1166 0.0945, 0.3464 -0.1166 0.1102, 0.3697 -0.1104 0.1102, 0.3697 -0.1104 0.0945, 0.3937 -0.1083 0.1102, 0.3937 -0.1083 0.0945, -0.3937 -0.1083 0.0945, -0.3937 -0.1083 0.1102, -0.3732 -0.1098 0.1102, -0.3732 -0.1098 0.0945, -0.3532 -0.1144 0.1102, -0.3532 -0.1144 0.0945, -0.334 -0.1219 0.1102, -0.334 -0.1219 0.0945, -0.3162 -0.1321 0.1102, -0.3162 -0.1321 0.0945, -0.3001 -0.1449 0.1102, -0.3001 -0.1449 0.0945, -0.2559 0.2461 0.0945, -0.2559 0.2461 0.1102, -0.2577 0.2238 0.1102, -0.2577 0.2238 0.0945, -0.2631 0.2022 0.1102, -0.2631 0.2022 0.0945, -0.3001 0.1449 0.0945, -0.3001 0.1449 0.1102, -0.3162 0.1321 0.1102, -0.3162 0.1321 0.0945, -0.334 0.1219 0.1102, -0.334 0.1219 0.0945, -0.3532 0.1144 0.1102, -0.3532 0.1144 0.0945, -0.3732 0.1098 0.1102, -0.3732 0.1098 0.0945, -0.3937 0.1083 0.1102, -0.3937 0.1083 0.0945
            ]
        }
        coordIndex [
            0,1,2,-1,0,2,3,-1,3,2,4,-1,3,4,5,-1,6,7,8,-1,6,8,9,-1,9,8,10,-1,9,10,11,-1,12,13,14,-1,12,14,15,-1,15,14,16,-1,15,16,17,-1,18,19,20,-1,18,20,21,-1,21,20,22,-1,21,22,23,-1,23,22,24,-1,23,24,25,-1,25,24,26,-1,25,26,27,-1,27,26,28,-1,27,28,29,-1,30,31,32,-1,30,32,33,-1,33,32,34,-1,33,34,35,-1,36,37,38,-1,36,38,39,-1,39,38,40,-1,39,40,41,-1,41,40,42,-1,41,42,43,-1,43,42,44,-1,43,44,45,-1,45,44,46,-1,45,46,47,-1,
        ]
    }
}
Shape{
    appearance Appearance {
        material  Material 	{
            diffuseColor 1.0 1.0 1.0
            specularColor 0.5019607843137255 0.5019607843137255 0.5019607843137255
            ambientIntensity 1.0
            transparency 0.0
            shininess 0.5
        }
    }
    geometry IndexedFaceSet {
        ccw TRUE
        solid FALSE
        coord DEF co Coordinate {
            point [
                0.3937 0.1909 0.1102, 0.3937 0.1083 0.1102, 0.3937 0.1909 0.0, 0.3937 0.1083 0.0945, 0.3937 -0.1083 0.1102, 0.3937 -0.1909 0.1102, 0.3937 -0.1083 0.0945, 0.3937 -0.1909 0.0, 0.3937 0.0689 0.0, 0.3937 0.0689 0.0157, 0.3937 -0.0689 0.0157, 0.3937 -0.0689 0.0, 0.2165 0.2461 0.0157, 0.0957 0.2461 0.0157, 0.0957 0.2461 0.0161, 0.3386 0.2461 0.1102, 0.3386 0.2461 0.0, 0.2165 0.2461 0.0, 0.2559 0.2461 0.0945, 0.2559 0.2461 0.1102, -0.2559 0.2461 0.1102, -0.2559 0.2461 0.0945, -0.3386 0.2461 0.1102, -0.2166 0.2461 0.0157, -0.3386 0.2461 0.0, -0.2166 0.2461 0.0, 0.006 0.2461 0.0161, 0.006 0.2461 0.0157, -0.3937 -0.0689 0.0157, -0.3937 -0.0689 0.0, -0.3937 -0.1909 0.0, -0.3937 0.1909 0.0, -0.3937 0.0689 0.0, -0.3937 0.1909 0.1102, -0.3937 0.0689 0.0157, -0.3937 -0.1909 0.1102, -0.3937 -0.1083 0.1102, -0.3937 -0.1083 0.0945, -0.3937 0.1083 0.0945, -0.3937 0.1083 0.1102, 0.2165 -0.2461 0.0157, 0.2165 -0.2461 0.0, 0.3386 -0.2461 0.0, -0.2559 -0.2461 0.0945, -0.2559 -0.2461 0.1102, -0.3386 -0.2461 0.1102, 0.3386 -0.2461 0.1102, 0.2559 -0.2461 0.1102, 0.2559 -0.2461 0.0945, -0.3386 -0.2461 0.0, -0.2166 -0.2461 0.0, -0.2166 -0.2461 0.0157, 0.0957 -0.2461 0.0161, 0.006 -0.2461 0.0161, 0.006 -0.2461 0.0157, 0.0957 -0.2461 0.0157
            ]
        }
        coordIndex [
            0,1,2,-1,2,1,3,-1,4,5,6,-1,6,5,7,-1,8,2,9,-1,9,2,3,-1,9,3,10,-1,10,3,6,-1,10,6,11,-1,11,6,7,-1,12,13,14,-1,15,16,17,-1,18,19,15,-1,20,21,22,-1,22,21,23,-1,22,23,24,-1,24,23,25,-1,17,12,15,-1,15,12,14,-1,15,14,18,-1,18,14,26,-1,18,26,21,-1,21,26,27,-1,21,27,23,-1,28,29,30,-1,31,32,33,-1,33,32,34,-1,35,36,37,-1,30,35,28,-1,28,35,37,-1,28,37,34,-1,34,37,38,-1,34,38,33,-1,33,38,39,-1,40,41,42,-1,43,44,45,-1,46,47,48,-1,45,49,43,-1,43,49,50,-1,43,50,51,-1,52,48,53,-1,53,48,43,-1,53,43,54,-1,54,43,51,-1,52,55,48,-1,48,55,40,-1,48,40,46,-1,46,40,42,-1,
        ]
    }
}
Shape{
    appearance Appearance {
        material  Material 	{
            diffuseColor 1.0 1.0 0.0
            specularColor 0.5019607843137255 0.5019607843137255 0.0
            ambientIntensity 0.886
            transparency 0.0
            shininess 0.5
        }
    }
    geometry IndexedFaceSet {
        ccw TRUE
        solid FALSE
        coord DEF co Coordinate {
            point [
                -0.3937 0.1909 0.0, -0.3937 0.1909 0.1102, -0.3795 0.1928 0.0, -0.3795 0.1928 0.1102, -0.3662 0.1983 0.0, -0.3662 0.1983 0.1102, -0.3547 0.2071 0.0, -0.3547 0.2071 0.1102, -0.346 0.2185 0.0, -0.346 0.2185 0.1102, -0.3405 0.2318 0.0, -0.3405 0.2318 0.1102, -0.3386 0.2461 0.0, -0.3386 0.2461 0.1102, -0.2166 0.0689 0.0, -0.3937 0.0689 0.0, -0.2166 0.2461 0.0, -0.2386 0.1449 0.1102, -0.2386 0.2022 0.1102, -0.3001 0.1449 0.1102, -0.2631 0.2022 0.1102, -0.3732 0.1098 0.1102, -0.3532 0.1144 0.1102, -0.3937 0.1083 0.1102, -0.334 0.1219 0.1102, -0.3162 0.1321 0.1102, -0.2559 0.2461 0.1102, -0.2577 0.2238 0.1102, -0.2386 0.2022 0.0945, -0.2386 0.1449 0.0945, -0.2631 0.2022 0.0945, -0.3001 0.1449 0.0945, -0.3386 -0.2461 0.0, -0.3386 -0.2461 0.1102, -0.3405 -0.2318 0.0, -0.3405 -0.2318 0.1102, -0.346 -0.2185 0.0, -0.346 -0.2185 0.1102, -0.3547 -0.2071 0.0, -0.3547 -0.2071 0.1102, -0.3662 -0.1983 0.0, -0.3662 -0.1983 0.1102, -0.3795 -0.1928 0.0, -0.3795 -0.1928 0.1102, -0.3937 -0.1909 0.0, -0.3937 -0.1909 0.1102, -0.2631 -0.2022 0.0945, -0.2631 -0.2022 0.1102, -0.2577 -0.2238 0.1102, -0.2577 -0.2238 0.0945, -0.2559 -0.2461 0.1102, -0.2559 -0.2461 0.0945, -0.2166 -0.0689 0.0, -0.2166 -0.2461 0.0, -0.3937 -0.0689 0.0, -0.3732 -0.1098 0.1102, -0.3937 -0.1083 0.1102, -0.2386 -0.2022 0.1102, -0.2386 -0.1449 0.1102, -0.3001 -0.1449 0.1102, -0.3162 -0.1321 0.1102, -0.334 -0.1219 0.1102, -0.3532 -0.1144 0.1102, -0.2386 -0.1449 0.0945, -0.2386 -0.2022 0.0945, -0.3001 -0.1449 0.0945, 0.3937 -0.1909 0.0, 0.3937 -0.1909 0.1102, 0.3794 -0.1928 0.0, 0.3794 -0.1928 0.1102, 0.3661 -0.1983 0.0, 0.3661 -0.1983 0.1102, 0.3547 -0.2071 0.0, 0.3547 -0.2071 0.1102, 0.3459 -0.2185 0.0, 0.3459 -0.2185 0.1102, 0.3404 -0.2318 0.0, 0.3404 -0.2318 0.1102, 0.3386 -0.2461 0.0, 0.3386 -0.2461 0.1102, 0.2165 -0.0689 0.0, 0.3937 -0.0689 0.0, 0.2165 -0.2461 0.0, 0.3464 -0.1166 0.1102, 0.3464 -0.09 0.1102, 0.2385 -0.09 0.1102, 0.2559 -0.2461 0.1102, 0.2577 -0.2238 0.1102, 0.2631 -0.2022 0.1102, 0.2385 -0.2022 0.1102, 0.3937 -0.1083 0.1102, 0.3697 -0.1104 0.1102, 0.2385 -0.2022 0.0945, 0.2385 -0.09 0.0945, 0.2631 -0.2022 0.0945, 0.3386 0.2461 0.0, 0.3386 0.2461 0.1102, 0.3404 0.2318 0.0, 0.3404 0.2318 0.1102, 0.3459 0.2185 0.0, 0.3459 0.2185 0.1102, 0.3547 0.2071 0.0, 0.3547 0.2071 0.1102, 0.3661 0.1983 0.0, 0.3661 0.1983 0.1102, 0.3794 0.1928 0.0, 0.3794 0.1928 0.1102, 0.3937 0.1909 0.0, 0.3937 0.1909 0.1102, 0.2631 0.2022 0.0945, 0.2631 0.2022 0.1102, 0.2577 0.2238 0.1102, 0.2577 0.2238 0.0945, 0.2559 0.2461 0.1102, 0.2559 0.2461 0.0945, 0.2165 0.0689 0.0, 0.2165 0.2461 0.0, 0.3937 0.0689 0.0, 0.3464 0.1166 0.1102, 0.2385 0.2022 0.1102, 0.2385 0.09 0.1102, 0.3464 0.09 0.1102, 0.3937 0.1083 0.1102, 0.3697 0.1104 0.1102, 0.2385 0.09 0.0945, 0.2385 0.2022 0.0945, 0.3464 0.09 0.0945, 0.3464 0.1166 0.0945, 0.3464 -0.09 0.0945, 0.3464 -0.1166 0.0945, -0.2166 -0.0689 0.0157, -0.3937 -0.0689 0.0157, -0.2166 -0.2461 0.0157, 0.2165 -0.0689 0.0157, 0.2165 -0.2461 0.0157, 0.3937 -0.0689 0.0157, 0.2165 0.0689 0.0157, 0.3937 0.0689 0.0157, 0.2165 0.2461 0.0157, -0.2166 0.0689 0.0157, -0.2166 0.2461 0.0157, -0.3937 0.0689 0.0157
            ]
        }
        coordIndex [
            0,1,2,-1,2,1,3,-1,2,3,4,-1,4,3,5,-1,4,5,6,-1,6,5,7,-1,6,7,8,-1,8,7,9,-1,8,9,10,-1,10,9,11,-1,10,11,12,-1,12,11,13,-1,4,14,2,-1,2,14,15,-1,2,15,0,-1,4,6,14,-1,14,6,8,-1,14,8,16,-1,16,8,10,-1,16,10,12,-1,17,18,19,-1,19,18,20,-1,20,21,22,-1,1,23,3,-1,3,23,21,-1,22,24,20,-1,20,24,25,-1,20,25,19,-1,26,13,27,-1,27,13,11,-1,27,11,20,-1,11,9,20,-1,20,9,7,-1,20,7,21,-1,21,7,5,-1,21,5,3,-1,18,17,28,-1,28,17,29,-1,20,18,30,-1,30,18,28,-1,17,19,29,-1,29,19,31,-1,32,33,34,-1,34,33,35,-1,34,35,36,-1,36,35,37,-1,36,37,38,-1,38,37,39,-1,38,39,40,-1,40,39,41,-1,40,41,42,-1,42,41,43,-1,42,43,44,-1,44,43,45,-1,46,47,48,-1,46,48,49,-1,49,48,50,-1,49,50,51,-1,36,52,34,-1,34,52,53,-1,34,53,32,-1,36,38,52,-1,52,38,40,-1,52,40,54,-1,54,40,42,-1,54,42,44,-1,55,56,45,-1,47,37,35,-1,57,58,47,-1,47,58,59,-1,47,59,60,-1,47,35,48,-1,48,35,33,-1,48,33,50,-1,60,61,47,-1,47,61,62,-1,47,62,55,-1,45,43,55,-1,55,43,41,-1,55,41,47,-1,47,41,39,-1,47,39,37,-1,58,57,63,-1,63,57,64,-1,59,58,65,-1,65,58,63,-1,57,47,64,-1,64,47,46,-1,66,67,68,-1,68,67,69,-1,68,69,70,-1,70,69,71,-1,70,71,72,-1,72,71,73,-1,72,73,74,-1,74,73,75,-1,74,75,76,-1,76,75,77,-1,76,77,78,-1,78,77,79,-1,70,80,68,-1,68,80,81,-1,68,81,66,-1,70,72,80,-1,80,72,74,-1,80,74,82,-1,82,74,76,-1,82,76,78,-1,83,84,85,-1,86,79,87,-1,87,79,77,-1,77,75,87,-1,87,75,83,-1,87,83,88,-1,88,83,85,-1,88,85,89,-1,67,90,69,-1,69,90,91,-1,69,91,71,-1,71,91,83,-1,71,83,73,-1,73,83,75,-1,89,85,92,-1,92,85,93,-1,88,89,94,-1,94,89,92,-1,95,96,97,-1,97,96,98,-1,97,98,99,-1,99,98,100,-1,99,100,101,-1,101,100,102,-1,101,102,103,-1,103,102,104,-1,103,104,105,-1,105,104,106,-1,105,106,107,-1,107,106,108,-1,109,110,111,-1,109,111,112,-1,112,111,113,-1,112,113,114,-1,99,115,97,-1,97,115,116,-1,97,116,95,-1,99,101,115,-1,115,101,103,-1,115,103,117,-1,117,103,105,-1,117,105,107,-1,118,111,110,-1,110,119,118,-1,118,119,120,-1,118,120,121,-1,122,108,123,-1,123,108,106,-1,123,106,118,-1,96,113,98,-1,98,113,111,-1,106,104,118,-1,118,104,102,-1,118,102,111,-1,111,102,100,-1,111,100,98,-1,120,119,124,-1,124,119,125,-1,119,110,125,-1,125,110,109,-1,121,120,126,-1,126,120,124,-1,118,121,127,-1,127,121,126,-1,84,83,128,-1,128,83,129,-1,85,84,93,-1,93,84,128,-1,52,54,130,-1,130,54,131,-1,53,52,132,-1,132,52,130,-1,80,82,133,-1,133,82,134,-1,81,80,135,-1,135,80,133,-1,115,117,136,-1,136,117,137,-1,116,115,138,-1,138,115,136,-1,14,16,139,-1,139,16,140,-1,15,14,141,-1,141,14,139,-1,
        ]
    }
}
Shape{
    appearance Appearance {
        material  Material 	{
            diffuseColor 0.5019607843137255 1.0 0.5019607843137255
            specularColor 0.25098039215686274 0.5019607843137255 0.25098039215686274
            ambientIntensity 0.7943
            transparency 0.0
            shininess 0.5
        }
    }
    geometry IndexedFaceSet {
        ccw TRUE
        solid FALSE
        coord DEF co Coordinate {
            point [
                -0.2902 0.0351 0.0949, -0.2902 -0.0522 0.0949, -0.2902 0.0351 0.0945, -0.2902 -0.0522 0.0945, -0.3689 0.0351 0.0949, -0.3689 0.0351 0.0945, -0.3689 -0.0085 0.0949, -0.3689 -0.0085 0.0945, -0.3161 -0.0085 0.0949, -0.3161 -0.0085 0.0945, -0.3161 -0.0522 0.0949, -0.3161 -0.0522 0.0945
            ]
        }
        coordIndex [
            0,1,2,-1,2,1,3,-1,4,0,5,-1,5,0,2,-1,6,4,7,-1,7,4,5,-1,8,6,9,-1,9,6,7,-1,10,8,11,-1,11,8,9,-1,1,10,3,-1,3,10,11,-1,10,1,8,-1,8,1,0,-1,8,0,6,-1,6,0,4,-1,
        ]
    }
}
Shape{
    appearance Appearance {
        material  Material 	{
            diffuseColor 0.7529411764705882 1.0 0.7529411764705882
            specularColor 0.3764705882352941 0.5019607843137255 0.3764705882352941
            ambientIntensity 0.898
            transparency 0.0
            shininess 0.5
        }
    }
    geometry IndexedFaceSet {
        ccw TRUE
        solid FALSE
        coord DEF co Coordinate {
            point [
                0.0957 -0.2461 0.0161, 0.0957 0.2461 0.0161, 0.0957 -0.2461 0.0157, 0.0957 0.2461 0.0157, 0.006 0.2461 0.0161, 0.006 0.05 0.0161, 0.006 0.2461 0.0157, 0.006 0.05 0.0157, -0.0899 0.05 0.0161, -0.0899 0.05 0.0157, -0.0899 -0.05 0.0161, -0.0899 -0.05 0.0157, 0.006 -0.05 0.0161, 0.006 -0.05 0.0157, 0.006 -0.2461 0.0161, 0.006 -0.2461 0.0157
            ]
        }
        coordIndex [
            0,1,2,-1,2,1,3,-1,4,5,6,-1,6,5,7,-1,5,8,7,-1,7,8,9,-1,8,10,9,-1,9,10,11,-1,10,12,11,-1,11,12,13,-1,12,14,13,-1,13,14,15,-1,1,0,12,-1,12,0,14,-1,4,1,5,-1,5,1,12,-1,5,12,8,-1,8,12,10,-1,
        ]
    }
}