%TF.GenerationSoftware,KiCad,Pcbnew,9.0.9*%
%TF.CreationDate,2026-10-10T22:01:01+00:00*%
%TF.ProjectId,tomtho_mk2,746f6d74-686f-45f6-9d6b-322e6b696361,mk2-0.1*%
%TF.SameCoordinates,Original*%
%TF.FileFunction,Legend,Bot*%
%TF.FilePolarity,Positive*%
%FSLAX46Y46*%
G04 Gerber Fmt 4.6, Leading zero omitted, Abs format (unit mm)*
G04 Created by KiCad (PCBNEW 9.0.9) date 2026-10-10 22:01:01*
%MOMM*%
%LPD*%
G01*
G04 APERTURE LIST*
%ADD10C,0.000000*%
%ADD11C,0.120000*%
%ADD12C,0.150000*%
%ADD13C,0.225000*%
%ADD14C,0.450000*%
%ADD15C,3.100000*%
%ADD16C,0.650000*%
%ADD17O,1.000000X2.100000*%
%ADD18O,1.000000X1.600000*%
%ADD19C,0.900000*%
G04 APERTURE END LIST*
D10*
G36*
X203251200Y-40993300D02*
G01*
X203217300Y-41027200D01*
X203183500Y-40993300D01*
X203217300Y-40959500D01*
X203251200Y-40993300D01*
G37*
G36*
X198831500Y-59223300D02*
G01*
X198890700Y-59339000D01*
X198878600Y-59456800D01*
X198781900Y-59510800D01*
X198642400Y-59507600D01*
X198541900Y-59447700D01*
X198537700Y-59439900D01*
X198548400Y-59333000D01*
X198633000Y-59227500D01*
X198748000Y-59179700D01*
X198831500Y-59223300D01*
G37*
G36*
X202782600Y-61830200D02*
G01*
X202888900Y-61914600D01*
X202886800Y-62061600D01*
X202872200Y-62088300D01*
X202767700Y-62150800D01*
X202639000Y-62147500D01*
X202555600Y-62075300D01*
X202541200Y-62007000D01*
X202582800Y-61874500D01*
X202712600Y-61821300D01*
X202782600Y-61830200D01*
G37*
G36*
X209079200Y-46970700D02*
G01*
X209131000Y-47083900D01*
X209076700Y-47224200D01*
X208991800Y-47285200D01*
X208861900Y-47252700D01*
X208826700Y-47230200D01*
X208754300Y-47114800D01*
X208790300Y-46999000D01*
X208924900Y-46932200D01*
X208944800Y-46930100D01*
X209079200Y-46970700D01*
G37*
G36*
X213367300Y-60612800D02*
G01*
X213458500Y-60740900D01*
X213458000Y-60897700D01*
X213391900Y-60968800D01*
X213241900Y-61008500D01*
X213084300Y-60961000D01*
X213011700Y-60837800D01*
X213052200Y-60677600D01*
X213105800Y-60620700D01*
X213241900Y-60568300D01*
X213367300Y-60612800D01*
G37*
G36*
X186106400Y-38892500D02*
G01*
X186170300Y-39011000D01*
X186157900Y-39164500D01*
X186129000Y-39211500D01*
X186023500Y-39266100D01*
X185960200Y-39250700D01*
X185843700Y-39164500D01*
X185793600Y-39069700D01*
X185843700Y-38961300D01*
X185902900Y-38907600D01*
X186023500Y-38859700D01*
X186106400Y-38892500D01*
G37*
G36*
X202188000Y-40267200D02*
G01*
X202386600Y-40369600D01*
X202645500Y-40545500D01*
X202946400Y-40783700D01*
X203001700Y-40832000D01*
X203080700Y-40922700D01*
X203047300Y-40949000D01*
X202899000Y-40911100D01*
X202633700Y-40809100D01*
X202413300Y-40714900D01*
X202115300Y-40572600D01*
X201915000Y-40455000D01*
X201822700Y-40368500D01*
X201848300Y-40319400D01*
X201908900Y-40300000D01*
X202070900Y-40248500D01*
X202188000Y-40267200D01*
G37*
G36*
X192413900Y-68192200D02*
G01*
X192413900Y-68670200D01*
X192126000Y-68649400D01*
X192061000Y-68644200D01*
X191912800Y-68618700D01*
X191853100Y-68560300D01*
X191845500Y-68442300D01*
X191852800Y-68256000D01*
X191356800Y-68256000D01*
X190860800Y-68256000D01*
X190985900Y-68543900D01*
X191060400Y-68714800D01*
X191174900Y-68976900D01*
X191312500Y-69291900D01*
X191457700Y-69623800D01*
X191473500Y-69659900D01*
X191602500Y-69961700D01*
X191707600Y-70218200D01*
X191778400Y-70403400D01*
X191804300Y-70491100D01*
X191798400Y-70508300D01*
X191699000Y-70544300D01*
X191490400Y-70545700D01*
X191176400Y-70525100D01*
X190704900Y-69407500D01*
X190613500Y-69190000D01*
X190434700Y-68756500D01*
X190304300Y-68424300D01*
X190217000Y-68178000D01*
X190167600Y-68002000D01*
X190150900Y-67880700D01*
X190161600Y-67798800D01*
X190201400Y-67768300D01*
X190322100Y-67743100D01*
X190536500Y-67726300D01*
X190858500Y-67717000D01*
X191301900Y-67714100D01*
X192413900Y-67714100D01*
X192413900Y-68192200D01*
G37*
G36*
X211131600Y-69578600D02*
G01*
X211041800Y-69912000D01*
X210856300Y-70204100D01*
X210576700Y-70426000D01*
X210409300Y-70492000D01*
X210102200Y-70543600D01*
X209769700Y-70541600D01*
X209462400Y-70487800D01*
X209230800Y-70383500D01*
X209068600Y-70220800D01*
X208903900Y-69966500D01*
X208784400Y-69689100D01*
X208739100Y-69443900D01*
X208739294Y-69441300D01*
X209392400Y-69441300D01*
X209404400Y-69648000D01*
X209458400Y-69798400D01*
X209576800Y-69926200D01*
X209708200Y-70014100D01*
X209943500Y-70071800D01*
X210169200Y-70026900D01*
X210361500Y-69898400D01*
X210496200Y-69705100D01*
X210549300Y-69466100D01*
X210497000Y-69200300D01*
X210466600Y-69134900D01*
X210292200Y-68918400D01*
X210067400Y-68811600D01*
X209819800Y-68821900D01*
X209576800Y-68956500D01*
X209465800Y-69073200D01*
X209407000Y-69219400D01*
X209392400Y-69441300D01*
X208739294Y-69441300D01*
X208746400Y-69346000D01*
X208836500Y-69035700D01*
X209004900Y-68740700D01*
X209220800Y-68520200D01*
X209326700Y-68452500D01*
X209476900Y-68393100D01*
X209671900Y-68364800D01*
X209956800Y-68357600D01*
X210159600Y-68360700D01*
X210381100Y-68381300D01*
X210541700Y-68429600D01*
X210686000Y-68515300D01*
X210810000Y-68619000D01*
X211017300Y-68903300D01*
X211124000Y-69232800D01*
X211129100Y-69466100D01*
X211131600Y-69578600D01*
G37*
G36*
X195068300Y-69383300D02*
G01*
X194972000Y-69793000D01*
X194798500Y-70139900D01*
X194560200Y-70401700D01*
X194269500Y-70556300D01*
X194072300Y-70601700D01*
X193694000Y-70599300D01*
X193353300Y-70466900D01*
X193047900Y-70203800D01*
X192926600Y-70039100D01*
X192768800Y-69675900D01*
X192703100Y-69272200D01*
X192710643Y-69136500D01*
X193362100Y-69136500D01*
X193367500Y-69319800D01*
X193418700Y-69669800D01*
X193520800Y-69914700D01*
X193670000Y-70042700D01*
X193730700Y-70060500D01*
X193954400Y-70077100D01*
X194159400Y-70039500D01*
X194238600Y-69984400D01*
X194349500Y-69795800D01*
X194420700Y-69506500D01*
X194445900Y-69136500D01*
X194430700Y-68837100D01*
X194354700Y-68506000D01*
X194214200Y-68292800D01*
X194008200Y-68196500D01*
X193735900Y-68215800D01*
X193633500Y-68259200D01*
X193482400Y-68432400D01*
X193392100Y-68724400D01*
X193362100Y-69136500D01*
X192710643Y-69136500D01*
X192726100Y-68858400D01*
X192834600Y-68465200D01*
X193025500Y-68123100D01*
X193295400Y-67862700D01*
X193393800Y-67801100D01*
X193541100Y-67741800D01*
X193722100Y-67720500D01*
X193987100Y-67727300D01*
X194220700Y-67745300D01*
X194399100Y-67782600D01*
X194535600Y-67855500D01*
X194680100Y-67982300D01*
X194768500Y-68075300D01*
X194947500Y-68348600D01*
X195048600Y-68680100D01*
X195083600Y-69102700D01*
X195081800Y-69136500D01*
X195068300Y-69383300D01*
G37*
G36*
X196636600Y-68350100D02*
G01*
X196922700Y-68422900D01*
X197101100Y-68532300D01*
X197260400Y-68762100D01*
X197316300Y-68941400D01*
X197308800Y-69200000D01*
X197176200Y-69408100D01*
X196919100Y-69564700D01*
X196538200Y-69669100D01*
X196336500Y-69710000D01*
X196101100Y-69786000D01*
X195985600Y-69876300D01*
X195980400Y-69986300D01*
X196065400Y-70072300D01*
X196253800Y-70124900D01*
X196508900Y-70128500D01*
X196799000Y-70083100D01*
X197092300Y-69988700D01*
X197186700Y-69993400D01*
X197278600Y-70119200D01*
X197332600Y-70253400D01*
X197358400Y-70353700D01*
X197332400Y-70389400D01*
X197203700Y-70456200D01*
X196997700Y-70525000D01*
X196748800Y-70583000D01*
X196507900Y-70599200D01*
X196213000Y-70576300D01*
X195931900Y-70521200D01*
X195725100Y-70442000D01*
X195625400Y-70369000D01*
X195456800Y-70142500D01*
X195394100Y-69874000D01*
X195418800Y-69710200D01*
X195558300Y-69496700D01*
X195821100Y-69339400D01*
X196206900Y-69238300D01*
X196230700Y-69234300D01*
X196524900Y-69165400D01*
X196694400Y-69077600D01*
X196748800Y-68966100D01*
X196724300Y-68902800D01*
X196587900Y-68832600D01*
X196344100Y-68804300D01*
X196007200Y-68820700D01*
X195799100Y-68838900D01*
X195666300Y-68831800D01*
X195592800Y-68786000D01*
X195539400Y-68690800D01*
X195531400Y-68672900D01*
X195499500Y-68564000D01*
X195546400Y-68494300D01*
X195696700Y-68421900D01*
X195946600Y-68355100D01*
X196289700Y-68327500D01*
X196636600Y-68350100D01*
G37*
G36*
X199859700Y-68333000D02*
G01*
X199897300Y-68371400D01*
X199895000Y-68453600D01*
X199850100Y-68595800D01*
X199759600Y-68814100D01*
X199620900Y-69124400D01*
X199431000Y-69542900D01*
X199337600Y-69751000D01*
X199198200Y-70068000D01*
X199086600Y-70330300D01*
X199012400Y-70514900D01*
X198985200Y-70599200D01*
X198998600Y-70670200D01*
X199107700Y-70794700D01*
X199295700Y-70870800D01*
X199525300Y-70879200D01*
X199663500Y-70866400D01*
X199792200Y-70887500D01*
X199865500Y-70967200D01*
X199926500Y-71137000D01*
X199882000Y-71266800D01*
X199712100Y-71357100D01*
X199472600Y-71404600D01*
X199135600Y-71372400D01*
X198834800Y-71233500D01*
X198605100Y-70998900D01*
X198569900Y-70933700D01*
X198484500Y-70752600D01*
X198366100Y-70489100D01*
X198225400Y-70168100D01*
X198073200Y-69814800D01*
X197920200Y-69454100D01*
X197776900Y-69111100D01*
X197654000Y-68810700D01*
X197562300Y-68577900D01*
X197512400Y-68437900D01*
X197508900Y-68425500D01*
X197510000Y-68355900D01*
X197584400Y-68330300D01*
X197762600Y-68336300D01*
X198049500Y-68357600D01*
X198345600Y-69095200D01*
X198459400Y-69376200D01*
X198559400Y-69618700D01*
X198630800Y-69786500D01*
X198662900Y-69854000D01*
X198664000Y-69854200D01*
X198701400Y-69792300D01*
X198778900Y-69630600D01*
X198886000Y-69392000D01*
X199011900Y-69099400D01*
X199339900Y-68323700D01*
X199644000Y-68323700D01*
X199676200Y-68323500D01*
X199785100Y-68322400D01*
X199859700Y-68333000D01*
G37*
G36*
X202528000Y-43659200D02*
G01*
X203022800Y-43751400D01*
X203549800Y-43887900D01*
X204079100Y-44060700D01*
X204581100Y-44262100D01*
X205026200Y-44484300D01*
X205120400Y-44538100D01*
X205468600Y-44748700D01*
X205733300Y-44928800D01*
X205901600Y-45069200D01*
X205960500Y-45160400D01*
X205953600Y-45172100D01*
X205857200Y-45225800D01*
X205672500Y-45298600D01*
X205431600Y-45379200D01*
X205166900Y-45456700D01*
X204910700Y-45520100D01*
X204785800Y-45539400D01*
X204489400Y-45557100D01*
X204132300Y-45556300D01*
X203760700Y-45538500D01*
X203420900Y-45505300D01*
X203159400Y-45458500D01*
X202978600Y-45409300D01*
X202766700Y-45335800D01*
X202685200Y-45275900D01*
X202731500Y-45227000D01*
X202903000Y-45186500D01*
X202972200Y-45174000D01*
X203137400Y-45131000D01*
X203218900Y-45088700D01*
X203219400Y-45073100D01*
X203145600Y-45016100D01*
X202989900Y-44949500D01*
X202790200Y-44885900D01*
X202584200Y-44837900D01*
X202409400Y-44818100D01*
X202277700Y-44812500D01*
X202252500Y-44785400D01*
X202332800Y-44716500D01*
X202459000Y-44653300D01*
X202650500Y-44617100D01*
X202786300Y-44599700D01*
X202877900Y-44550600D01*
X202878200Y-44550000D01*
X202846600Y-44480700D01*
X202721700Y-44371000D01*
X202531900Y-44239100D01*
X202305400Y-44103400D01*
X202070600Y-43982000D01*
X201856000Y-43893100D01*
X201810500Y-43877300D01*
X201607000Y-43792500D01*
X201535400Y-43726400D01*
X201594600Y-43674700D01*
X201783500Y-43633100D01*
X202094700Y-43618800D01*
X202528000Y-43659200D01*
G37*
G36*
X212416200Y-67795100D02*
G01*
X212527700Y-67804400D01*
X212650000Y-67836500D01*
X212701100Y-67922800D01*
X212720800Y-68103600D01*
X212740000Y-68263300D01*
X212786000Y-68365000D01*
X212873200Y-68391500D01*
X212929400Y-68398600D01*
X212989200Y-68464500D01*
X213004800Y-68628500D01*
X213001400Y-68722900D01*
X212966000Y-68835600D01*
X212877400Y-68865600D01*
X212829300Y-68872900D01*
X212785400Y-68916900D01*
X212756700Y-69022700D01*
X212737300Y-69214800D01*
X212721500Y-69517800D01*
X212718400Y-69587400D01*
X212702900Y-69868100D01*
X212680400Y-70053100D01*
X212641400Y-70175400D01*
X212576300Y-70268100D01*
X212475300Y-70364400D01*
X212312100Y-70486800D01*
X212142500Y-70544100D01*
X211903100Y-70557900D01*
X211832200Y-70557300D01*
X211588600Y-70540600D01*
X211457100Y-70492100D01*
X211419400Y-70398900D01*
X211457100Y-70248400D01*
X211508600Y-70136200D01*
X211597300Y-70070500D01*
X211759900Y-70072900D01*
X211883100Y-70080200D01*
X211989100Y-70039400D01*
X212058300Y-69910900D01*
X212088600Y-69776800D01*
X212109700Y-69541000D01*
X212110200Y-69277100D01*
X212090400Y-68831700D01*
X211798500Y-68810700D01*
X211693300Y-68802200D01*
X211566400Y-68775000D01*
X211522800Y-68708900D01*
X211527600Y-68573600D01*
X211532200Y-68530400D01*
X211562800Y-68413600D01*
X211644500Y-68366300D01*
X211819500Y-68357200D01*
X211932700Y-68355700D01*
X212045400Y-68331400D01*
X212092400Y-68247300D01*
X212111400Y-68065600D01*
X212132400Y-67774500D01*
X212416200Y-67795100D01*
G37*
G36*
X203928500Y-69441300D02*
G01*
X203928500Y-70558900D01*
X203623700Y-70558900D01*
X203318900Y-70558900D01*
X203318900Y-69824400D01*
X203317200Y-69631500D01*
X203297900Y-69297300D01*
X203249800Y-69070200D01*
X203163700Y-68931400D01*
X203030400Y-68862000D01*
X202840700Y-68843000D01*
X202756300Y-68846200D01*
X202607200Y-68883400D01*
X202505100Y-68977800D01*
X202441000Y-69149000D01*
X202405600Y-69416300D01*
X202389800Y-69799300D01*
X202375000Y-70525100D01*
X202085000Y-70525100D01*
X201794900Y-70525100D01*
X201775800Y-69805400D01*
X201769600Y-69615900D01*
X201747700Y-69308600D01*
X201704700Y-69100700D01*
X201629800Y-68967900D01*
X201512300Y-68886000D01*
X201341100Y-68830500D01*
X201285600Y-68819500D01*
X201138100Y-68839300D01*
X200985500Y-68957600D01*
X200960100Y-68983500D01*
X200891400Y-69067400D01*
X200848200Y-69165500D01*
X200824600Y-69308200D01*
X200814800Y-69525800D01*
X200812800Y-69848500D01*
X200812800Y-70566700D01*
X200524900Y-70545900D01*
X200237100Y-70525100D01*
X200241400Y-69712300D01*
X200243400Y-69544200D01*
X200259100Y-69168000D01*
X200288600Y-68895900D01*
X200330400Y-68743400D01*
X200478100Y-68560400D01*
X200736900Y-68405600D01*
X201048900Y-68334100D01*
X201379800Y-68352700D01*
X201695400Y-68468500D01*
X201953100Y-68613300D01*
X202137100Y-68468500D01*
X202289100Y-68386100D01*
X202567700Y-68327500D01*
X202869900Y-68340000D01*
X203140400Y-68425800D01*
X203218500Y-68466100D01*
X203334500Y-68516700D01*
X203379300Y-68503100D01*
X203386700Y-68425300D01*
X203391600Y-68396100D01*
X203469200Y-68340500D01*
X203657600Y-68323700D01*
X203928500Y-68323700D01*
X203928500Y-69441300D01*
G37*
G36*
X207297600Y-68345700D02*
G01*
X207488500Y-68423200D01*
X207600200Y-68497300D01*
X207693300Y-68513400D01*
X207721600Y-68425300D01*
X207726500Y-68396100D01*
X207804100Y-68340500D01*
X207992500Y-68323700D01*
X208263500Y-68323700D01*
X208263500Y-69445200D01*
X208263500Y-70566700D01*
X207975600Y-70545900D01*
X207687700Y-70525100D01*
X207668500Y-69800100D01*
X207665000Y-69671500D01*
X207653700Y-69389200D01*
X207635300Y-69203300D01*
X207603500Y-69085100D01*
X207551600Y-69005800D01*
X207473100Y-68936500D01*
X207292100Y-68827400D01*
X207100400Y-68814700D01*
X206900700Y-68926300D01*
X206881600Y-68942100D01*
X206817400Y-69010900D01*
X206774700Y-69104000D01*
X206747400Y-69249200D01*
X206729900Y-69474200D01*
X206716400Y-69806800D01*
X206690600Y-70558900D01*
X206427200Y-70558900D01*
X206163700Y-70558900D01*
X206163700Y-69876400D01*
X206163600Y-69745700D01*
X206159700Y-69476800D01*
X206144800Y-69299000D01*
X206111300Y-69180000D01*
X206051800Y-69087400D01*
X205958800Y-68988900D01*
X205846200Y-68886700D01*
X205713400Y-68820000D01*
X205569700Y-68830300D01*
X205443500Y-68867100D01*
X205337600Y-68925400D01*
X205270800Y-69022500D01*
X205234100Y-69182600D01*
X205218600Y-69429800D01*
X205215500Y-69788300D01*
X205215500Y-70558900D01*
X204910700Y-70558900D01*
X204605900Y-70558900D01*
X204605900Y-69742800D01*
X204607900Y-69505700D01*
X204625800Y-69132600D01*
X204668200Y-68860500D01*
X204741700Y-68667000D01*
X204853400Y-68529800D01*
X205010000Y-68426500D01*
X205078600Y-68395600D01*
X205392600Y-68330400D01*
X205735500Y-68353000D01*
X206049800Y-68461300D01*
X206306400Y-68598800D01*
X206481300Y-68461300D01*
X206541300Y-68422800D01*
X206768100Y-68347600D01*
X207038800Y-68321300D01*
X207297600Y-68345700D01*
G37*
G36*
X189790100Y-68975300D02*
G01*
X189615800Y-69238800D01*
X189529500Y-69315600D01*
X189219800Y-69480200D01*
X188873700Y-69526100D01*
X188522900Y-69447200D01*
X188340600Y-69372600D01*
X188248700Y-69350400D01*
X188217500Y-69385600D01*
X188214400Y-69482000D01*
X188227200Y-69540500D01*
X188313300Y-69695800D01*
X188453800Y-69863600D01*
X188494000Y-69903600D01*
X188620000Y-70016000D01*
X188734400Y-70070900D01*
X188886200Y-70083400D01*
X189124100Y-70068400D01*
X189152000Y-70066200D01*
X189377000Y-70052900D01*
X189507300Y-70064200D01*
X189579400Y-70109400D01*
X189629700Y-70198000D01*
X189665600Y-70280500D01*
X189693900Y-70410700D01*
X189628900Y-70486000D01*
X189450500Y-70545200D01*
X189332500Y-70573700D01*
X188926700Y-70615800D01*
X188538200Y-70556000D01*
X188521100Y-70551100D01*
X188180900Y-70387800D01*
X187911000Y-70134000D01*
X187714000Y-69813300D01*
X187592800Y-69449500D01*
X187550000Y-69066200D01*
X187588500Y-68687200D01*
X187588779Y-68686400D01*
X188230600Y-68686400D01*
X188332900Y-68860200D01*
X188343700Y-68872400D01*
X188500000Y-68979400D01*
X188700500Y-69045000D01*
X188818900Y-69058100D01*
X188975100Y-69028600D01*
X189123800Y-68910600D01*
X189163000Y-68870100D01*
X189276000Y-68706100D01*
X189273400Y-68553000D01*
X189157800Y-68366700D01*
X189056100Y-68270000D01*
X188836900Y-68186700D01*
X188599100Y-68214700D01*
X188380700Y-68354500D01*
X188378800Y-68356400D01*
X188244700Y-68530700D01*
X188230600Y-68686400D01*
X187588779Y-68686400D01*
X187711000Y-68336300D01*
X187920300Y-68037100D01*
X188219100Y-67813300D01*
X188249100Y-67798600D01*
X188558700Y-67713300D01*
X188901000Y-67712700D01*
X189236600Y-67788200D01*
X189525900Y-67931500D01*
X189729200Y-68134200D01*
X189824200Y-68342900D01*
X189861000Y-68662200D01*
X189851100Y-68706100D01*
X189790100Y-68975300D01*
G37*
G36*
X201083000Y-40331400D02*
G01*
X201130000Y-40370400D01*
X201375900Y-40574400D01*
X201639800Y-40764900D01*
X201900900Y-40921000D01*
X202185700Y-41060700D01*
X202520300Y-41202300D01*
X202681900Y-41269700D01*
X202896300Y-41374000D01*
X202983200Y-41446000D01*
X202944600Y-41488000D01*
X202782700Y-41502400D01*
X202710800Y-41504300D01*
X202545100Y-41533500D01*
X202508200Y-41599000D01*
X202600200Y-41702200D01*
X202821200Y-41844500D01*
X203068700Y-41991200D01*
X203390700Y-42191200D01*
X203771200Y-42434000D01*
X204197100Y-42710700D01*
X204655000Y-43012200D01*
X205131700Y-43329600D01*
X205614000Y-43654000D01*
X206088700Y-43976200D01*
X206542500Y-44287400D01*
X206962200Y-44578500D01*
X207334500Y-44840600D01*
X207646300Y-45064600D01*
X207884300Y-45241700D01*
X207905900Y-45259000D01*
X208035300Y-45362800D01*
X208086000Y-45418900D01*
X208058300Y-45452300D01*
X207928800Y-45540200D01*
X207718200Y-45658700D01*
X207453200Y-45794200D01*
X207160600Y-45933200D01*
X207105500Y-45957500D01*
X206867500Y-46062200D01*
X206600500Y-46167500D01*
X206578900Y-46175300D01*
X206226300Y-46289100D01*
X205827900Y-46399200D01*
X205465900Y-46482900D01*
X205341600Y-46508600D01*
X205103400Y-46565100D01*
X204938500Y-46614400D01*
X204876800Y-46648100D01*
X204905100Y-46695200D01*
X205018500Y-46822800D01*
X205201500Y-47009500D01*
X205435800Y-47237900D01*
X205703300Y-47490800D01*
X205985700Y-47751100D01*
X206264700Y-48001500D01*
X206522000Y-48224900D01*
X206739500Y-48403900D01*
X206863300Y-48499900D01*
X207149800Y-48711100D01*
X207422800Y-48899700D01*
X207636900Y-49033900D01*
X207797000Y-49131400D01*
X207938200Y-49233800D01*
X207992500Y-49297100D01*
X207991200Y-49301500D01*
X207912400Y-49327600D01*
X207734300Y-49344800D01*
X207488100Y-49353100D01*
X207205400Y-49352400D01*
X206917500Y-49342800D01*
X206655700Y-49324300D01*
X206451600Y-49296800D01*
X206371300Y-49283200D01*
X206222700Y-49271800D01*
X206163700Y-49289900D01*
X206166900Y-49300700D01*
X206240400Y-49389900D01*
X206395100Y-49537400D01*
X206608900Y-49724600D01*
X206859600Y-49933200D01*
X207125400Y-50144700D01*
X207384200Y-50340700D01*
X207613900Y-50502800D01*
X207625200Y-50510300D01*
X207877000Y-50674900D01*
X208201700Y-50882500D01*
X208558500Y-51107200D01*
X208906900Y-51323300D01*
X208907700Y-51323700D01*
X209060900Y-51417900D01*
X209353600Y-51597600D01*
X209554100Y-51721800D01*
X209678300Y-51801900D01*
X209742500Y-51849000D01*
X209762500Y-51874600D01*
X209754500Y-51889900D01*
X209734500Y-51906200D01*
X209726400Y-51909700D01*
X209617900Y-51913100D01*
X209407500Y-51901200D01*
X209121300Y-51875700D01*
X208785200Y-51838400D01*
X208552800Y-51813000D01*
X208188200Y-51781400D01*
X207817900Y-51757400D01*
X207462100Y-51741500D01*
X207140900Y-51734000D01*
X206874400Y-51735400D01*
X206682700Y-51746000D01*
X206585900Y-51766200D01*
X206604000Y-51796400D01*
X206607600Y-51797900D01*
X206728500Y-51843900D01*
X206946100Y-51922600D01*
X207230600Y-52023200D01*
X207552300Y-52135100D01*
X207817400Y-52229500D01*
X208569700Y-52532500D01*
X209228600Y-52853500D01*
X209780000Y-53185000D01*
X210210000Y-53519900D01*
X210403900Y-53709100D01*
X210618000Y-53937800D01*
X210829100Y-54179200D01*
X211019200Y-54411200D01*
X211170200Y-54611600D01*
X211263800Y-54758200D01*
X211282000Y-54829100D01*
X211274100Y-54832100D01*
X211186900Y-54801000D01*
X211047100Y-54714000D01*
X210964700Y-54661200D01*
X210750300Y-54541300D01*
X210467000Y-54394800D01*
X210146100Y-54236600D01*
X209819000Y-54081800D01*
X209517300Y-53945500D01*
X209272200Y-53842800D01*
X209115400Y-53788600D01*
X209059000Y-53777800D01*
X209018200Y-53788200D01*
X209031400Y-53842000D01*
X209107400Y-53953900D01*
X209254900Y-54138800D01*
X209482400Y-54411200D01*
X209698100Y-54672600D01*
X210290700Y-55464600D01*
X210805700Y-56282800D01*
X211278700Y-57181600D01*
X211452700Y-57542600D01*
X211609600Y-57877200D01*
X211707100Y-58105500D01*
X211745600Y-58235900D01*
X211725600Y-58276500D01*
X211647500Y-58235600D01*
X211511600Y-58121400D01*
X211318600Y-57942400D01*
X210811600Y-57487800D01*
X209814000Y-56712600D01*
X208762600Y-56039900D01*
X207675300Y-55480700D01*
X206570100Y-55046000D01*
X206376200Y-54986000D01*
X206060300Y-54898800D01*
X205697500Y-54806600D01*
X205317300Y-54716100D01*
X204949400Y-54634200D01*
X204623400Y-54567600D01*
X204368800Y-54523100D01*
X204215300Y-54507400D01*
X204212800Y-54527700D01*
X204304600Y-54598200D01*
X204482000Y-54707200D01*
X204726100Y-54842200D01*
X205074900Y-55037100D01*
X205617500Y-55372600D01*
X206153500Y-55738300D01*
X206643500Y-56106800D01*
X207048000Y-56450800D01*
X207460400Y-56832700D01*
X206885400Y-57020100D01*
X206713000Y-57078100D01*
X206104000Y-57321100D01*
X205576000Y-57607000D01*
X205085700Y-57961900D01*
X204589700Y-58411900D01*
X204484100Y-58518100D01*
X204130900Y-58912800D01*
X203820700Y-59336200D01*
X203515000Y-59839600D01*
X203456200Y-59936200D01*
X203357700Y-60065300D01*
X203292800Y-60107400D01*
X203285000Y-60103800D01*
X203212900Y-60007200D01*
X203123000Y-59805200D01*
X203024000Y-59521800D01*
X202924200Y-59181200D01*
X202832300Y-58807200D01*
X202800900Y-58659000D01*
X202751400Y-58364900D01*
X202724500Y-58068700D01*
X202716800Y-57726200D01*
X202725400Y-57293300D01*
X202727900Y-57215400D01*
X202737600Y-56875900D01*
X202740000Y-56651000D01*
X202732800Y-56523300D01*
X202713900Y-56475300D01*
X202681000Y-56489400D01*
X202632100Y-56548200D01*
X202359700Y-56969100D01*
X202095300Y-57531400D01*
X201889000Y-58151500D01*
X201756100Y-58790000D01*
X201742700Y-58882000D01*
X201705100Y-59124600D01*
X201674700Y-59298500D01*
X201657100Y-59371000D01*
X201608000Y-59360800D01*
X201454600Y-59298400D01*
X201215800Y-59189900D01*
X200910400Y-59044600D01*
X200557200Y-58871900D01*
X200175000Y-58681100D01*
X199782600Y-58481400D01*
X199398900Y-58282200D01*
X199042600Y-58092800D01*
X198732500Y-57922500D01*
X198267400Y-57653900D01*
X197609900Y-57254800D01*
X196917700Y-56816700D01*
X196229700Y-56364700D01*
X195584700Y-55924000D01*
X195021600Y-55519600D01*
X194818000Y-55366500D01*
X194478700Y-55104200D01*
X194134100Y-54830100D01*
X193803000Y-54560000D01*
X193504100Y-54309500D01*
X193256400Y-54094300D01*
X193078600Y-53929900D01*
X192989700Y-53832100D01*
X192981800Y-53819600D01*
X192863200Y-53590800D01*
X192731700Y-53276700D01*
X192598800Y-52912000D01*
X192475600Y-52531600D01*
X192373600Y-52170400D01*
X192304100Y-51863200D01*
X192278400Y-51644900D01*
X192272600Y-51539500D01*
X192235300Y-51452400D01*
X192165900Y-51489000D01*
X192067600Y-51645200D01*
X191943500Y-51916700D01*
X191796700Y-52299400D01*
X191790500Y-52316500D01*
X191698300Y-52513700D01*
X191612900Y-52576000D01*
X191528500Y-52503500D01*
X191439200Y-52295900D01*
X191378700Y-52035200D01*
X191341000Y-51651400D01*
X191337200Y-51217800D01*
X191359433Y-50893800D01*
X198663300Y-50893800D01*
X198707900Y-51096200D01*
X198750000Y-51297200D01*
X198794300Y-51634900D01*
X198831700Y-52055700D01*
X198861500Y-52535300D01*
X198883100Y-53049500D01*
X198896100Y-53574100D01*
X198899800Y-54084800D01*
X198893700Y-54557500D01*
X198877200Y-54968000D01*
X198849700Y-55291900D01*
X198810700Y-55505200D01*
X198805300Y-55524200D01*
X198797500Y-55635500D01*
X198863600Y-55637000D01*
X199001100Y-55530900D01*
X199208000Y-55319200D01*
X199481800Y-55003900D01*
X199820400Y-54587100D01*
X200382600Y-53792500D01*
X200901800Y-52851900D01*
X201307400Y-51862900D01*
X201588400Y-50848500D01*
X201618700Y-50705900D01*
X201678900Y-50439600D01*
X201727000Y-50274300D01*
X201773400Y-50187500D01*
X201828400Y-50156500D01*
X201902200Y-50158800D01*
X202065600Y-50201300D01*
X202334100Y-50307100D01*
X202657900Y-50458800D01*
X203005800Y-50640900D01*
X203347000Y-50837900D01*
X203650400Y-51034300D01*
X203777900Y-51120400D01*
X203981700Y-51245600D01*
X204126800Y-51317900D01*
X204187800Y-51323700D01*
X204185400Y-51233900D01*
X204137800Y-51035400D01*
X204051100Y-50763400D01*
X203935500Y-50444400D01*
X203801200Y-50105000D01*
X203658400Y-49772100D01*
X203517300Y-49472200D01*
X203388100Y-49232000D01*
X203286300Y-49067100D01*
X203105200Y-48795800D01*
X202914500Y-48530600D01*
X202731100Y-48293000D01*
X202571600Y-48104500D01*
X202452900Y-47986300D01*
X202391800Y-47960000D01*
X202388400Y-47977600D01*
X202419200Y-48085900D01*
X202493400Y-48251200D01*
X202502600Y-48269700D01*
X202581500Y-48455200D01*
X202678400Y-48713700D01*
X202782200Y-49011900D01*
X202882100Y-49316500D01*
X202966900Y-49594300D01*
X203025900Y-49811900D01*
X203048000Y-49936100D01*
X203047200Y-49950700D01*
X203013800Y-49987200D01*
X202913800Y-49962900D01*
X202722500Y-49873100D01*
X202595000Y-49814300D01*
X202357800Y-49720500D01*
X202088200Y-49626000D01*
X201817900Y-49540600D01*
X201578700Y-49474100D01*
X201402300Y-49436500D01*
X201320700Y-49437600D01*
X201311200Y-49458500D01*
X201278000Y-49586600D01*
X201233000Y-49801400D01*
X201183200Y-50071100D01*
X201141200Y-50291800D01*
X200872900Y-51263800D01*
X200472600Y-52216600D01*
X200415400Y-52329900D01*
X200249700Y-52636200D01*
X200084100Y-52915300D01*
X199933800Y-53143700D01*
X199813900Y-53298000D01*
X199739600Y-53354700D01*
X199705600Y-53300100D01*
X199660200Y-53145100D01*
X199615200Y-52924900D01*
X199548100Y-52634500D01*
X199418000Y-52224900D01*
X199251900Y-51792900D01*
X199069300Y-51388600D01*
X198889800Y-51062300D01*
X198865000Y-51023800D01*
X198743200Y-50857400D01*
X198675500Y-50814200D01*
X198663300Y-50893800D01*
X191359433Y-50893800D01*
X191367400Y-50777700D01*
X191431700Y-50374400D01*
X191477200Y-50150600D01*
X191515400Y-49924500D01*
X191531000Y-49777900D01*
X191531400Y-49740800D01*
X191520000Y-49664400D01*
X191461900Y-49667400D01*
X191321800Y-49744000D01*
X191211100Y-49822500D01*
X191021900Y-49991500D01*
X190837100Y-50188100D01*
X190704500Y-50337800D01*
X190581900Y-50462100D01*
X190516800Y-50509900D01*
X190498900Y-50493000D01*
X190495400Y-50373200D01*
X190529000Y-50155100D01*
X190595700Y-49858500D01*
X190691200Y-49503100D01*
X190811500Y-49108600D01*
X190844300Y-49005500D01*
X190967600Y-48587700D01*
X191055700Y-48236400D01*
X191105500Y-47966700D01*
X191114200Y-47793800D01*
X191078700Y-47732800D01*
X191070100Y-47734000D01*
X190976500Y-47792400D01*
X190850900Y-47911300D01*
X190758000Y-48004900D01*
X190564700Y-48172900D01*
X190361600Y-48325000D01*
X190184700Y-48435300D01*
X190069600Y-48477900D01*
X190046200Y-48432400D01*
X190093500Y-48277200D01*
X190217000Y-48013100D01*
X190336800Y-47743200D01*
X190504800Y-47151100D01*
X190573400Y-46523600D01*
X190536579Y-45916200D01*
X196036700Y-45916200D01*
X196036900Y-45947700D01*
X196062900Y-46086000D01*
X196114400Y-46307200D01*
X196185000Y-46582100D01*
X196196000Y-46623400D01*
X196275400Y-46963800D01*
X196326200Y-47287800D01*
X196354600Y-47645800D01*
X196366500Y-48088400D01*
X196367100Y-48139100D01*
X196374100Y-48456600D01*
X196384900Y-48714800D01*
X196398000Y-48888400D01*
X196412300Y-48952000D01*
X196413800Y-48951700D01*
X196482400Y-48903000D01*
X196618400Y-48785200D01*
X196793800Y-48622400D01*
X197131600Y-48260400D01*
X197513700Y-47708100D01*
X197773600Y-47124700D01*
X197775400Y-47119200D01*
X197850500Y-46895800D01*
X197909400Y-46730500D01*
X197939300Y-46658700D01*
X197978700Y-46653900D01*
X198109600Y-46709400D01*
X198305100Y-46827100D01*
X198542200Y-46990900D01*
X198798000Y-47184700D01*
X199049500Y-47392300D01*
X199273800Y-47597600D01*
X199385000Y-47706100D01*
X199580200Y-47892100D01*
X199705500Y-47998300D01*
X199778900Y-48035600D01*
X199818400Y-48015400D01*
X199842000Y-47948700D01*
X199846100Y-47930400D01*
X199863700Y-47716100D01*
X199855600Y-47407000D01*
X199825200Y-47036800D01*
X199776000Y-46638800D01*
X199711200Y-46246500D01*
X199634300Y-45893400D01*
X199592500Y-45725400D01*
X199535300Y-45481600D01*
X199499700Y-45310000D01*
X199492000Y-45240000D01*
X199501200Y-45242100D01*
X199584500Y-45303400D01*
X199733700Y-45430400D01*
X199924500Y-45602900D01*
X199997300Y-45669900D01*
X200171800Y-45826100D01*
X200293100Y-45928400D01*
X200338700Y-45957500D01*
X200328600Y-45911500D01*
X200288900Y-45765800D01*
X200229400Y-45560800D01*
X200219200Y-45526700D01*
X199964100Y-44881600D01*
X199603000Y-44285200D01*
X199121100Y-43713200D01*
X198925400Y-43514600D01*
X198743000Y-43339500D01*
X198613700Y-43226800D01*
X198557200Y-43194700D01*
X198549700Y-43268200D01*
X198560300Y-43439300D01*
X198587400Y-43668800D01*
X198613700Y-43983700D01*
X198576800Y-44583200D01*
X198550300Y-44745300D01*
X198487100Y-45068200D01*
X198421700Y-45328500D01*
X198360500Y-45502100D01*
X198310000Y-45565300D01*
X198254300Y-45529200D01*
X198129800Y-45419000D01*
X197968000Y-45260500D01*
X197819900Y-45118800D01*
X197676100Y-45001000D01*
X197591000Y-44955700D01*
X197555300Y-44987600D01*
X197507500Y-45126200D01*
X197471700Y-45345200D01*
X197434800Y-45582000D01*
X197371900Y-45857000D01*
X197294500Y-46126200D01*
X197212600Y-46357900D01*
X197136600Y-46520200D01*
X197076500Y-46581300D01*
X197013000Y-46553300D01*
X196871700Y-46458000D01*
X196693200Y-46318500D01*
X196486200Y-46155800D01*
X196274400Y-46010100D01*
X196116700Y-45925400D01*
X196036700Y-45916200D01*
X190536579Y-45916200D01*
X190535900Y-45905000D01*
X190464900Y-45569800D01*
X190234800Y-44950900D01*
X189888100Y-44356100D01*
X189437300Y-43802100D01*
X188894700Y-43305100D01*
X188272600Y-42881900D01*
X187937500Y-42667300D01*
X187569500Y-42351300D01*
X187307500Y-42001400D01*
X187134100Y-41598200D01*
X187070800Y-41359800D01*
X187016200Y-41074500D01*
X186995200Y-40848600D01*
X186998978Y-40806900D01*
X187494000Y-40806900D01*
X187530900Y-41028000D01*
X187566500Y-41179700D01*
X187676500Y-41496100D01*
X187838200Y-41752800D01*
X188082000Y-42004100D01*
X188202800Y-42108800D01*
X188351800Y-42218600D01*
X188517100Y-42310600D01*
X188721900Y-42394100D01*
X188989400Y-42478300D01*
X189342900Y-42572400D01*
X189805700Y-42685400D01*
X189950200Y-42721000D01*
X190847700Y-42991900D01*
X191678200Y-43339600D01*
X192478200Y-43781300D01*
X193284200Y-44334400D01*
X193507100Y-44512100D01*
X193807300Y-44770800D01*
X194124600Y-45059900D01*
X194418700Y-45343600D01*
X194484600Y-45409100D01*
X194708600Y-45623200D01*
X194889900Y-45784000D01*
X195011200Y-45876700D01*
X195055500Y-45886800D01*
X195039300Y-45763600D01*
X194980200Y-45534400D01*
X194893400Y-45270200D01*
X194795400Y-45020200D01*
X194702600Y-44833600D01*
X194676300Y-44789200D01*
X194606700Y-44652200D01*
X194591600Y-44584200D01*
X194597900Y-44582700D01*
X194692400Y-44608700D01*
X194877000Y-44678900D01*
X195125400Y-44782000D01*
X195411500Y-44906300D01*
X195709200Y-45040300D01*
X195992300Y-45172600D01*
X196234600Y-45291600D01*
X196410100Y-45385700D01*
X196525800Y-45451500D01*
X196680000Y-45532500D01*
X196758900Y-45564500D01*
X196773200Y-45555500D01*
X196807000Y-45452500D01*
X196833300Y-45261600D01*
X196850000Y-45017500D01*
X196855500Y-44754900D01*
X196847900Y-44508300D01*
X196825300Y-44312300D01*
X196804000Y-44188000D01*
X196786100Y-44020200D01*
X196793400Y-43940300D01*
X196793800Y-43940000D01*
X196866900Y-43954600D01*
X197023100Y-44022700D01*
X197229200Y-44129800D01*
X197441500Y-44236000D01*
X197611500Y-44300500D01*
X197702300Y-44309000D01*
X197725300Y-44273600D01*
X197745600Y-44122200D01*
X197739900Y-43884200D01*
X197711500Y-43588800D01*
X197663400Y-43265600D01*
X197598900Y-42943800D01*
X197521200Y-42652800D01*
X197413000Y-42356600D01*
X197265200Y-42026200D01*
X197116500Y-41752900D01*
X197110265Y-41743100D01*
X200907000Y-41743100D01*
X200958700Y-41895800D01*
X201042800Y-42065000D01*
X201139200Y-42202700D01*
X201171500Y-42234300D01*
X201328900Y-42353700D01*
X201524000Y-42470700D01*
X201794900Y-42612900D01*
X201496200Y-42655800D01*
X201445400Y-42664300D01*
X201174000Y-42769900D01*
X201005900Y-42957300D01*
X200948300Y-43219300D01*
X200959000Y-43293900D01*
X201007900Y-43492700D01*
X201089700Y-43778900D01*
X201196700Y-44128800D01*
X201321600Y-44518900D01*
X201456900Y-44925400D01*
X201595100Y-45324600D01*
X201728800Y-45693100D01*
X201738700Y-45716100D01*
X201789500Y-45745400D01*
X201888300Y-45674400D01*
X201963500Y-45618000D01*
X202045900Y-45606100D01*
X202170300Y-45648100D01*
X202374800Y-45749800D01*
X202399000Y-45762300D01*
X202545700Y-45833000D01*
X202683400Y-45882200D01*
X202841000Y-45914600D01*
X203047400Y-45934300D01*
X203331500Y-45945800D01*
X203722200Y-45953400D01*
X203869300Y-45955500D01*
X204255800Y-45955900D01*
X204559200Y-45944400D01*
X204819300Y-45917500D01*
X205075500Y-45871400D01*
X205367500Y-45802500D01*
X205413900Y-45790600D01*
X205795000Y-45681600D01*
X206135300Y-45564700D01*
X206411800Y-45449200D01*
X206601800Y-45344700D01*
X206682500Y-45260500D01*
X206682800Y-45259000D01*
X206635800Y-45187300D01*
X206503400Y-45068400D01*
X206313300Y-44927200D01*
X206248000Y-44882200D01*
X206017400Y-44722900D01*
X205719200Y-44516500D01*
X205385000Y-44284800D01*
X205046100Y-44049400D01*
X204761300Y-43852600D01*
X203855200Y-43245300D01*
X203044600Y-42732800D01*
X202328600Y-42314700D01*
X201706700Y-41990500D01*
X201673700Y-41974600D01*
X201385100Y-41839800D01*
X201145300Y-41734500D01*
X200978500Y-41669000D01*
X200909000Y-41653500D01*
X200907700Y-41654900D01*
X200907000Y-41743100D01*
X197110265Y-41743100D01*
X197083800Y-41701500D01*
X196911500Y-41469800D01*
X196721800Y-41304000D01*
X196458300Y-41152800D01*
X196441400Y-41144200D01*
X196023800Y-40882100D01*
X195639800Y-40552900D01*
X195322300Y-40188900D01*
X195104200Y-39822300D01*
X195066200Y-39730900D01*
X194979400Y-39488400D01*
X194897900Y-39221600D01*
X194829300Y-38960900D01*
X194781300Y-38736900D01*
X194761600Y-38580100D01*
X194777800Y-38521100D01*
X194789400Y-38527800D01*
X194860400Y-38616800D01*
X194971800Y-38787400D01*
X195105200Y-39012100D01*
X195385500Y-39444900D01*
X195703900Y-39798900D01*
X196037600Y-40029800D01*
X196047300Y-40034400D01*
X196194600Y-40085300D01*
X196423900Y-40146600D01*
X196704800Y-40212300D01*
X197006900Y-40276000D01*
X197299500Y-40331800D01*
X197552200Y-40373300D01*
X197734500Y-40394500D01*
X197815800Y-40389200D01*
X197821300Y-40370400D01*
X197792500Y-40254400D01*
X197714300Y-40065700D01*
X197602700Y-39835100D01*
X197473900Y-39593200D01*
X197343800Y-39370600D01*
X197228400Y-39197900D01*
X197143900Y-39105800D01*
X197085500Y-39073500D01*
X196887300Y-38994500D01*
X196657200Y-38929400D01*
X196374500Y-38849500D01*
X196026800Y-38695700D01*
X195683200Y-38473000D01*
X195327100Y-38168300D01*
X194942100Y-37769000D01*
X194758577Y-37553000D01*
X195322500Y-37553000D01*
X195324300Y-37594400D01*
X195375400Y-37657300D01*
X195482600Y-37758700D01*
X195795300Y-37924100D01*
X196186600Y-37979500D01*
X196424500Y-38001900D01*
X196747600Y-38123500D01*
X196792900Y-38151400D01*
X196920800Y-38238900D01*
X197027100Y-38336500D01*
X197133900Y-38471000D01*
X197263600Y-38669300D01*
X197438300Y-38958200D01*
X197627000Y-39236000D01*
X197876600Y-39545900D01*
X198123000Y-39804900D01*
X198210700Y-39885900D01*
X198446200Y-40095900D01*
X198601400Y-40218000D01*
X198686900Y-40259600D01*
X198713100Y-40228500D01*
X198704100Y-40180100D01*
X198647900Y-40015000D01*
X198551700Y-39774700D01*
X198428500Y-39488600D01*
X198291600Y-39186300D01*
X198154100Y-38897300D01*
X198029300Y-38651100D01*
X197930200Y-38477100D01*
X197689100Y-38175500D01*
X197284900Y-37841200D01*
X196781800Y-37565500D01*
X196741700Y-37548100D01*
X196576900Y-37490400D01*
X196404500Y-37462300D01*
X196182300Y-37459600D01*
X195868100Y-37478500D01*
X195820400Y-37482100D01*
X195549900Y-37504300D01*
X195390800Y-37525400D01*
X195322500Y-37553000D01*
X194758577Y-37553000D01*
X194511500Y-37262200D01*
X194336800Y-37051700D01*
X194009100Y-36671700D01*
X193640400Y-36257600D01*
X193264200Y-35847000D01*
X192913700Y-35477000D01*
X192647800Y-35203400D01*
X192393400Y-34946900D01*
X192206500Y-34768300D01*
X192073200Y-34655900D01*
X191979500Y-34598400D01*
X191911500Y-34584100D01*
X191855300Y-34601500D01*
X191849700Y-34604300D01*
X191707600Y-34649800D01*
X191480400Y-34697700D01*
X191214600Y-34738200D01*
X190934200Y-34784000D01*
X190609200Y-34857700D01*
X190343900Y-34938500D01*
X190045200Y-35083900D01*
X189878300Y-35250900D01*
X189868900Y-35301900D01*
X189842700Y-35444700D01*
X189937600Y-35670800D01*
X190161700Y-35934700D01*
X190290200Y-36067700D01*
X190446100Y-36251700D01*
X190595000Y-36460300D01*
X190743200Y-36706300D01*
X190897000Y-37002900D01*
X191057900Y-37353200D01*
X191062500Y-37363000D01*
X191245900Y-37799700D01*
X191453600Y-38325800D01*
X191691700Y-38954400D01*
X191966400Y-39698500D01*
X191998700Y-39787500D01*
X192107600Y-40104800D01*
X192191000Y-40374000D01*
X192241200Y-40569000D01*
X192250400Y-40663700D01*
X192242500Y-40678200D01*
X192122900Y-40736600D01*
X191878300Y-40756300D01*
X191677800Y-40767900D01*
X191376600Y-40807300D01*
X191080300Y-40864900D01*
X191073500Y-40866500D01*
X190716100Y-40927300D01*
X190338700Y-40942300D01*
X189915300Y-40909700D01*
X189419600Y-40827400D01*
X188825700Y-40693400D01*
X188669000Y-40655200D01*
X188239000Y-40558100D01*
X187920800Y-40505300D01*
X187700800Y-40500300D01*
X187565400Y-40546500D01*
X187501000Y-40647500D01*
X187494000Y-40806900D01*
X186998978Y-40806900D01*
X187018700Y-40589200D01*
X187093000Y-40326300D01*
X187203700Y-40128200D01*
X187336300Y-40030200D01*
X187392800Y-39999900D01*
X187518500Y-39866000D01*
X187643100Y-39663800D01*
X187690900Y-39574800D01*
X187817300Y-39396300D01*
X187918900Y-39336700D01*
X187986600Y-39398100D01*
X188011200Y-39582500D01*
X188046900Y-39825300D01*
X188158900Y-40000300D01*
X188326400Y-40065500D01*
X188528000Y-40013500D01*
X188742400Y-39837000D01*
X188861400Y-39717100D01*
X188991700Y-39645100D01*
X189069300Y-39697400D01*
X189094900Y-39874200D01*
X189108500Y-40055000D01*
X189159300Y-40220100D01*
X189237600Y-40282100D01*
X189245800Y-40281000D01*
X189290900Y-40201000D01*
X189308000Y-40005900D01*
X189298600Y-39710600D01*
X189264000Y-39330200D01*
X189205300Y-38879900D01*
X189124100Y-38374600D01*
X189021600Y-37829400D01*
X188933300Y-37384200D01*
X188882695Y-37105400D01*
X190416500Y-37105400D01*
X190434700Y-37298900D01*
X190488200Y-37500400D01*
X190558900Y-37610000D01*
X190630900Y-37607700D01*
X190689700Y-37483300D01*
X190693400Y-37353200D01*
X190654600Y-37188800D01*
X190588300Y-37039000D01*
X190512500Y-36943200D01*
X190444900Y-36940800D01*
X190430400Y-36968200D01*
X190416500Y-37105400D01*
X188882695Y-37105400D01*
X188847900Y-36913700D01*
X188794900Y-36530200D01*
X188776600Y-36208300D01*
X188783522Y-36099600D01*
X189095900Y-36099600D01*
X189105600Y-36143500D01*
X189172000Y-36142800D01*
X189286900Y-36047500D01*
X189433200Y-35869300D01*
X189476000Y-35807800D01*
X189600400Y-35559600D01*
X189636800Y-35301900D01*
X189635700Y-35248400D01*
X189604500Y-35044100D01*
X189540700Y-34932400D01*
X189458900Y-34927400D01*
X189373400Y-35043400D01*
X189352700Y-35095100D01*
X189293800Y-35277300D01*
X189226500Y-35515100D01*
X189163000Y-35762200D01*
X189115400Y-35972500D01*
X189095900Y-36099600D01*
X188783522Y-36099600D01*
X188794800Y-35922500D01*
X188851600Y-35647300D01*
X188948900Y-35357300D01*
X189088800Y-35027100D01*
X189273300Y-34631100D01*
X189352800Y-34465000D01*
X189516300Y-34130700D01*
X189663800Y-33839100D01*
X189781500Y-33616900D01*
X189855800Y-33490800D01*
X189890500Y-33444100D01*
X190142900Y-33226000D01*
X190456100Y-33118900D01*
X190811500Y-33126400D01*
X191190200Y-33251600D01*
X191227200Y-33271700D01*
X191412000Y-33403500D01*
X191682800Y-33631900D01*
X192040900Y-33957700D01*
X192487400Y-34382000D01*
X193023500Y-34905900D01*
X193459500Y-35335400D01*
X193882200Y-35748300D01*
X194227800Y-36080600D01*
X194505900Y-36340900D01*
X194726000Y-36537600D01*
X194897800Y-36679400D01*
X195030800Y-36774800D01*
X195134700Y-36832300D01*
X195219100Y-36860500D01*
X195304500Y-36871200D01*
X195509000Y-36886300D01*
X195787500Y-36900800D01*
X196105300Y-36912600D01*
X196404100Y-36925300D01*
X196713800Y-36953600D01*
X196942500Y-36998900D01*
X197121300Y-37065900D01*
X197248500Y-37134000D01*
X197557500Y-37332300D01*
X197942000Y-37610800D01*
X198389100Y-37959000D01*
X198885600Y-38366400D01*
X199418500Y-38822400D01*
X199975000Y-39316500D01*
X200541900Y-39838100D01*
X200734800Y-40017700D01*
X200968700Y-40228500D01*
X201083000Y-40331400D01*
G37*
G36*
X188588000Y-37753200D02*
G01*
X188681000Y-38216400D01*
X188721600Y-38441300D01*
X188776400Y-38744700D01*
X188784200Y-38790700D01*
X188813300Y-38995700D01*
X188803900Y-39126700D01*
X188743300Y-39234600D01*
X188618600Y-39370000D01*
X188393300Y-39602400D01*
X188286900Y-39281900D01*
X188256400Y-39193100D01*
X188185000Y-39039500D01*
X188096900Y-38967200D01*
X187957000Y-38939900D01*
X187927200Y-38937500D01*
X187782200Y-38950300D01*
X187657200Y-39021400D01*
X187649200Y-39025900D01*
X187482800Y-39188000D01*
X187455000Y-39218000D01*
X187428900Y-39247400D01*
X187164700Y-39544300D01*
X186957100Y-39812800D01*
X186814500Y-40052800D01*
X186719500Y-40293400D01*
X186654500Y-40564000D01*
X186632700Y-40729600D01*
X186639800Y-41157100D01*
X186719000Y-41594900D01*
X186860600Y-41977200D01*
X186901500Y-42063700D01*
X186951700Y-42263700D01*
X186924600Y-42488800D01*
X186878500Y-42782500D01*
X186864500Y-43154500D01*
X186891700Y-43507500D01*
X186958400Y-43786000D01*
X187013000Y-43943100D01*
X187093000Y-44206200D01*
X187167500Y-44481600D01*
X187190300Y-44569500D01*
X187274300Y-44872000D01*
X187377400Y-45222000D01*
X187482300Y-45560200D01*
X187558400Y-45804000D01*
X187620300Y-46031600D01*
X187638600Y-46150100D01*
X187645100Y-46192700D01*
X187637700Y-46321600D01*
X187602500Y-46452900D01*
X187575700Y-46541900D01*
X187558200Y-46649600D01*
X187566600Y-46768200D01*
X187607100Y-46920100D01*
X187686000Y-47127600D01*
X187809800Y-47413100D01*
X187984800Y-47798900D01*
X188079100Y-48001200D01*
X188175700Y-48181200D01*
X188264100Y-48287700D01*
X188370200Y-48349700D01*
X188519900Y-48396000D01*
X188641200Y-48433800D01*
X188786900Y-48512700D01*
X188916300Y-48645800D01*
X189068300Y-48866300D01*
X189195000Y-49059200D01*
X189381600Y-49329900D01*
X189545100Y-49554400D01*
X189609000Y-49642300D01*
X189734700Y-49879700D01*
X189772300Y-50108300D01*
X189772800Y-50116800D01*
X189776800Y-50183800D01*
X189806200Y-50303100D01*
X189873200Y-50446900D01*
X189989300Y-50635800D01*
X190166200Y-50890000D01*
X190415700Y-51229900D01*
X190550100Y-51412800D01*
X190752000Y-51696700D01*
X190913400Y-51935500D01*
X191020400Y-52108200D01*
X191059200Y-52194100D01*
X191068900Y-52243300D01*
X191131000Y-52396700D01*
X191188100Y-52504800D01*
X191231400Y-52586700D01*
X191305200Y-52703000D01*
X191433500Y-52839900D01*
X191564600Y-52880500D01*
X191598200Y-52884500D01*
X191736900Y-52953600D01*
X191929800Y-53116100D01*
X192188300Y-53380900D01*
X192700100Y-53903500D01*
X193465600Y-54602600D01*
X194332500Y-55316800D01*
X195284300Y-56034300D01*
X195310900Y-56052800D01*
X196049900Y-56566400D01*
X196304600Y-56743300D01*
X197376900Y-57432100D01*
X198484800Y-58088700D01*
X199611800Y-58701500D01*
X199710200Y-58752200D01*
X200178600Y-58984800D01*
X200683000Y-59223400D01*
X201203700Y-59459500D01*
X201721100Y-59685100D01*
X202215400Y-59891700D01*
X202667100Y-60071100D01*
X203056300Y-60215200D01*
X203363600Y-60315500D01*
X203569200Y-60363900D01*
X203670800Y-60376200D01*
X203863300Y-60379600D01*
X204020700Y-60330600D01*
X204212600Y-60213000D01*
X204317300Y-60144300D01*
X204501500Y-60033500D01*
X204628500Y-59970000D01*
X204634600Y-59968500D01*
X204748300Y-59975500D01*
X204959600Y-60010300D01*
X205239400Y-60066200D01*
X205558500Y-60136700D01*
X205887700Y-60215000D01*
X206197800Y-60294500D01*
X206459500Y-60368500D01*
X206643800Y-60430300D01*
X206727100Y-60504600D01*
X206848000Y-60665300D01*
X206978200Y-60876100D01*
X207205100Y-61279500D01*
X207820500Y-61279500D01*
X208435900Y-61279500D01*
X208566000Y-61037700D01*
X208589500Y-60995200D01*
X208699600Y-60836500D01*
X208835400Y-60731300D01*
X209033400Y-60658600D01*
X209330000Y-60597300D01*
X209437300Y-60576100D01*
X209721500Y-60508200D01*
X210056200Y-60417800D01*
X210389700Y-60318400D01*
X210565100Y-60263400D01*
X210810100Y-60190500D01*
X210973800Y-60153800D01*
X211087400Y-60150400D01*
X211182100Y-60177100D01*
X211288900Y-60231000D01*
X211518100Y-60354400D01*
X211748600Y-60131000D01*
X211794148Y-60077200D01*
X213614700Y-60077200D01*
X213624700Y-60099600D01*
X213712500Y-60128000D01*
X213794400Y-60073000D01*
X213901900Y-59915100D01*
X214018600Y-59683600D01*
X214131100Y-59407800D01*
X214226300Y-59116900D01*
X214291100Y-58840500D01*
X214316600Y-58664100D01*
X214340700Y-58377200D01*
X214346100Y-58104300D01*
X214333500Y-57875600D01*
X214303800Y-57721200D01*
X214257900Y-57671300D01*
X214242200Y-57689100D01*
X214206600Y-57811500D01*
X214172800Y-58023200D01*
X214146400Y-58293100D01*
X214145100Y-58310200D01*
X214128500Y-58435000D01*
X214066700Y-58899800D01*
X213929200Y-59412300D01*
X213739300Y-59822400D01*
X213726200Y-59844100D01*
X213647100Y-59990200D01*
X213614700Y-60077200D01*
X211794148Y-60077200D01*
X211974900Y-59863700D01*
X212225400Y-59434300D01*
X212421900Y-58938000D01*
X212550500Y-58411500D01*
X212597400Y-57891300D01*
X212597400Y-57859100D01*
X212581300Y-57623100D01*
X212522600Y-57450500D01*
X212400800Y-57277600D01*
X212386800Y-57260300D01*
X212278300Y-57097700D01*
X212181300Y-56889500D01*
X212088200Y-56613600D01*
X211991400Y-56247800D01*
X211883300Y-55770000D01*
X211835300Y-55541000D01*
X211805500Y-55357500D01*
X211806927Y-55272400D01*
X212096500Y-55272400D01*
X212288800Y-56023800D01*
X212377900Y-56356900D01*
X212471600Y-56636500D01*
X212580100Y-56847000D01*
X212726100Y-57021900D01*
X212932500Y-57194700D01*
X213222100Y-57399200D01*
X213682100Y-57713500D01*
X213682100Y-58247200D01*
X213682100Y-58780800D01*
X213343500Y-58921600D01*
X213209400Y-58982100D01*
X213062100Y-59064700D01*
X213004800Y-59121000D01*
X213008700Y-59139400D01*
X213086000Y-59170200D01*
X213235100Y-59149000D01*
X213420700Y-59089000D01*
X213607300Y-59003400D01*
X213759400Y-58905600D01*
X213841500Y-58808700D01*
X213868800Y-58682700D01*
X213883400Y-58435000D01*
X213874800Y-58131900D01*
X213842800Y-57817600D01*
X213841000Y-57805100D01*
X213813400Y-57666500D01*
X213762900Y-57555900D01*
X213667100Y-57447500D01*
X213503700Y-57315400D01*
X213250100Y-57133700D01*
X212700000Y-56747100D01*
X212536900Y-56033100D01*
X212373800Y-55319100D01*
X212655500Y-54985100D01*
X212679032Y-54954600D01*
X212902200Y-54954600D01*
X212922000Y-55132300D01*
X213033100Y-55403000D01*
X213128900Y-55627600D01*
X213239500Y-55943400D01*
X213327200Y-56251800D01*
X213366300Y-56405900D01*
X213431500Y-56607500D01*
X213494900Y-56711300D01*
X213568200Y-56740900D01*
X213646900Y-56720200D01*
X213654600Y-56622800D01*
X213643000Y-56584400D01*
X213595200Y-56421900D01*
X213525500Y-56182600D01*
X213444700Y-55903100D01*
X213407300Y-55775700D01*
X213324500Y-55508400D01*
X213253400Y-55297400D01*
X213206100Y-55179900D01*
X213177300Y-55096700D01*
X213181600Y-54951300D01*
X213182400Y-54872600D01*
X213077700Y-54844800D01*
X212974200Y-54862500D01*
X212902200Y-54954600D01*
X212679032Y-54954600D01*
X212801400Y-54796000D01*
X212910500Y-54608800D01*
X212938900Y-54483900D01*
X212879500Y-54438400D01*
X212867400Y-54442800D01*
X212778200Y-54516400D01*
X212633900Y-54662100D01*
X212459200Y-54855400D01*
X212096500Y-55272400D01*
X211806927Y-55272400D01*
X211807500Y-55238200D01*
X211842900Y-55146200D01*
X211913100Y-55044200D01*
X212057000Y-54849600D01*
X211854100Y-54338700D01*
X211504400Y-53542000D01*
X211021400Y-52605900D01*
X210450700Y-51633000D01*
X209805300Y-50643400D01*
X209098400Y-49657100D01*
X208343200Y-48694300D01*
X207765230Y-48022000D01*
X208354900Y-48022000D01*
X208368800Y-48077500D01*
X208400000Y-48101000D01*
X208558000Y-48120200D01*
X208834700Y-48096600D01*
X209223600Y-48030800D01*
X209239500Y-48027900D01*
X209325400Y-48028300D01*
X209415500Y-48069300D01*
X209529500Y-48167400D01*
X209687400Y-48339100D01*
X209909000Y-48600900D01*
X209986400Y-48694700D01*
X210198300Y-48964500D01*
X210336700Y-49171400D01*
X210418000Y-49341900D01*
X210458200Y-49502700D01*
X210464500Y-49538400D01*
X210518800Y-49710800D01*
X210624800Y-49919600D01*
X210794900Y-50186600D01*
X211041600Y-50533800D01*
X211245400Y-50820000D01*
X211520100Y-51223100D01*
X211785300Y-51629000D01*
X212004500Y-51982700D01*
X212038100Y-52038900D01*
X212287100Y-52426400D01*
X212494900Y-52693700D01*
X212666100Y-52846900D01*
X212674600Y-52852300D01*
X212753000Y-52912700D01*
X212829200Y-52995200D01*
X212908100Y-53111800D01*
X212994800Y-53274100D01*
X213094400Y-53494100D01*
X213211900Y-53783400D01*
X213352400Y-54154000D01*
X213521000Y-54617500D01*
X213722600Y-55185900D01*
X213962400Y-55870800D01*
X213968300Y-55888000D01*
X214180100Y-56491600D01*
X214226900Y-56622800D01*
X214352700Y-56975400D01*
X214489600Y-57348000D01*
X214594400Y-57617800D01*
X214670500Y-57793500D01*
X214721300Y-57883500D01*
X214750400Y-57896400D01*
X214761100Y-57840700D01*
X214757300Y-57787900D01*
X214712900Y-57580100D01*
X214619400Y-57249500D01*
X214477500Y-56798400D01*
X214288000Y-56228800D01*
X214051600Y-55543100D01*
X213768800Y-54743200D01*
X213706700Y-54569600D01*
X213521600Y-54057700D01*
X213371000Y-53655000D01*
X213248100Y-53346900D01*
X213145800Y-53118800D01*
X213057200Y-52955900D01*
X212975200Y-52843600D01*
X212893000Y-52767300D01*
X212803600Y-52712200D01*
X212723300Y-52656800D01*
X212562300Y-52492000D01*
X212526322Y-52440800D01*
X212948900Y-52440800D01*
X212949000Y-52514400D01*
X212972300Y-52546000D01*
X213096600Y-52642300D01*
X213309700Y-52779200D01*
X213590800Y-52943700D01*
X213919200Y-53122900D01*
X214298100Y-53321700D01*
X214579900Y-53466200D01*
X214772900Y-53559500D01*
X214891900Y-53608600D01*
X214952300Y-53620300D01*
X214969100Y-53601500D01*
X214943300Y-53526200D01*
X214870800Y-53352100D01*
X214762900Y-53104600D01*
X214630600Y-52808400D01*
X214485300Y-52488500D01*
X214338100Y-52169700D01*
X214200100Y-51876800D01*
X214082700Y-51634700D01*
X214065800Y-51600700D01*
X213915200Y-51314300D01*
X213794300Y-51125800D01*
X213684100Y-51009600D01*
X213565800Y-50940400D01*
X213545800Y-50932100D01*
X213387000Y-50872800D01*
X213291200Y-50848500D01*
X213289100Y-50867000D01*
X213328300Y-50982900D01*
X213414900Y-51187300D01*
X213539800Y-51459900D01*
X213694300Y-51779900D01*
X213776300Y-51947800D01*
X213925800Y-52264800D01*
X214045800Y-52533700D01*
X214125800Y-52730400D01*
X214155100Y-52830500D01*
X214153600Y-52852600D01*
X214123000Y-52886100D01*
X214037300Y-52872200D01*
X213875400Y-52804900D01*
X213615900Y-52678100D01*
X213318800Y-52532600D01*
X213116700Y-52445600D01*
X212999100Y-52416400D01*
X212948900Y-52440800D01*
X212526322Y-52440800D01*
X212418600Y-52287500D01*
X212341600Y-52159100D01*
X212176400Y-51897500D01*
X211962000Y-51567400D01*
X211715000Y-51193800D01*
X211451900Y-50801900D01*
X211189600Y-50416800D01*
X210944500Y-50063500D01*
X210852600Y-49924300D01*
X210690400Y-49617600D01*
X210608000Y-49357400D01*
X210563400Y-49189200D01*
X210472900Y-49008500D01*
X210319800Y-48788300D01*
X210087000Y-48500900D01*
X209930200Y-48318700D01*
X209739100Y-48107700D01*
X209586900Y-47952300D01*
X209497100Y-47877200D01*
X209414000Y-47856500D01*
X209209800Y-47851900D01*
X208940800Y-47876600D01*
X208781900Y-47899000D01*
X208541300Y-47939800D01*
X208405700Y-47978500D01*
X208354900Y-48022000D01*
X207765230Y-48022000D01*
X207552800Y-47774900D01*
X207350300Y-47549100D01*
X207136100Y-47307500D01*
X206963000Y-47109200D01*
X206856000Y-46982700D01*
X206701500Y-46791800D01*
X206873353Y-46704200D01*
X207518400Y-46704200D01*
X207530600Y-46732000D01*
X207610900Y-46849000D01*
X207749900Y-47028900D01*
X207928100Y-47246100D01*
X208030200Y-47366400D01*
X208193900Y-47554700D01*
X208312200Y-47684500D01*
X208364400Y-47732800D01*
X208375500Y-47728900D01*
X208434600Y-47662100D01*
X208446700Y-47635400D01*
X208441000Y-47572800D01*
X208385800Y-47476800D01*
X208266900Y-47325300D01*
X208070100Y-47096300D01*
X207950643Y-46959600D01*
X208555700Y-46959600D01*
X208560800Y-47158400D01*
X208700700Y-47363300D01*
X208728300Y-47390300D01*
X208892900Y-47506600D01*
X209046800Y-47506300D01*
X209233400Y-47391600D01*
X209241800Y-47385000D01*
X209346300Y-47315600D01*
X209455000Y-47286300D01*
X209610600Y-47293000D01*
X209856100Y-47331500D01*
X210303500Y-47409400D01*
X210800400Y-48028300D01*
X210953500Y-48222100D01*
X211178100Y-48514200D01*
X211417800Y-48832900D01*
X211658700Y-49158900D01*
X211886900Y-49473100D01*
X212088400Y-49756300D01*
X212249400Y-49989200D01*
X212356100Y-50152900D01*
X212394400Y-50228000D01*
X212384900Y-50280600D01*
X212348300Y-50434800D01*
X212293600Y-50645300D01*
X212252900Y-50803400D01*
X212209800Y-50990900D01*
X212192800Y-51095300D01*
X212193000Y-51101600D01*
X212245900Y-51181700D01*
X212344000Y-51225500D01*
X212419200Y-51201200D01*
X212421300Y-51197000D01*
X212453200Y-51098000D01*
X212504500Y-50908600D01*
X212565200Y-50665500D01*
X212682900Y-50177800D01*
X212168700Y-49446300D01*
X211924900Y-49106900D01*
X211628100Y-48705300D01*
X211320300Y-48298200D01*
X211039300Y-47936000D01*
X210423900Y-47157100D01*
X209908800Y-47082100D01*
X209670300Y-47043000D01*
X209477400Y-46992800D01*
X209353700Y-46925900D01*
X209263200Y-46828100D01*
X209248000Y-46808300D01*
X209069000Y-46673700D01*
X208866600Y-46665100D01*
X208669900Y-46784500D01*
X208555700Y-46959600D01*
X207950643Y-46959600D01*
X207839400Y-46832300D01*
X208000600Y-46708300D01*
X208134700Y-46620400D01*
X208246500Y-46574400D01*
X208266300Y-46572100D01*
X208414900Y-46555900D01*
X208447700Y-46547300D01*
X208513000Y-46464500D01*
X208507900Y-46348700D01*
X208429100Y-46265800D01*
X208338500Y-46261100D01*
X208204000Y-46359600D01*
X208136600Y-46433400D01*
X207905700Y-46589900D01*
X207658300Y-46649100D01*
X207575400Y-46659900D01*
X207518400Y-46704200D01*
X206873353Y-46704200D01*
X207517800Y-46375700D01*
X207601200Y-46332900D01*
X207950800Y-46145100D01*
X208195100Y-45995400D01*
X208350700Y-45872700D01*
X208434200Y-45765800D01*
X208475400Y-45678600D01*
X208532800Y-45427300D01*
X208469700Y-45201900D01*
X208280400Y-44973700D01*
X208203600Y-44908300D01*
X208004300Y-44755300D01*
X207718900Y-44546600D01*
X207476112Y-44373600D01*
X208073100Y-44373600D01*
X208114400Y-44512600D01*
X208125600Y-44536000D01*
X208230300Y-44652800D01*
X208406700Y-44684800D01*
X208455900Y-44687900D01*
X208578900Y-44724300D01*
X208729700Y-44813600D01*
X208930600Y-44970400D01*
X209204000Y-45209500D01*
X209673300Y-45640500D01*
X210165500Y-46111200D01*
X210520500Y-46464500D01*
X210637500Y-46580900D01*
X211079300Y-47038400D01*
X211480700Y-47472500D01*
X211831800Y-47872100D01*
X212122400Y-48225900D01*
X212342500Y-48522800D01*
X212481900Y-48751500D01*
X212530700Y-48901000D01*
X212546900Y-49012500D01*
X212611900Y-49141700D01*
X212759300Y-49216000D01*
X212911600Y-49189600D01*
X213033600Y-49090100D01*
X213090300Y-48946000D01*
X213046900Y-48785800D01*
X212964300Y-48696300D01*
X212827700Y-48623800D01*
X212752700Y-48576700D01*
X212609500Y-48440300D01*
X212426600Y-48237700D01*
X212225900Y-47992000D01*
X212201100Y-47960600D01*
X211936700Y-47643600D01*
X211597400Y-47262500D01*
X211206200Y-46840900D01*
X210786300Y-46402600D01*
X210360500Y-45971400D01*
X209952100Y-45570900D01*
X209584100Y-45225000D01*
X209279500Y-44957400D01*
X209158300Y-44854200D01*
X208938000Y-44654100D01*
X208764600Y-44480400D01*
X208667700Y-44361800D01*
X208620000Y-44287000D01*
X208473300Y-44128200D01*
X208332100Y-44097800D01*
X208184500Y-44191800D01*
X208119800Y-44262400D01*
X208073100Y-44373600D01*
X207476112Y-44373600D01*
X207363700Y-44293500D01*
X206955000Y-44007200D01*
X206509300Y-43699100D01*
X206042600Y-43380300D01*
X205571400Y-43062100D01*
X205112000Y-42755700D01*
X204680600Y-42472500D01*
X204293700Y-42223500D01*
X204046400Y-42065400D01*
X203795800Y-41898700D01*
X203632800Y-41777300D01*
X203540900Y-41686900D01*
X203503500Y-41613200D01*
X203504200Y-41542100D01*
X203506300Y-41413800D01*
X203454000Y-41229700D01*
X203442000Y-41201400D01*
X203458900Y-41179900D01*
X203539500Y-41213300D01*
X203692500Y-41307100D01*
X203926800Y-41466900D01*
X204250900Y-41698200D01*
X204673600Y-42006600D01*
X204797300Y-42096400D01*
X204938100Y-42186700D01*
X205072500Y-42244000D01*
X205235800Y-42278100D01*
X205463600Y-42298900D01*
X205791200Y-42316200D01*
X206536300Y-42352200D01*
X207161200Y-42824200D01*
X207377000Y-42989800D01*
X207581100Y-43158100D01*
X207703400Y-43281500D01*
X207760900Y-43377900D01*
X207770800Y-43465600D01*
X207766500Y-43501000D01*
X207717000Y-43618000D01*
X207612800Y-43649000D01*
X207444000Y-43591200D01*
X207200900Y-43441700D01*
X206873600Y-43197400D01*
X206633800Y-43017600D01*
X206355200Y-42836300D01*
X206143000Y-42733600D01*
X206007900Y-42714500D01*
X205960500Y-42783700D01*
X205963700Y-42792000D01*
X206038500Y-42870700D01*
X206197600Y-43008700D01*
X206421000Y-43189100D01*
X206688700Y-43395200D01*
X206849100Y-43515300D01*
X207107600Y-43702700D01*
X207293700Y-43823900D01*
X207430000Y-43890800D01*
X207538900Y-43915800D01*
X207643000Y-43911000D01*
X207693400Y-43902900D01*
X207912200Y-43828800D01*
X208027000Y-43690100D01*
X208060300Y-43462500D01*
X208055700Y-43358900D01*
X208029800Y-43265000D01*
X207965200Y-43169000D01*
X207844700Y-43050900D01*
X207650700Y-42890800D01*
X207366000Y-42669000D01*
X206671600Y-42133000D01*
X205903900Y-42092500D01*
X205712100Y-42080400D01*
X205381400Y-42048200D01*
X205140500Y-42007900D01*
X205012300Y-41962900D01*
X204953700Y-41920800D01*
X204792500Y-41805200D01*
X204557600Y-41636800D01*
X204270200Y-41430800D01*
X203951400Y-41202400D01*
X203758300Y-41063700D01*
X203411600Y-40813600D01*
X203087000Y-40577700D01*
X202813800Y-40377700D01*
X202621600Y-40234900D01*
X202534100Y-40169300D01*
X202354800Y-40044500D01*
X202228300Y-39985200D01*
X202115700Y-39977700D01*
X201978100Y-40008500D01*
X201816300Y-40050600D01*
X201642500Y-40077600D01*
X201489600Y-40062900D01*
X201334500Y-39995500D01*
X201154000Y-39864300D01*
X200924900Y-39658400D01*
X200624000Y-39366900D01*
X200584300Y-39328100D01*
X200264700Y-39022600D01*
X199926300Y-38709400D01*
X199607100Y-38423200D01*
X199345100Y-38198700D01*
X199166100Y-38049300D01*
X198976700Y-37886400D01*
X198850900Y-37772100D01*
X198809500Y-37724800D01*
X198817800Y-37722800D01*
X198920700Y-37749900D01*
X199123600Y-37825500D01*
X199408800Y-37941900D01*
X199758800Y-38091300D01*
X200155800Y-38266100D01*
X200582300Y-38458500D01*
X201020700Y-38660700D01*
X201453400Y-38865100D01*
X201862700Y-39064000D01*
X202288800Y-39279600D01*
X203031400Y-39677700D01*
X203772200Y-40100500D01*
X204480200Y-40529500D01*
X205124300Y-40946200D01*
X205673300Y-41332000D01*
X205690500Y-41344800D01*
X205982000Y-41541400D01*
X206222700Y-41658200D01*
X206451400Y-41714000D01*
X206575500Y-41737800D01*
X206735800Y-41795100D01*
X206920400Y-41896100D01*
X207155500Y-42055600D01*
X207467400Y-42288400D01*
X207632600Y-42415200D01*
X207928300Y-42648200D01*
X208136400Y-42826400D01*
X208272100Y-42967000D01*
X208350600Y-43087100D01*
X208387000Y-43203900D01*
X208396700Y-43334500D01*
X208398000Y-43374000D01*
X208414400Y-43467600D01*
X208460700Y-43565700D01*
X208551200Y-43685500D01*
X208699900Y-43844200D01*
X208921000Y-44059100D01*
X209228700Y-44347400D01*
X209903000Y-44984100D01*
X210628600Y-45694400D01*
X211275700Y-46356900D01*
X211834100Y-46960800D01*
X212293300Y-47495700D01*
X212374000Y-47594100D01*
X212588100Y-47851300D01*
X212767700Y-48061700D01*
X212896000Y-48205900D01*
X212956100Y-48264200D01*
X212968000Y-48270500D01*
X213067700Y-48341500D01*
X213210500Y-48456500D01*
X213229200Y-48473000D01*
X213376300Y-48692700D01*
X213416000Y-48946000D01*
X213417700Y-48956900D01*
X213345100Y-49219900D01*
X213327300Y-49279000D01*
X213347100Y-49391600D01*
X213430100Y-49559500D01*
X213586700Y-49808100D01*
X213682500Y-49961300D01*
X213805900Y-50177800D01*
X213868100Y-50286700D01*
X214085100Y-50692200D01*
X214320400Y-51150600D01*
X214560300Y-51634700D01*
X214791700Y-52117600D01*
X215001200Y-52572000D01*
X215175300Y-52970800D01*
X215300700Y-53286900D01*
X215369200Y-53480800D01*
X215408700Y-53601500D01*
X215541200Y-54007200D01*
X215712800Y-54582300D01*
X215871900Y-55162300D01*
X216006300Y-55703600D01*
X216103800Y-56162200D01*
X216117800Y-56241600D01*
X216163700Y-56585800D01*
X216194800Y-56993800D01*
X216212400Y-57489300D01*
X216218000Y-58096000D01*
X216217900Y-58200800D01*
X216215600Y-58586000D01*
X216215100Y-58664100D01*
X216206400Y-59025400D01*
X216189700Y-59312400D01*
X216162700Y-59553100D01*
X216123500Y-59775200D01*
X216069600Y-60006700D01*
X216046700Y-60095800D01*
X215830100Y-60763900D01*
X215543000Y-61367300D01*
X215158400Y-61963600D01*
X215123500Y-62012100D01*
X214955100Y-62258000D01*
X214857100Y-62433600D01*
X214815900Y-62568500D01*
X214817700Y-62691800D01*
X214808200Y-62818600D01*
X214800600Y-62919500D01*
X214679900Y-63142400D01*
X214481300Y-63310600D01*
X214234900Y-63399500D01*
X213970800Y-63384300D01*
X213938500Y-63375700D01*
X213800100Y-63365500D01*
X213648700Y-63413900D01*
X213437900Y-63533700D01*
X213396700Y-63559200D01*
X212900200Y-63834000D01*
X212337500Y-64098100D01*
X211765500Y-64326700D01*
X211241400Y-64494700D01*
X211076300Y-64536700D01*
X210598200Y-64639300D01*
X210248300Y-64700000D01*
X210073500Y-64730300D01*
X209546400Y-64803300D01*
X209061100Y-64851700D01*
X208661800Y-64869300D01*
X208456600Y-64873700D01*
X208293200Y-64901500D01*
X208168700Y-64972500D01*
X208030800Y-65106400D01*
X207928700Y-65202600D01*
X207694100Y-65328000D01*
X207446300Y-65322100D01*
X207170500Y-65186400D01*
X207082300Y-65134500D01*
X206887000Y-65059400D01*
X206615500Y-64998600D01*
X206238200Y-64944500D01*
X205806700Y-64878300D01*
X205241800Y-64766200D01*
X204594600Y-64617900D01*
X203887900Y-64439900D01*
X203144700Y-64238500D01*
X202387900Y-64020200D01*
X201640200Y-63791400D01*
X200924600Y-63558500D01*
X200264100Y-63327900D01*
X199681300Y-63106000D01*
X199510800Y-63036000D01*
X199086300Y-62852600D01*
X198606400Y-62635800D01*
X198101400Y-62400000D01*
X197601100Y-62159400D01*
X197135600Y-61928400D01*
X196734800Y-61721400D01*
X196429000Y-61552700D01*
X196075200Y-61346600D01*
X195971100Y-61548100D01*
X195939700Y-61603800D01*
X195751300Y-61807200D01*
X195523400Y-61888400D01*
X195277000Y-61844600D01*
X195033300Y-61673000D01*
X194948200Y-61597100D01*
X194753200Y-61441600D01*
X194487100Y-61240800D01*
X194173700Y-61012400D01*
X193836300Y-60774000D01*
X193667300Y-60655400D01*
X193258400Y-60361400D01*
X192840200Y-60052400D01*
X192453300Y-59758700D01*
X192138300Y-59510400D01*
X192083100Y-59465900D01*
X191806000Y-59251400D01*
X191555400Y-59070800D01*
X191357000Y-58942100D01*
X191236300Y-58882900D01*
X191085600Y-58802900D01*
X190952300Y-58619600D01*
X190893600Y-58380300D01*
X190904890Y-58289800D01*
X191222600Y-58289800D01*
X191234900Y-58447900D01*
X191324600Y-58581500D01*
X191469500Y-58637900D01*
X191511400Y-58647100D01*
X191661600Y-58722800D01*
X191867500Y-58858100D01*
X192097500Y-59033300D01*
X192187000Y-59105700D01*
X192713500Y-59516800D01*
X193304100Y-59957600D01*
X193914300Y-60395500D01*
X194499800Y-60798000D01*
X194667400Y-60913800D01*
X194924000Y-61108600D01*
X195106100Y-61271700D01*
X195192400Y-61384900D01*
X195255800Y-61481800D01*
X195396900Y-61548200D01*
X195553400Y-61529600D01*
X195680400Y-61435200D01*
X195732800Y-61274200D01*
X195694600Y-61150400D01*
X195568400Y-61042100D01*
X195406100Y-61025000D01*
X195361300Y-61020100D01*
X195202400Y-60948500D01*
X194950900Y-60801100D01*
X194615200Y-60583600D01*
X194203800Y-60301800D01*
X194177656Y-60283200D01*
X195178800Y-60283200D01*
X195506600Y-60487400D01*
X195646200Y-60573500D01*
X196261500Y-60935600D01*
X196870200Y-61274200D01*
X196960900Y-61324600D01*
X197710500Y-61722900D01*
X198476700Y-62112900D01*
X199225800Y-62476900D01*
X199924100Y-62797300D01*
X199980300Y-62822100D01*
X200285300Y-62956400D01*
X200488200Y-63042600D01*
X200608200Y-63086600D01*
X200664300Y-63094200D01*
X200675400Y-63071200D01*
X200660600Y-63023600D01*
X200642000Y-62971100D01*
X200587000Y-62809300D01*
X200543187Y-62678300D01*
X202595100Y-62678300D01*
X202622000Y-62804500D01*
X202685800Y-63011500D01*
X202707200Y-63071200D01*
X202777600Y-63268700D01*
X202995000Y-63844600D01*
X203478700Y-63992500D01*
X203818700Y-64092400D01*
X204404900Y-64250700D01*
X205012100Y-64400200D01*
X205590700Y-64529100D01*
X206091000Y-64625200D01*
X206197700Y-64643200D01*
X206524500Y-64695500D01*
X206746500Y-64723200D01*
X206886100Y-64727600D01*
X206965700Y-64709800D01*
X206976204Y-64700000D01*
X207247500Y-64700000D01*
X207260900Y-64791500D01*
X207328700Y-64923500D01*
X207396800Y-64968100D01*
X207552300Y-65004800D01*
X207643700Y-64991400D01*
X207775800Y-64923500D01*
X207820400Y-64855400D01*
X207857100Y-64700000D01*
X207843600Y-64608500D01*
X207775800Y-64476500D01*
X207707700Y-64431900D01*
X207552300Y-64395200D01*
X207460800Y-64408600D01*
X207328700Y-64476500D01*
X207284100Y-64544600D01*
X207263900Y-64630300D01*
X207247500Y-64700000D01*
X206976204Y-64700000D01*
X207007500Y-64670800D01*
X207023900Y-64630300D01*
X207003900Y-64594700D01*
X206927000Y-64560000D01*
X206774000Y-64520000D01*
X206526000Y-64468400D01*
X206163700Y-64399300D01*
X205984800Y-64364400D01*
X205485100Y-64257800D01*
X204944100Y-64131700D01*
X204405400Y-63996700D01*
X203912600Y-63863900D01*
X203509600Y-63743800D01*
X203410200Y-63710700D01*
X203279300Y-63650300D01*
X203203195Y-63576200D01*
X208955500Y-63576200D01*
X208995400Y-63618900D01*
X209135200Y-63640700D01*
X209392400Y-63644700D01*
X209811200Y-63618100D01*
X210472700Y-63501800D01*
X211125200Y-63304500D01*
X211339900Y-63219200D01*
X211456900Y-63148100D01*
X211505200Y-63063400D01*
X211514700Y-62936700D01*
X211514800Y-62918800D01*
X211527745Y-62820600D01*
X213831700Y-62820600D01*
X213941500Y-62996200D01*
X214119400Y-63091500D01*
X214300200Y-63081500D01*
X214445400Y-62983100D01*
X214522300Y-62818600D01*
X214498800Y-62610500D01*
X214495100Y-62601100D01*
X214369600Y-62438900D01*
X214188700Y-62389100D01*
X213983600Y-62460700D01*
X213969000Y-62470800D01*
X213842000Y-62631400D01*
X213831700Y-62820600D01*
X211527745Y-62820600D01*
X211530500Y-62799700D01*
X211589700Y-62700300D01*
X211717300Y-62591900D01*
X211938000Y-62445800D01*
X212009000Y-62398700D01*
X212233800Y-62229600D01*
X212471600Y-62027600D01*
X212698400Y-61816000D01*
X212890200Y-61617800D01*
X213023000Y-61456200D01*
X213072500Y-61354300D01*
X213074500Y-61345200D01*
X213151800Y-61288100D01*
X213307200Y-61241600D01*
X213522600Y-61170700D01*
X213661800Y-61028100D01*
X213695416Y-60851400D01*
X215159600Y-60851400D01*
X215167100Y-60927100D01*
X215233900Y-60881400D01*
X215359900Y-60714100D01*
X215540500Y-60381900D01*
X215710900Y-59873800D01*
X215823100Y-59270100D01*
X215876300Y-58586000D01*
X215869200Y-57836800D01*
X215800800Y-57037800D01*
X215670200Y-56204200D01*
X215667700Y-56191600D01*
X215601900Y-55880700D01*
X215541200Y-55675600D01*
X215474900Y-55548300D01*
X215392500Y-55471000D01*
X215276700Y-55409300D01*
X215204500Y-55399600D01*
X215200800Y-55422500D01*
X215213600Y-55551900D01*
X215249600Y-55766600D01*
X215303800Y-56035300D01*
X215334500Y-56181700D01*
X215492200Y-57160500D01*
X215542500Y-57840700D01*
X215561900Y-58104000D01*
X215561900Y-58104300D01*
X215544000Y-58995000D01*
X215438600Y-59816500D01*
X215246000Y-60551300D01*
X215211700Y-60654600D01*
X215172500Y-60802600D01*
X215159600Y-60851400D01*
X213695416Y-60851400D01*
X213704700Y-60802600D01*
X213704500Y-60786200D01*
X213639000Y-60550300D01*
X213474500Y-60390200D01*
X213236200Y-60331200D01*
X213208000Y-60331800D01*
X212969800Y-60396100D01*
X212817600Y-60547900D01*
X212767100Y-60760300D01*
X212834500Y-61006700D01*
X212894800Y-61165100D01*
X212882100Y-61321900D01*
X212811800Y-61416400D01*
X212748700Y-61501300D01*
X212532600Y-61725700D01*
X212269000Y-61962400D01*
X211991800Y-62181000D01*
X211793100Y-62312600D01*
X211734800Y-62351200D01*
X211560000Y-62456000D01*
X211405400Y-62569400D01*
X211330800Y-62668000D01*
X211311500Y-62776600D01*
X211293100Y-62889800D01*
X211207800Y-62990600D01*
X211023600Y-63092800D01*
X210870900Y-63155000D01*
X210528600Y-63260300D01*
X210128600Y-63353900D01*
X209720300Y-63424700D01*
X209352800Y-63462000D01*
X209226300Y-63472600D01*
X209040100Y-63510800D01*
X208957700Y-63565500D01*
X208955500Y-63576200D01*
X203203195Y-63576200D01*
X203188200Y-63561600D01*
X203108100Y-63411400D01*
X203010600Y-63166900D01*
X202934000Y-62981200D01*
X202806600Y-62746200D01*
X202693400Y-62636000D01*
X202598000Y-62655100D01*
X202595100Y-62678300D01*
X200543187Y-62678300D01*
X200517100Y-62600300D01*
X200405000Y-62261600D01*
X199067900Y-61607300D01*
X199011200Y-61579500D01*
X198565700Y-61357900D01*
X198118500Y-61130500D01*
X197700600Y-60913500D01*
X197343100Y-60722700D01*
X197076700Y-60574400D01*
X197070900Y-60571000D01*
X196704500Y-60373000D01*
X196401200Y-60249700D01*
X196117800Y-60192300D01*
X195811400Y-60192100D01*
X195438900Y-60240200D01*
X195178800Y-60283200D01*
X194177656Y-60283200D01*
X193725200Y-59961300D01*
X193187800Y-59567800D01*
X192600100Y-59127200D01*
X192274500Y-58876300D01*
X192020400Y-58668500D01*
X191854400Y-58514200D01*
X191763900Y-58401800D01*
X191736500Y-58319500D01*
X191702000Y-58210300D01*
X191582600Y-58123800D01*
X191424900Y-58111000D01*
X191278500Y-58186300D01*
X191222600Y-58289800D01*
X190904890Y-58289800D01*
X190925500Y-58124600D01*
X190932300Y-58105000D01*
X191017000Y-57935300D01*
X191112400Y-57831800D01*
X191153300Y-57792400D01*
X191137300Y-57726000D01*
X191041800Y-57617100D01*
X190853300Y-57445100D01*
X190599200Y-57215500D01*
X190231800Y-56869800D01*
X189820800Y-56471900D01*
X189390300Y-56045700D01*
X188964000Y-55615100D01*
X188565900Y-55204200D01*
X188219900Y-54836800D01*
X187950000Y-54536900D01*
X187326300Y-53783200D01*
X186563400Y-52756100D01*
X185877500Y-51707700D01*
X185284500Y-50662700D01*
X184839678Y-49728500D01*
X185252500Y-49728500D01*
X185276600Y-49832700D01*
X185364800Y-50028800D01*
X185507000Y-50300700D01*
X185693400Y-50632100D01*
X185913800Y-51006700D01*
X186158200Y-51408300D01*
X186416700Y-51820500D01*
X186679200Y-52227200D01*
X186935700Y-52612100D01*
X187176200Y-52958900D01*
X187390600Y-53251300D01*
X187569000Y-53473200D01*
X187818600Y-53761100D01*
X188860900Y-53761100D01*
X189903200Y-53761100D01*
X190498100Y-54378700D01*
X190550800Y-54433000D01*
X190947000Y-54826900D01*
X191412700Y-55269400D01*
X191915300Y-55731000D01*
X192422400Y-56182300D01*
X192901500Y-56594000D01*
X193320100Y-56936500D01*
X193365200Y-56971900D01*
X193615800Y-57160500D01*
X193794200Y-57273100D01*
X193924600Y-57322900D01*
X194031300Y-57323100D01*
X194256400Y-57280100D01*
X194521400Y-57240100D01*
X194716300Y-57238500D01*
X194879100Y-57281700D01*
X195047900Y-57375900D01*
X195260700Y-57527500D01*
X195406400Y-57632600D01*
X195702200Y-57839000D01*
X196034100Y-58064400D01*
X196354000Y-58275800D01*
X196595000Y-58434600D01*
X196817600Y-58586100D01*
X196974000Y-58698200D01*
X197040300Y-58754200D01*
X197068500Y-58824000D01*
X197101600Y-58957800D01*
X197123900Y-59097300D01*
X197128500Y-59196600D01*
X197108500Y-59210000D01*
X197085100Y-59184500D01*
X196969000Y-59081500D01*
X196807100Y-58953700D01*
X196560700Y-58768800D01*
X195569700Y-59016900D01*
X194578600Y-59265000D01*
X193785400Y-58663500D01*
X193020900Y-58071200D01*
X191968600Y-57206300D01*
X190998900Y-56344400D01*
X190960000Y-56308400D01*
X190699300Y-56069000D01*
X190520000Y-55911400D01*
X190407100Y-55825900D01*
X190345400Y-55802800D01*
X190319500Y-55832100D01*
X190314200Y-55904100D01*
X190315100Y-55926900D01*
X190340200Y-56021600D01*
X190410700Y-56134000D01*
X190541400Y-56281400D01*
X190747000Y-56480900D01*
X191042400Y-56749500D01*
X191132000Y-56829400D01*
X191555900Y-57199300D01*
X192003900Y-57578900D01*
X192460300Y-57956000D01*
X192909500Y-58318100D01*
X193335500Y-58652800D01*
X193722800Y-58947700D01*
X194055500Y-59190400D01*
X194318000Y-59368500D01*
X194494400Y-59469600D01*
X194556000Y-59486700D01*
X194687000Y-59486600D01*
X194886700Y-59454500D01*
X195175100Y-59386800D01*
X195572100Y-59280200D01*
X196499700Y-59022300D01*
X196827400Y-59206500D01*
X196965800Y-59280400D01*
X197102400Y-59342000D01*
X197155200Y-59349200D01*
X197156400Y-59345400D01*
X197206400Y-59375100D01*
X197307600Y-59477100D01*
X197458500Y-59605100D01*
X197731000Y-59783500D01*
X198109200Y-60000800D01*
X198582600Y-60251600D01*
X199140800Y-60530700D01*
X199773300Y-60832500D01*
X200469600Y-61151800D01*
X201219200Y-61483100D01*
X201411200Y-61567000D01*
X201762300Y-61725600D01*
X202010000Y-61847700D01*
X202170100Y-61942000D01*
X202258400Y-62017400D01*
X202290600Y-62082800D01*
X202337500Y-62197000D01*
X202458100Y-62328700D01*
X202572200Y-62394800D01*
X202763400Y-62420200D01*
X202968900Y-62322900D01*
X203085700Y-62170500D01*
X203112700Y-61969900D01*
X203051800Y-61772100D01*
X202907200Y-61626400D01*
X202800400Y-61575800D01*
X202679300Y-61570000D01*
X202516800Y-61636500D01*
X202437100Y-61673200D01*
X202357300Y-61692800D01*
X202260000Y-61687400D01*
X202124000Y-61651400D01*
X201927800Y-61579000D01*
X201649900Y-61464500D01*
X201269100Y-61302100D01*
X201079300Y-61219500D01*
X200671200Y-61035700D01*
X200226400Y-60828500D01*
X199762700Y-60606800D01*
X199297800Y-60379500D01*
X198849500Y-60155600D01*
X198435400Y-59944000D01*
X198073400Y-59753500D01*
X197781100Y-59593100D01*
X197576300Y-59471700D01*
X197476800Y-59398100D01*
X197428400Y-59323300D01*
X197420249Y-59305300D01*
X198327400Y-59305300D01*
X198364000Y-59493100D01*
X198509900Y-59664600D01*
X198571100Y-59706900D01*
X198711600Y-59754800D01*
X198882400Y-59716200D01*
X198939500Y-59698900D01*
X199026000Y-59691100D01*
X199136000Y-59709300D01*
X199289300Y-59760400D01*
X199505200Y-59851300D01*
X199803300Y-59988700D01*
X200203200Y-60179700D01*
X200279100Y-60216100D01*
X200884300Y-60502300D01*
X201419400Y-60744400D01*
X201924200Y-60959100D01*
X202438800Y-61162600D01*
X203003300Y-61371700D01*
X203657600Y-61602700D01*
X204714900Y-61969900D01*
X204775200Y-61990900D01*
X205027500Y-62370000D01*
X205279800Y-62749200D01*
X205975800Y-62860900D01*
X206107600Y-62881500D01*
X206512600Y-62940900D01*
X206927800Y-62997000D01*
X207281300Y-63039800D01*
X207303700Y-63042300D01*
X207641800Y-63070700D01*
X208030200Y-63091300D01*
X208445800Y-63104000D01*
X208865300Y-63109100D01*
X209265500Y-63106600D01*
X209623300Y-63096600D01*
X209915400Y-63079400D01*
X210118700Y-63055000D01*
X210209800Y-63023600D01*
X210215600Y-63015900D01*
X210284800Y-62883300D01*
X210358100Y-62691200D01*
X210421000Y-62485600D01*
X210459300Y-62312600D01*
X210458900Y-62218200D01*
X210445700Y-62200000D01*
X210375900Y-62190500D01*
X210293000Y-62310400D01*
X210195300Y-62562200D01*
X210084700Y-62895100D01*
X209649700Y-62941700D01*
X209477800Y-62953400D01*
X209149200Y-62956400D01*
X208748700Y-62944400D01*
X208297100Y-62919400D01*
X207815100Y-62883600D01*
X207323400Y-62839000D01*
X206842800Y-62787700D01*
X206393900Y-62732000D01*
X205997500Y-62673700D01*
X205674200Y-62615000D01*
X205444900Y-62558100D01*
X205330200Y-62505000D01*
X205291700Y-62457300D01*
X205193500Y-62311600D01*
X205076800Y-62120700D01*
X204893000Y-61805900D01*
X203818100Y-61449800D01*
X203012900Y-61170100D01*
X202880570Y-61119100D01*
X203662700Y-61119100D01*
X203747200Y-61144000D01*
X203766200Y-61140500D01*
X203889800Y-61086200D01*
X204083200Y-60979900D01*
X204313400Y-60839100D01*
X204790000Y-60534200D01*
X205555700Y-60735100D01*
X205843700Y-60813600D01*
X206103500Y-60890500D01*
X206287700Y-60951900D01*
X206368400Y-60989200D01*
X206378500Y-61001900D01*
X206450200Y-61116800D01*
X206552900Y-61302400D01*
X206670600Y-61527100D01*
X206787300Y-61759400D01*
X206887100Y-61967500D01*
X206954000Y-62119800D01*
X206972000Y-62184800D01*
X206950000Y-62188800D01*
X206820700Y-62183100D01*
X206604500Y-62161400D01*
X206333100Y-62126600D01*
X206199400Y-62109400D01*
X205942800Y-62086000D01*
X205752300Y-62081800D01*
X205661600Y-62098100D01*
X205657700Y-62154300D01*
X205779200Y-62219200D01*
X206028600Y-62285900D01*
X206402000Y-62353100D01*
X206605300Y-62379900D01*
X206942500Y-62414800D01*
X207325300Y-62447200D01*
X207703900Y-62472500D01*
X208532900Y-62518900D01*
X208829000Y-61880800D01*
X209125200Y-61242700D01*
X209555200Y-61153900D01*
X209558600Y-61153200D01*
X209847100Y-61085600D01*
X210189500Y-60994200D01*
X210512300Y-60898600D01*
X211039500Y-60732000D01*
X211690200Y-61141000D01*
X211951900Y-61301200D01*
X212194900Y-61434400D01*
X212352400Y-61495000D01*
X212437500Y-61487400D01*
X212462900Y-61416400D01*
X212462500Y-61414200D01*
X212399900Y-61352900D01*
X212245400Y-61238100D01*
X212021200Y-61085200D01*
X211749200Y-60910000D01*
X211035400Y-60462000D01*
X210411400Y-60661400D01*
X210299000Y-60696500D01*
X209961000Y-60794500D01*
X209636800Y-60879100D01*
X209383600Y-60935000D01*
X209352300Y-60940800D01*
X209174900Y-60977000D01*
X209046900Y-61023800D01*
X208947500Y-61104000D01*
X208855700Y-61240100D01*
X208750700Y-61454700D01*
X208611600Y-61770500D01*
X208502800Y-62015000D01*
X208419000Y-62174800D01*
X208345000Y-62258200D01*
X208258300Y-62290000D01*
X208136700Y-62294900D01*
X208053200Y-62294100D01*
X207701500Y-62274800D01*
X207424800Y-62233300D01*
X207243000Y-62173600D01*
X207176300Y-62099800D01*
X207160000Y-62036700D01*
X207092200Y-61866700D01*
X206984200Y-61629300D01*
X206849300Y-61355100D01*
X206525800Y-60719400D01*
X205650500Y-60495600D01*
X204775200Y-60271800D01*
X204216400Y-60640600D01*
X204092400Y-60723800D01*
X203832600Y-60911800D01*
X203690300Y-61042700D01*
X203662700Y-61119100D01*
X202880570Y-61119100D01*
X202082700Y-60811600D01*
X201131600Y-60404900D01*
X200116500Y-59932400D01*
X199784000Y-59770400D01*
X199504100Y-59626900D01*
X199310700Y-59514900D01*
X199183900Y-59421500D01*
X199104200Y-59334000D01*
X199051700Y-59239400D01*
X199033800Y-59201000D01*
X198919000Y-59047100D01*
X198757900Y-58988400D01*
X198748100Y-58987400D01*
X198532000Y-59018200D01*
X198387600Y-59135600D01*
X198327400Y-59305300D01*
X197420249Y-59305300D01*
X197343900Y-59136700D01*
X197265800Y-58908800D01*
X197233900Y-58803400D01*
X197170000Y-58642900D01*
X197080800Y-58523600D01*
X196935200Y-58410000D01*
X196702100Y-58266500D01*
X196499700Y-58141200D01*
X196197600Y-57944300D01*
X195864900Y-57719600D01*
X195544100Y-57495500D01*
X194841300Y-56994200D01*
X194369300Y-57072200D01*
X193897300Y-57150100D01*
X193269600Y-56645200D01*
X193100547Y-56505100D01*
X193697600Y-56505100D01*
X193782100Y-56660100D01*
X193850200Y-56704700D01*
X194005600Y-56741300D01*
X194192000Y-56691700D01*
X194290700Y-56566400D01*
X194288900Y-56401400D01*
X194174700Y-56233100D01*
X194104500Y-56184300D01*
X193946400Y-56159400D01*
X193807500Y-56224700D01*
X193715300Y-56350000D01*
X193697600Y-56505100D01*
X193100547Y-56505100D01*
X192900000Y-56338900D01*
X192464200Y-55961600D01*
X192002800Y-55548900D01*
X191541900Y-55125000D01*
X191107900Y-54714000D01*
X190726800Y-54340000D01*
X190424800Y-54027000D01*
X189959700Y-53524000D01*
X189049200Y-53501700D01*
X188138600Y-53479500D01*
X187893239Y-53169200D01*
X190246400Y-53169200D01*
X190248400Y-53176800D01*
X190313400Y-53266200D01*
X190459400Y-53430900D01*
X190672000Y-53656400D01*
X190936400Y-53928100D01*
X191238200Y-54231500D01*
X191562600Y-54551900D01*
X191895200Y-54874900D01*
X192221200Y-55185800D01*
X192526100Y-55470100D01*
X192795400Y-55713200D01*
X192980100Y-55871000D01*
X193195300Y-56040900D01*
X193362500Y-56156700D01*
X193455800Y-56199500D01*
X193461600Y-56199400D01*
X193554800Y-56154700D01*
X193561900Y-56052800D01*
X193492700Y-55930300D01*
X193356700Y-55824100D01*
X193349000Y-55820000D01*
X193198600Y-55717600D01*
X192972600Y-55538700D01*
X192690300Y-55300500D01*
X192370800Y-55020400D01*
X192033400Y-54715800D01*
X191697400Y-54404000D01*
X191382000Y-54102400D01*
X191106400Y-53828400D01*
X190890000Y-53599200D01*
X190800900Y-53501500D01*
X190555600Y-53252600D01*
X190382600Y-53115100D01*
X190280100Y-53087700D01*
X190246400Y-53169200D01*
X187893239Y-53169200D01*
X187702200Y-52927600D01*
X187455600Y-52607700D01*
X187055600Y-52060300D01*
X186659300Y-51486900D01*
X186295600Y-50930000D01*
X185993300Y-50431600D01*
X185812800Y-50140300D01*
X185628200Y-49899300D01*
X185479700Y-49775600D01*
X185476000Y-49773800D01*
X185335200Y-49721300D01*
X185256900Y-49719400D01*
X185252500Y-49728500D01*
X184839678Y-49728500D01*
X184800300Y-49645800D01*
X184762400Y-49559500D01*
X184532900Y-49129300D01*
X184288200Y-48826600D01*
X184196500Y-48730200D01*
X184039100Y-48466900D01*
X184022680Y-48292700D01*
X184318000Y-48292700D01*
X184354900Y-48480400D01*
X184471200Y-48598800D01*
X184635200Y-48633800D01*
X184797900Y-48585400D01*
X184917000Y-48466900D01*
X184950100Y-48291900D01*
X184897600Y-48136100D01*
X184753600Y-48026300D01*
X184541500Y-48026900D01*
X184387300Y-48125000D01*
X184318000Y-48292700D01*
X184022680Y-48292700D01*
X184014300Y-48203800D01*
X184123100Y-47947100D01*
X184146200Y-47912300D01*
X184179500Y-47835600D01*
X184186900Y-47736400D01*
X184171055Y-47626300D01*
X185309900Y-47626300D01*
X185345500Y-47680300D01*
X185465000Y-47755900D01*
X185654000Y-47842100D01*
X185898300Y-47927500D01*
X186351700Y-48065300D01*
X186482900Y-48291900D01*
X186755500Y-48762700D01*
X186783600Y-48811100D01*
X187232700Y-49548700D01*
X187734800Y-50317600D01*
X188255000Y-51065700D01*
X188758300Y-51740800D01*
X189302200Y-52440300D01*
X189689600Y-52483700D01*
X189831700Y-52498100D01*
X190139100Y-52521900D01*
X190407100Y-52534500D01*
X190445600Y-52535200D01*
X190619400Y-52530700D01*
X190683900Y-52504800D01*
X190661100Y-52450300D01*
X190553600Y-52397000D01*
X190335500Y-52350300D01*
X190033100Y-52316200D01*
X189735500Y-52284300D01*
X189490900Y-52230000D01*
X189347700Y-52153700D01*
X189294200Y-52101800D01*
X189113500Y-51895700D01*
X188880200Y-51599400D01*
X188607100Y-51231300D01*
X188306800Y-50809800D01*
X187992300Y-50353300D01*
X187676200Y-49880200D01*
X187371200Y-49409000D01*
X187090200Y-48958000D01*
X186920255Y-48671000D01*
X187339500Y-48671000D01*
X187357200Y-48779700D01*
X187361700Y-48789800D01*
X187466100Y-48861400D01*
X187687300Y-48885000D01*
X187824900Y-48886100D01*
X188113000Y-48901800D01*
X188321500Y-48952500D01*
X188487500Y-49058700D01*
X188648000Y-49240700D01*
X188840300Y-49518900D01*
X189204900Y-50069600D01*
X189119000Y-50476000D01*
X189082300Y-50662900D01*
X189045500Y-50887000D01*
X189030200Y-51034800D01*
X189047200Y-51138600D01*
X189113900Y-51185800D01*
X189199900Y-51114000D01*
X189207900Y-51099100D01*
X189257300Y-50958900D01*
X189315500Y-50742600D01*
X189371300Y-50498300D01*
X189413500Y-50273700D01*
X189431200Y-50116800D01*
X189411400Y-50038700D01*
X189326600Y-49859600D01*
X189190300Y-49624100D01*
X189019000Y-49362600D01*
X188604500Y-48764400D01*
X187994400Y-48686200D01*
X187858100Y-48669700D01*
X187608200Y-48644900D01*
X187428400Y-48634800D01*
X187350800Y-48641600D01*
X187339500Y-48671000D01*
X186920255Y-48671000D01*
X186846000Y-48545600D01*
X186743600Y-48367900D01*
X186606900Y-48141800D01*
X186499200Y-47995100D01*
X186397000Y-47902900D01*
X186276800Y-47840900D01*
X186114900Y-47784500D01*
X185977400Y-47741800D01*
X185718000Y-47669600D01*
X185510200Y-47621400D01*
X185372400Y-47605400D01*
X185309900Y-47626300D01*
X184171055Y-47626300D01*
X184165500Y-47587700D01*
X184112300Y-47362800D01*
X184024400Y-47034600D01*
X183759200Y-45915900D01*
X183575900Y-44756200D01*
X183501000Y-43658200D01*
X183532854Y-42636400D01*
X184224500Y-42636400D01*
X184228800Y-42877300D01*
X184270300Y-43204000D01*
X184343200Y-43596500D01*
X184442000Y-44034900D01*
X184561000Y-44499300D01*
X184694400Y-44969900D01*
X184836600Y-45426700D01*
X184982000Y-45849800D01*
X185124900Y-46219400D01*
X185259500Y-46515600D01*
X185380200Y-46718500D01*
X185481400Y-46808100D01*
X185494300Y-46811700D01*
X185637000Y-46845900D01*
X185862800Y-46895200D01*
X186128700Y-46950300D01*
X186179900Y-46960500D01*
X186436000Y-47008700D01*
X186640100Y-47042600D01*
X186752000Y-47055500D01*
X186756700Y-47055000D01*
X186838000Y-46991500D01*
X186955700Y-46845800D01*
X187086900Y-46653300D01*
X187208900Y-46449500D01*
X187298800Y-46270000D01*
X187333900Y-46150100D01*
X187329300Y-46118600D01*
X187291500Y-45972300D01*
X187223700Y-45747900D01*
X187135900Y-45479300D01*
X187118500Y-45427000D01*
X187008300Y-45073000D01*
X186903600Y-44701500D01*
X186824800Y-44384900D01*
X186711600Y-43876100D01*
X186110000Y-43496500D01*
X185935400Y-43388800D01*
X185671400Y-43242600D01*
X185496400Y-43175900D01*
X185399500Y-43185500D01*
X185369600Y-43267900D01*
X185393100Y-43301600D01*
X185508700Y-43400300D01*
X185698900Y-43539500D01*
X185939200Y-43700600D01*
X186070400Y-43786200D01*
X186296400Y-43944200D01*
X186437000Y-44066500D01*
X186514800Y-44175100D01*
X186552300Y-44291800D01*
X186552300Y-44292100D01*
X186588200Y-44443900D01*
X186653500Y-44691200D01*
X186738900Y-44999900D01*
X186835300Y-45335800D01*
X187074800Y-46156100D01*
X186896500Y-46507800D01*
X186791900Y-46694500D01*
X186692200Y-46809500D01*
X186602800Y-46827100D01*
X186596600Y-46825500D01*
X186465300Y-46797000D01*
X186248100Y-46755600D01*
X185988500Y-46709700D01*
X185489800Y-46624600D01*
X185363000Y-46329000D01*
X185346300Y-46289200D01*
X185205300Y-45916800D01*
X185050500Y-45451400D01*
X184892200Y-44928300D01*
X184740600Y-44383200D01*
X184606300Y-43851200D01*
X184499400Y-43368000D01*
X184481200Y-43278700D01*
X184405900Y-42936800D01*
X184340500Y-42685200D01*
X184289200Y-42538400D01*
X184256000Y-42510900D01*
X184224500Y-42636400D01*
X183532854Y-42636400D01*
X183533200Y-42625300D01*
X183651868Y-41796600D01*
X184909700Y-41796600D01*
X184918700Y-42402500D01*
X185001900Y-43214900D01*
X185159600Y-44084500D01*
X185386600Y-44984300D01*
X185678000Y-45887100D01*
X185765800Y-46121600D01*
X185863900Y-46359600D01*
X185941600Y-46521600D01*
X185987200Y-46581300D01*
X186013700Y-46577200D01*
X186037600Y-46543700D01*
X186032700Y-46460100D01*
X185995000Y-46306900D01*
X185920300Y-46064800D01*
X185804700Y-45714400D01*
X185758200Y-45573300D01*
X185479500Y-44604000D01*
X185273300Y-43650100D01*
X185145000Y-42740700D01*
X185099900Y-41904800D01*
X185098700Y-41326100D01*
X185318800Y-41261300D01*
X185404100Y-41229000D01*
X185521200Y-41143000D01*
X185636600Y-40989600D01*
X185776000Y-40739300D01*
X185980700Y-40372500D01*
X186205900Y-40050300D01*
X186460300Y-39780500D01*
X186777900Y-39521600D01*
X186848500Y-39468600D01*
X187016400Y-39329700D01*
X187079200Y-39247400D01*
X187045300Y-39211700D01*
X187014500Y-39208100D01*
X186824000Y-39255800D01*
X186592300Y-39399500D01*
X186339100Y-39620300D01*
X186084200Y-39899000D01*
X185847500Y-40216800D01*
X185648700Y-40554500D01*
X185519100Y-40796900D01*
X185406300Y-40963600D01*
X185296500Y-41061700D01*
X185164700Y-41120500D01*
X184929300Y-41196500D01*
X184909700Y-41796600D01*
X183651868Y-41796600D01*
X183671300Y-41660900D01*
X183914400Y-40768100D01*
X184261000Y-39950400D01*
X184710200Y-39211000D01*
X184727527Y-39190300D01*
X185556100Y-39190300D01*
X185664700Y-39377400D01*
X185672900Y-39385400D01*
X185874600Y-39494300D01*
X186104400Y-39481500D01*
X186334800Y-39348400D01*
X186432800Y-39209100D01*
X186449100Y-39021400D01*
X186373600Y-38842700D01*
X186272373Y-38752900D01*
X187040400Y-38752900D01*
X187046900Y-38823600D01*
X187135800Y-38858600D01*
X187273500Y-38839700D01*
X187418500Y-38765400D01*
X187512300Y-38659600D01*
X187534200Y-38563100D01*
X187473700Y-38521100D01*
X187463100Y-38521300D01*
X187296000Y-38562600D01*
X187133600Y-38651300D01*
X187040400Y-38752900D01*
X186272373Y-38752900D01*
X186223000Y-38709100D01*
X186014100Y-38656500D01*
X185829100Y-38691200D01*
X185654700Y-38813200D01*
X185558200Y-38990900D01*
X185556100Y-39190300D01*
X184727527Y-39190300D01*
X185260800Y-38553200D01*
X185370878Y-38456300D01*
X186453300Y-38456300D01*
X186476500Y-38503900D01*
X186590900Y-38505900D01*
X186592189Y-38505400D01*
X187697300Y-38505400D01*
X187733700Y-38563100D01*
X187778800Y-38634400D01*
X187970200Y-38716700D01*
X188155600Y-38704100D01*
X188294900Y-38607900D01*
X188349900Y-38441300D01*
X188325000Y-38347500D01*
X188208200Y-38224100D01*
X188043700Y-38157300D01*
X187884900Y-38177500D01*
X187836100Y-38208200D01*
X187719800Y-38348500D01*
X187697300Y-38505400D01*
X186592189Y-38505400D01*
X186790200Y-38428600D01*
X187062100Y-38275800D01*
X187267500Y-38161500D01*
X187586200Y-38013000D01*
X187891800Y-37896900D01*
X188156900Y-37802500D01*
X188309900Y-37722800D01*
X188341900Y-37657400D01*
X188259100Y-37601400D01*
X188185000Y-37598200D01*
X188003100Y-37641200D01*
X187756400Y-37728500D01*
X187472500Y-37847100D01*
X187178700Y-37984100D01*
X186902500Y-38126500D01*
X186671200Y-38261400D01*
X186512400Y-38375600D01*
X186453300Y-38456300D01*
X185370878Y-38456300D01*
X185911500Y-37980400D01*
X186661300Y-37495800D01*
X187508900Y-37102700D01*
X187761400Y-37007300D01*
X188020600Y-36914300D01*
X188212400Y-36851000D01*
X188307600Y-36827700D01*
X188357200Y-36892400D01*
X188422700Y-37077500D01*
X188500800Y-37369000D01*
X188566300Y-37657400D01*
X188588000Y-37753200D01*
G37*
D11*
X22000000Y-34000000D02*
X92000000Y-34000000D01*
X22000000Y-74000000D02*
X22000000Y-34000000D01*
X92000000Y-34000000D02*
X92000000Y-74000000D01*
X92000000Y-74000000D02*
X22000000Y-74000000D01*
D12*
X69142858Y-57954819D02*
X69238096Y-57907200D01*
X69238096Y-57907200D02*
X69285715Y-57811961D01*
X69285715Y-57811961D02*
X69285715Y-56954819D01*
X68380953Y-57907200D02*
X68476191Y-57954819D01*
X68476191Y-57954819D02*
X68666667Y-57954819D01*
X68666667Y-57954819D02*
X68761905Y-57907200D01*
X68761905Y-57907200D02*
X68809524Y-57811961D01*
X68809524Y-57811961D02*
X68809524Y-57431009D01*
X68809524Y-57431009D02*
X68761905Y-57335771D01*
X68761905Y-57335771D02*
X68666667Y-57288152D01*
X68666667Y-57288152D02*
X68476191Y-57288152D01*
X68476191Y-57288152D02*
X68380953Y-57335771D01*
X68380953Y-57335771D02*
X68333334Y-57431009D01*
X68333334Y-57431009D02*
X68333334Y-57526247D01*
X68333334Y-57526247D02*
X68809524Y-57621485D01*
X67476191Y-57954819D02*
X67476191Y-57431009D01*
X67476191Y-57431009D02*
X67523810Y-57335771D01*
X67523810Y-57335771D02*
X67619048Y-57288152D01*
X67619048Y-57288152D02*
X67809524Y-57288152D01*
X67809524Y-57288152D02*
X67904762Y-57335771D01*
X67476191Y-57907200D02*
X67571429Y-57954819D01*
X67571429Y-57954819D02*
X67809524Y-57954819D01*
X67809524Y-57954819D02*
X67904762Y-57907200D01*
X67904762Y-57907200D02*
X67952381Y-57811961D01*
X67952381Y-57811961D02*
X67952381Y-57716723D01*
X67952381Y-57716723D02*
X67904762Y-57621485D01*
X67904762Y-57621485D02*
X67809524Y-57573866D01*
X67809524Y-57573866D02*
X67571429Y-57573866D01*
X67571429Y-57573866D02*
X67476191Y-57526247D01*
X66571429Y-57954819D02*
X66571429Y-56954819D01*
X66571429Y-57907200D02*
X66666667Y-57954819D01*
X66666667Y-57954819D02*
X66857143Y-57954819D01*
X66857143Y-57954819D02*
X66952381Y-57907200D01*
X66952381Y-57907200D02*
X67000000Y-57859580D01*
X67000000Y-57859580D02*
X67047619Y-57764342D01*
X67047619Y-57764342D02*
X67047619Y-57478628D01*
X67047619Y-57478628D02*
X67000000Y-57383390D01*
X67000000Y-57383390D02*
X66952381Y-57335771D01*
X66952381Y-57335771D02*
X66857143Y-57288152D01*
X66857143Y-57288152D02*
X66666667Y-57288152D01*
X66666667Y-57288152D02*
X66571429Y-57335771D01*
X65333333Y-57573866D02*
X64571429Y-57573866D01*
X64095238Y-57288152D02*
X63333334Y-57573866D01*
X63333334Y-57573866D02*
X64095238Y-57859580D01*
X62142857Y-57907200D02*
X62047619Y-57954819D01*
X62047619Y-57954819D02*
X61857143Y-57954819D01*
X61857143Y-57954819D02*
X61761905Y-57907200D01*
X61761905Y-57907200D02*
X61714286Y-57811961D01*
X61714286Y-57811961D02*
X61714286Y-57764342D01*
X61714286Y-57764342D02*
X61761905Y-57669104D01*
X61761905Y-57669104D02*
X61857143Y-57621485D01*
X61857143Y-57621485D02*
X62000000Y-57621485D01*
X62000000Y-57621485D02*
X62095238Y-57573866D01*
X62095238Y-57573866D02*
X62142857Y-57478628D01*
X62142857Y-57478628D02*
X62142857Y-57431009D01*
X62142857Y-57431009D02*
X62095238Y-57335771D01*
X62095238Y-57335771D02*
X62000000Y-57288152D01*
X62000000Y-57288152D02*
X61857143Y-57288152D01*
X61857143Y-57288152D02*
X61761905Y-57335771D01*
X61142857Y-57954819D02*
X61238095Y-57907200D01*
X61238095Y-57907200D02*
X61285714Y-57811961D01*
X61285714Y-57811961D02*
X61285714Y-56954819D01*
X60619047Y-57954819D02*
X60714285Y-57907200D01*
X60714285Y-57907200D02*
X60761904Y-57859580D01*
X60761904Y-57859580D02*
X60809523Y-57764342D01*
X60809523Y-57764342D02*
X60809523Y-57478628D01*
X60809523Y-57478628D02*
X60761904Y-57383390D01*
X60761904Y-57383390D02*
X60714285Y-57335771D01*
X60714285Y-57335771D02*
X60619047Y-57288152D01*
X60619047Y-57288152D02*
X60476190Y-57288152D01*
X60476190Y-57288152D02*
X60380952Y-57335771D01*
X60380952Y-57335771D02*
X60333333Y-57383390D01*
X60333333Y-57383390D02*
X60285714Y-57478628D01*
X60285714Y-57478628D02*
X60285714Y-57764342D01*
X60285714Y-57764342D02*
X60333333Y-57859580D01*
X60333333Y-57859580D02*
X60380952Y-57907200D01*
X60380952Y-57907200D02*
X60476190Y-57954819D01*
X60476190Y-57954819D02*
X60619047Y-57954819D01*
X59999999Y-57288152D02*
X59619047Y-57288152D01*
X59857142Y-56954819D02*
X59857142Y-57811961D01*
X59857142Y-57811961D02*
X59809523Y-57907200D01*
X59809523Y-57907200D02*
X59714285Y-57954819D01*
X59714285Y-57954819D02*
X59619047Y-57954819D01*
X58523808Y-57573866D02*
X57761904Y-57573866D01*
X57285713Y-57288152D02*
X56523809Y-57573866D01*
X56523809Y-57573866D02*
X57285713Y-57859580D01*
X54999999Y-56954819D02*
X54999999Y-57669104D01*
X54999999Y-57669104D02*
X55047618Y-57811961D01*
X55047618Y-57811961D02*
X55142856Y-57907200D01*
X55142856Y-57907200D02*
X55285713Y-57954819D01*
X55285713Y-57954819D02*
X55380951Y-57954819D01*
X54571427Y-57050057D02*
X54523808Y-57002438D01*
X54523808Y-57002438D02*
X54428570Y-56954819D01*
X54428570Y-56954819D02*
X54190475Y-56954819D01*
X54190475Y-56954819D02*
X54095237Y-57002438D01*
X54095237Y-57002438D02*
X54047618Y-57050057D01*
X54047618Y-57050057D02*
X53999999Y-57145295D01*
X53999999Y-57145295D02*
X53999999Y-57240533D01*
X53999999Y-57240533D02*
X54047618Y-57383390D01*
X54047618Y-57383390D02*
X54619046Y-57954819D01*
X54619046Y-57954819D02*
X53999999Y-57954819D01*
X52523808Y-58335771D02*
X52571427Y-58288152D01*
X52571427Y-58288152D02*
X52666665Y-58145295D01*
X52666665Y-58145295D02*
X52714284Y-58050057D01*
X52714284Y-58050057D02*
X52761903Y-57907200D01*
X52761903Y-57907200D02*
X52809522Y-57669104D01*
X52809522Y-57669104D02*
X52809522Y-57478628D01*
X52809522Y-57478628D02*
X52761903Y-57240533D01*
X52761903Y-57240533D02*
X52714284Y-57097676D01*
X52714284Y-57097676D02*
X52666665Y-57002438D01*
X52666665Y-57002438D02*
X52571427Y-56859580D01*
X52571427Y-56859580D02*
X52523808Y-56811961D01*
X52142855Y-57288152D02*
X52142855Y-58288152D01*
X52142855Y-57335771D02*
X52047617Y-57288152D01*
X52047617Y-57288152D02*
X51857141Y-57288152D01*
X51857141Y-57288152D02*
X51761903Y-57335771D01*
X51761903Y-57335771D02*
X51714284Y-57383390D01*
X51714284Y-57383390D02*
X51666665Y-57478628D01*
X51666665Y-57478628D02*
X51666665Y-57764342D01*
X51666665Y-57764342D02*
X51714284Y-57859580D01*
X51714284Y-57859580D02*
X51761903Y-57907200D01*
X51761903Y-57907200D02*
X51857141Y-57954819D01*
X51857141Y-57954819D02*
X52047617Y-57954819D01*
X52047617Y-57954819D02*
X52142855Y-57907200D01*
X51238093Y-57954819D02*
X51238093Y-57288152D01*
X51238093Y-56954819D02*
X51285712Y-57002438D01*
X51285712Y-57002438D02*
X51238093Y-57050057D01*
X51238093Y-57050057D02*
X51190474Y-57002438D01*
X51190474Y-57002438D02*
X51238093Y-56954819D01*
X51238093Y-56954819D02*
X51238093Y-57050057D01*
X50761903Y-57288152D02*
X50761903Y-57954819D01*
X50761903Y-57383390D02*
X50714284Y-57335771D01*
X50714284Y-57335771D02*
X50619046Y-57288152D01*
X50619046Y-57288152D02*
X50476189Y-57288152D01*
X50476189Y-57288152D02*
X50380951Y-57335771D01*
X50380951Y-57335771D02*
X50333332Y-57431009D01*
X50333332Y-57431009D02*
X50333332Y-57954819D01*
X49333332Y-57954819D02*
X49904760Y-57954819D01*
X49619046Y-57954819D02*
X49619046Y-56954819D01*
X49619046Y-56954819D02*
X49714284Y-57097676D01*
X49714284Y-57097676D02*
X49809522Y-57192914D01*
X49809522Y-57192914D02*
X49904760Y-57240533D01*
X48142855Y-57431009D02*
X47380951Y-57431009D01*
X47380951Y-57716723D02*
X48142855Y-57716723D01*
X46142855Y-57573866D02*
X45380951Y-57573866D01*
X45761903Y-57954819D02*
X45761903Y-57192914D01*
X44999998Y-58335771D02*
X44952379Y-58288152D01*
X44952379Y-58288152D02*
X44857141Y-58145295D01*
X44857141Y-58145295D02*
X44809522Y-58050057D01*
X44809522Y-58050057D02*
X44761903Y-57907200D01*
X44761903Y-57907200D02*
X44714284Y-57669104D01*
X44714284Y-57669104D02*
X44714284Y-57478628D01*
X44714284Y-57478628D02*
X44761903Y-57240533D01*
X44761903Y-57240533D02*
X44809522Y-57097676D01*
X44809522Y-57097676D02*
X44857141Y-57002438D01*
X44857141Y-57002438D02*
X44952379Y-56859580D01*
X44952379Y-56859580D02*
X44999998Y-56811961D01*
X61619048Y-61454819D02*
X61619048Y-62169104D01*
X61619048Y-62169104D02*
X61666667Y-62311961D01*
X61666667Y-62311961D02*
X61761905Y-62407200D01*
X61761905Y-62407200D02*
X61904762Y-62454819D01*
X61904762Y-62454819D02*
X62000000Y-62454819D01*
X60666667Y-62454819D02*
X61142857Y-62454819D01*
X61142857Y-62454819D02*
X61142857Y-61454819D01*
X59761905Y-62359580D02*
X59809524Y-62407200D01*
X59809524Y-62407200D02*
X59952381Y-62454819D01*
X59952381Y-62454819D02*
X60047619Y-62454819D01*
X60047619Y-62454819D02*
X60190476Y-62407200D01*
X60190476Y-62407200D02*
X60285714Y-62311961D01*
X60285714Y-62311961D02*
X60333333Y-62216723D01*
X60333333Y-62216723D02*
X60380952Y-62026247D01*
X60380952Y-62026247D02*
X60380952Y-61883390D01*
X60380952Y-61883390D02*
X60333333Y-61692914D01*
X60333333Y-61692914D02*
X60285714Y-61597676D01*
X60285714Y-61597676D02*
X60190476Y-61502438D01*
X60190476Y-61502438D02*
X60047619Y-61454819D01*
X60047619Y-61454819D02*
X59952381Y-61454819D01*
X59952381Y-61454819D02*
X59809524Y-61502438D01*
X59809524Y-61502438D02*
X59761905Y-61550057D01*
X59047619Y-61454819D02*
X59047619Y-62169104D01*
X59047619Y-62169104D02*
X59095238Y-62311961D01*
X59095238Y-62311961D02*
X59190476Y-62407200D01*
X59190476Y-62407200D02*
X59333333Y-62454819D01*
X59333333Y-62454819D02*
X59428571Y-62454819D01*
X58095238Y-62454819D02*
X58571428Y-62454819D01*
X58571428Y-62454819D02*
X58571428Y-61454819D01*
X57190476Y-62359580D02*
X57238095Y-62407200D01*
X57238095Y-62407200D02*
X57380952Y-62454819D01*
X57380952Y-62454819D02*
X57476190Y-62454819D01*
X57476190Y-62454819D02*
X57619047Y-62407200D01*
X57619047Y-62407200D02*
X57714285Y-62311961D01*
X57714285Y-62311961D02*
X57761904Y-62216723D01*
X57761904Y-62216723D02*
X57809523Y-62026247D01*
X57809523Y-62026247D02*
X57809523Y-61883390D01*
X57809523Y-61883390D02*
X57761904Y-61692914D01*
X57761904Y-61692914D02*
X57714285Y-61597676D01*
X57714285Y-61597676D02*
X57619047Y-61502438D01*
X57619047Y-61502438D02*
X57476190Y-61454819D01*
X57476190Y-61454819D02*
X57380952Y-61454819D01*
X57380952Y-61454819D02*
X57238095Y-61502438D01*
X57238095Y-61502438D02*
X57190476Y-61550057D01*
X56476190Y-61454819D02*
X56476190Y-62169104D01*
X56476190Y-62169104D02*
X56523809Y-62311961D01*
X56523809Y-62311961D02*
X56619047Y-62407200D01*
X56619047Y-62407200D02*
X56761904Y-62454819D01*
X56761904Y-62454819D02*
X56857142Y-62454819D01*
X55523809Y-62454819D02*
X55999999Y-62454819D01*
X55999999Y-62454819D02*
X55999999Y-61454819D01*
X54619047Y-62359580D02*
X54666666Y-62407200D01*
X54666666Y-62407200D02*
X54809523Y-62454819D01*
X54809523Y-62454819D02*
X54904761Y-62454819D01*
X54904761Y-62454819D02*
X55047618Y-62407200D01*
X55047618Y-62407200D02*
X55142856Y-62311961D01*
X55142856Y-62311961D02*
X55190475Y-62216723D01*
X55190475Y-62216723D02*
X55238094Y-62026247D01*
X55238094Y-62026247D02*
X55238094Y-61883390D01*
X55238094Y-61883390D02*
X55190475Y-61692914D01*
X55190475Y-61692914D02*
X55142856Y-61597676D01*
X55142856Y-61597676D02*
X55047618Y-61502438D01*
X55047618Y-61502438D02*
X54904761Y-61454819D01*
X54904761Y-61454819D02*
X54809523Y-61454819D01*
X54809523Y-61454819D02*
X54666666Y-61502438D01*
X54666666Y-61502438D02*
X54619047Y-61550057D01*
X53904761Y-61454819D02*
X53904761Y-62169104D01*
X53904761Y-62169104D02*
X53952380Y-62311961D01*
X53952380Y-62311961D02*
X54047618Y-62407200D01*
X54047618Y-62407200D02*
X54190475Y-62454819D01*
X54190475Y-62454819D02*
X54285713Y-62454819D01*
X52952380Y-62454819D02*
X53428570Y-62454819D01*
X53428570Y-62454819D02*
X53428570Y-61454819D01*
X52047618Y-62359580D02*
X52095237Y-62407200D01*
X52095237Y-62407200D02*
X52238094Y-62454819D01*
X52238094Y-62454819D02*
X52333332Y-62454819D01*
X52333332Y-62454819D02*
X52476189Y-62407200D01*
X52476189Y-62407200D02*
X52571427Y-62311961D01*
X52571427Y-62311961D02*
X52619046Y-62216723D01*
X52619046Y-62216723D02*
X52666665Y-62026247D01*
X52666665Y-62026247D02*
X52666665Y-61883390D01*
X52666665Y-61883390D02*
X52619046Y-61692914D01*
X52619046Y-61692914D02*
X52571427Y-61597676D01*
X52571427Y-61597676D02*
X52476189Y-61502438D01*
X52476189Y-61502438D02*
X52333332Y-61454819D01*
X52333332Y-61454819D02*
X52238094Y-61454819D01*
X52238094Y-61454819D02*
X52095237Y-61502438D01*
X52095237Y-61502438D02*
X52047618Y-61550057D01*
X214976191Y-84754819D02*
X214976191Y-83754819D01*
X214500001Y-84088152D02*
X214500001Y-84754819D01*
X214500001Y-84183390D02*
X214452382Y-84135771D01*
X214452382Y-84135771D02*
X214357144Y-84088152D01*
X214357144Y-84088152D02*
X214214287Y-84088152D01*
X214214287Y-84088152D02*
X214119049Y-84135771D01*
X214119049Y-84135771D02*
X214071430Y-84231009D01*
X214071430Y-84231009D02*
X214071430Y-84754819D01*
X213642858Y-84707200D02*
X213547620Y-84754819D01*
X213547620Y-84754819D02*
X213357144Y-84754819D01*
X213357144Y-84754819D02*
X213261906Y-84707200D01*
X213261906Y-84707200D02*
X213214287Y-84611961D01*
X213214287Y-84611961D02*
X213214287Y-84564342D01*
X213214287Y-84564342D02*
X213261906Y-84469104D01*
X213261906Y-84469104D02*
X213357144Y-84421485D01*
X213357144Y-84421485D02*
X213500001Y-84421485D01*
X213500001Y-84421485D02*
X213595239Y-84373866D01*
X213595239Y-84373866D02*
X213642858Y-84278628D01*
X213642858Y-84278628D02*
X213642858Y-84231009D01*
X213642858Y-84231009D02*
X213595239Y-84135771D01*
X213595239Y-84135771D02*
X213500001Y-84088152D01*
X213500001Y-84088152D02*
X213357144Y-84088152D01*
X213357144Y-84088152D02*
X213261906Y-84135771D01*
X212785715Y-84088152D02*
X212785715Y-85088152D01*
X212785715Y-84135771D02*
X212690477Y-84088152D01*
X212690477Y-84088152D02*
X212500001Y-84088152D01*
X212500001Y-84088152D02*
X212404763Y-84135771D01*
X212404763Y-84135771D02*
X212357144Y-84183390D01*
X212357144Y-84183390D02*
X212309525Y-84278628D01*
X212309525Y-84278628D02*
X212309525Y-84564342D01*
X212309525Y-84564342D02*
X212357144Y-84659580D01*
X212357144Y-84659580D02*
X212404763Y-84707200D01*
X212404763Y-84707200D02*
X212500001Y-84754819D01*
X212500001Y-84754819D02*
X212690477Y-84754819D01*
X212690477Y-84754819D02*
X212785715Y-84707200D01*
X211880953Y-84754819D02*
X211880953Y-84088152D01*
X211880953Y-83754819D02*
X211928572Y-83802438D01*
X211928572Y-83802438D02*
X211880953Y-83850057D01*
X211880953Y-83850057D02*
X211833334Y-83802438D01*
X211833334Y-83802438D02*
X211880953Y-83754819D01*
X211880953Y-83754819D02*
X211880953Y-83850057D01*
X211404763Y-84754819D02*
X211404763Y-84088152D01*
X211404763Y-84278628D02*
X211357144Y-84183390D01*
X211357144Y-84183390D02*
X211309525Y-84135771D01*
X211309525Y-84135771D02*
X211214287Y-84088152D01*
X211214287Y-84088152D02*
X211119049Y-84088152D01*
X210404763Y-84707200D02*
X210500001Y-84754819D01*
X210500001Y-84754819D02*
X210690477Y-84754819D01*
X210690477Y-84754819D02*
X210785715Y-84707200D01*
X210785715Y-84707200D02*
X210833334Y-84611961D01*
X210833334Y-84611961D02*
X210833334Y-84231009D01*
X210833334Y-84231009D02*
X210785715Y-84135771D01*
X210785715Y-84135771D02*
X210690477Y-84088152D01*
X210690477Y-84088152D02*
X210500001Y-84088152D01*
X210500001Y-84088152D02*
X210404763Y-84135771D01*
X210404763Y-84135771D02*
X210357144Y-84231009D01*
X210357144Y-84231009D02*
X210357144Y-84326247D01*
X210357144Y-84326247D02*
X210833334Y-84421485D01*
X209500001Y-84754819D02*
X209500001Y-83754819D01*
X209500001Y-84707200D02*
X209595239Y-84754819D01*
X209595239Y-84754819D02*
X209785715Y-84754819D01*
X209785715Y-84754819D02*
X209880953Y-84707200D01*
X209880953Y-84707200D02*
X209928572Y-84659580D01*
X209928572Y-84659580D02*
X209976191Y-84564342D01*
X209976191Y-84564342D02*
X209976191Y-84278628D01*
X209976191Y-84278628D02*
X209928572Y-84183390D01*
X209928572Y-84183390D02*
X209880953Y-84135771D01*
X209880953Y-84135771D02*
X209785715Y-84088152D01*
X209785715Y-84088152D02*
X209595239Y-84088152D01*
X209595239Y-84088152D02*
X209500001Y-84135771D01*
X208261905Y-84754819D02*
X208261905Y-83754819D01*
X208261905Y-84135771D02*
X208166667Y-84088152D01*
X208166667Y-84088152D02*
X207976191Y-84088152D01*
X207976191Y-84088152D02*
X207880953Y-84135771D01*
X207880953Y-84135771D02*
X207833334Y-84183390D01*
X207833334Y-84183390D02*
X207785715Y-84278628D01*
X207785715Y-84278628D02*
X207785715Y-84564342D01*
X207785715Y-84564342D02*
X207833334Y-84659580D01*
X207833334Y-84659580D02*
X207880953Y-84707200D01*
X207880953Y-84707200D02*
X207976191Y-84754819D01*
X207976191Y-84754819D02*
X208166667Y-84754819D01*
X208166667Y-84754819D02*
X208261905Y-84707200D01*
X207452381Y-84088152D02*
X207214286Y-84754819D01*
X206976191Y-84088152D02*
X207214286Y-84754819D01*
X207214286Y-84754819D02*
X207309524Y-84992914D01*
X207309524Y-84992914D02*
X207357143Y-85040533D01*
X207357143Y-85040533D02*
X207452381Y-85088152D01*
X205261905Y-84659580D02*
X205309524Y-84707200D01*
X205309524Y-84707200D02*
X205452381Y-84754819D01*
X205452381Y-84754819D02*
X205547619Y-84754819D01*
X205547619Y-84754819D02*
X205690476Y-84707200D01*
X205690476Y-84707200D02*
X205785714Y-84611961D01*
X205785714Y-84611961D02*
X205833333Y-84516723D01*
X205833333Y-84516723D02*
X205880952Y-84326247D01*
X205880952Y-84326247D02*
X205880952Y-84183390D01*
X205880952Y-84183390D02*
X205833333Y-83992914D01*
X205833333Y-83992914D02*
X205785714Y-83897676D01*
X205785714Y-83897676D02*
X205690476Y-83802438D01*
X205690476Y-83802438D02*
X205547619Y-83754819D01*
X205547619Y-83754819D02*
X205452381Y-83754819D01*
X205452381Y-83754819D02*
X205309524Y-83802438D01*
X205309524Y-83802438D02*
X205261905Y-83850057D01*
X204690476Y-84754819D02*
X204785714Y-84707200D01*
X204785714Y-84707200D02*
X204833333Y-84611961D01*
X204833333Y-84611961D02*
X204833333Y-83754819D01*
X204309523Y-84754819D02*
X204309523Y-84088152D01*
X204309523Y-83754819D02*
X204357142Y-83802438D01*
X204357142Y-83802438D02*
X204309523Y-83850057D01*
X204309523Y-83850057D02*
X204261904Y-83802438D01*
X204261904Y-83802438D02*
X204309523Y-83754819D01*
X204309523Y-83754819D02*
X204309523Y-83850057D01*
X203404762Y-84707200D02*
X203500000Y-84754819D01*
X203500000Y-84754819D02*
X203690476Y-84754819D01*
X203690476Y-84754819D02*
X203785714Y-84707200D01*
X203785714Y-84707200D02*
X203833333Y-84659580D01*
X203833333Y-84659580D02*
X203880952Y-84564342D01*
X203880952Y-84564342D02*
X203880952Y-84278628D01*
X203880952Y-84278628D02*
X203833333Y-84183390D01*
X203833333Y-84183390D02*
X203785714Y-84135771D01*
X203785714Y-84135771D02*
X203690476Y-84088152D01*
X203690476Y-84088152D02*
X203500000Y-84088152D01*
X203500000Y-84088152D02*
X203404762Y-84135771D01*
X202976190Y-84754819D02*
X202976190Y-83754819D01*
X202880952Y-84373866D02*
X202595238Y-84754819D01*
X202595238Y-84088152D02*
X202976190Y-84469104D01*
X201833333Y-84231009D02*
X201690476Y-84278628D01*
X201690476Y-84278628D02*
X201642857Y-84326247D01*
X201642857Y-84326247D02*
X201595238Y-84421485D01*
X201595238Y-84421485D02*
X201595238Y-84564342D01*
X201595238Y-84564342D02*
X201642857Y-84659580D01*
X201642857Y-84659580D02*
X201690476Y-84707200D01*
X201690476Y-84707200D02*
X201785714Y-84754819D01*
X201785714Y-84754819D02*
X202166666Y-84754819D01*
X202166666Y-84754819D02*
X202166666Y-83754819D01*
X202166666Y-83754819D02*
X201833333Y-83754819D01*
X201833333Y-83754819D02*
X201738095Y-83802438D01*
X201738095Y-83802438D02*
X201690476Y-83850057D01*
X201690476Y-83850057D02*
X201642857Y-83945295D01*
X201642857Y-83945295D02*
X201642857Y-84040533D01*
X201642857Y-84040533D02*
X201690476Y-84135771D01*
X201690476Y-84135771D02*
X201738095Y-84183390D01*
X201738095Y-84183390D02*
X201833333Y-84231009D01*
X201833333Y-84231009D02*
X202166666Y-84231009D01*
X201023809Y-84754819D02*
X201119047Y-84707200D01*
X201119047Y-84707200D02*
X201166666Y-84659580D01*
X201166666Y-84659580D02*
X201214285Y-84564342D01*
X201214285Y-84564342D02*
X201214285Y-84278628D01*
X201214285Y-84278628D02*
X201166666Y-84183390D01*
X201166666Y-84183390D02*
X201119047Y-84135771D01*
X201119047Y-84135771D02*
X201023809Y-84088152D01*
X201023809Y-84088152D02*
X200880952Y-84088152D01*
X200880952Y-84088152D02*
X200785714Y-84135771D01*
X200785714Y-84135771D02*
X200738095Y-84183390D01*
X200738095Y-84183390D02*
X200690476Y-84278628D01*
X200690476Y-84278628D02*
X200690476Y-84564342D01*
X200690476Y-84564342D02*
X200738095Y-84659580D01*
X200738095Y-84659580D02*
X200785714Y-84707200D01*
X200785714Y-84707200D02*
X200880952Y-84754819D01*
X200880952Y-84754819D02*
X201023809Y-84754819D01*
X199833333Y-84754819D02*
X199833333Y-84231009D01*
X199833333Y-84231009D02*
X199880952Y-84135771D01*
X199880952Y-84135771D02*
X199976190Y-84088152D01*
X199976190Y-84088152D02*
X200166666Y-84088152D01*
X200166666Y-84088152D02*
X200261904Y-84135771D01*
X199833333Y-84707200D02*
X199928571Y-84754819D01*
X199928571Y-84754819D02*
X200166666Y-84754819D01*
X200166666Y-84754819D02*
X200261904Y-84707200D01*
X200261904Y-84707200D02*
X200309523Y-84611961D01*
X200309523Y-84611961D02*
X200309523Y-84516723D01*
X200309523Y-84516723D02*
X200261904Y-84421485D01*
X200261904Y-84421485D02*
X200166666Y-84373866D01*
X200166666Y-84373866D02*
X199928571Y-84373866D01*
X199928571Y-84373866D02*
X199833333Y-84326247D01*
X199357142Y-84754819D02*
X199357142Y-84088152D01*
X199357142Y-84278628D02*
X199309523Y-84183390D01*
X199309523Y-84183390D02*
X199261904Y-84135771D01*
X199261904Y-84135771D02*
X199166666Y-84088152D01*
X199166666Y-84088152D02*
X199071428Y-84088152D01*
X198309523Y-84754819D02*
X198309523Y-83754819D01*
X198309523Y-84707200D02*
X198404761Y-84754819D01*
X198404761Y-84754819D02*
X198595237Y-84754819D01*
X198595237Y-84754819D02*
X198690475Y-84707200D01*
X198690475Y-84707200D02*
X198738094Y-84659580D01*
X198738094Y-84659580D02*
X198785713Y-84564342D01*
X198785713Y-84564342D02*
X198785713Y-84278628D01*
X198785713Y-84278628D02*
X198738094Y-84183390D01*
X198738094Y-84183390D02*
X198690475Y-84135771D01*
X198690475Y-84135771D02*
X198595237Y-84088152D01*
X198595237Y-84088152D02*
X198404761Y-84088152D01*
X198404761Y-84088152D02*
X198309523Y-84135771D01*
X196785713Y-85135771D02*
X196833332Y-85088152D01*
X196833332Y-85088152D02*
X196928570Y-84945295D01*
X196928570Y-84945295D02*
X196976189Y-84850057D01*
X196976189Y-84850057D02*
X197023808Y-84707200D01*
X197023808Y-84707200D02*
X197071427Y-84469104D01*
X197071427Y-84469104D02*
X197071427Y-84278628D01*
X197071427Y-84278628D02*
X197023808Y-84040533D01*
X197023808Y-84040533D02*
X196976189Y-83897676D01*
X196976189Y-83897676D02*
X196928570Y-83802438D01*
X196928570Y-83802438D02*
X196833332Y-83659580D01*
X196833332Y-83659580D02*
X196785713Y-83611961D01*
X196452379Y-84707200D02*
X196309522Y-84754819D01*
X196309522Y-84754819D02*
X196071427Y-84754819D01*
X196071427Y-84754819D02*
X195976189Y-84707200D01*
X195976189Y-84707200D02*
X195928570Y-84659580D01*
X195928570Y-84659580D02*
X195880951Y-84564342D01*
X195880951Y-84564342D02*
X195880951Y-84469104D01*
X195880951Y-84469104D02*
X195928570Y-84373866D01*
X195928570Y-84373866D02*
X195976189Y-84326247D01*
X195976189Y-84326247D02*
X196071427Y-84278628D01*
X196071427Y-84278628D02*
X196261903Y-84231009D01*
X196261903Y-84231009D02*
X196357141Y-84183390D01*
X196357141Y-84183390D02*
X196404760Y-84135771D01*
X196404760Y-84135771D02*
X196452379Y-84040533D01*
X196452379Y-84040533D02*
X196452379Y-83945295D01*
X196452379Y-83945295D02*
X196404760Y-83850057D01*
X196404760Y-83850057D02*
X196357141Y-83802438D01*
X196357141Y-83802438D02*
X196261903Y-83754819D01*
X196261903Y-83754819D02*
X196023808Y-83754819D01*
X196023808Y-83754819D02*
X195880951Y-83802438D01*
X195023808Y-84754819D02*
X195023808Y-84231009D01*
X195023808Y-84231009D02*
X195071427Y-84135771D01*
X195071427Y-84135771D02*
X195166665Y-84088152D01*
X195166665Y-84088152D02*
X195357141Y-84088152D01*
X195357141Y-84088152D02*
X195452379Y-84135771D01*
X195023808Y-84707200D02*
X195119046Y-84754819D01*
X195119046Y-84754819D02*
X195357141Y-84754819D01*
X195357141Y-84754819D02*
X195452379Y-84707200D01*
X195452379Y-84707200D02*
X195499998Y-84611961D01*
X195499998Y-84611961D02*
X195499998Y-84516723D01*
X195499998Y-84516723D02*
X195452379Y-84421485D01*
X195452379Y-84421485D02*
X195357141Y-84373866D01*
X195357141Y-84373866D02*
X195119046Y-84373866D01*
X195119046Y-84373866D02*
X195023808Y-84326247D01*
X194404760Y-84754819D02*
X194499998Y-84707200D01*
X194499998Y-84707200D02*
X194547617Y-84611961D01*
X194547617Y-84611961D02*
X194547617Y-83754819D01*
X194023807Y-84754819D02*
X194023807Y-84088152D01*
X194023807Y-83754819D02*
X194071426Y-83802438D01*
X194071426Y-83802438D02*
X194023807Y-83850057D01*
X194023807Y-83850057D02*
X193976188Y-83802438D01*
X193976188Y-83802438D02*
X194023807Y-83754819D01*
X194023807Y-83754819D02*
X194023807Y-83850057D01*
X193119046Y-84707200D02*
X193214284Y-84754819D01*
X193214284Y-84754819D02*
X193404760Y-84754819D01*
X193404760Y-84754819D02*
X193499998Y-84707200D01*
X193499998Y-84707200D02*
X193547617Y-84659580D01*
X193547617Y-84659580D02*
X193595236Y-84564342D01*
X193595236Y-84564342D02*
X193595236Y-84278628D01*
X193595236Y-84278628D02*
X193547617Y-84183390D01*
X193547617Y-84183390D02*
X193499998Y-84135771D01*
X193499998Y-84135771D02*
X193404760Y-84088152D01*
X193404760Y-84088152D02*
X193214284Y-84088152D01*
X193214284Y-84088152D02*
X193119046Y-84135771D01*
X192785712Y-84088152D02*
X192547617Y-84754819D01*
X192309522Y-84088152D02*
X192547617Y-84754819D01*
X192547617Y-84754819D02*
X192642855Y-84992914D01*
X192642855Y-84992914D02*
X192690474Y-85040533D01*
X192690474Y-85040533D02*
X192785712Y-85088152D01*
X191785712Y-84754819D02*
X191880950Y-84707200D01*
X191880950Y-84707200D02*
X191928569Y-84611961D01*
X191928569Y-84611961D02*
X191928569Y-83754819D01*
X191404759Y-84754819D02*
X191404759Y-84088152D01*
X191404759Y-83754819D02*
X191452378Y-83802438D01*
X191452378Y-83802438D02*
X191404759Y-83850057D01*
X191404759Y-83850057D02*
X191357140Y-83802438D01*
X191357140Y-83802438D02*
X191404759Y-83754819D01*
X191404759Y-83754819D02*
X191404759Y-83850057D01*
X190499998Y-84707200D02*
X190595236Y-84754819D01*
X190595236Y-84754819D02*
X190785712Y-84754819D01*
X190785712Y-84754819D02*
X190880950Y-84707200D01*
X190880950Y-84707200D02*
X190928569Y-84659580D01*
X190928569Y-84659580D02*
X190976188Y-84564342D01*
X190976188Y-84564342D02*
X190976188Y-84278628D01*
X190976188Y-84278628D02*
X190928569Y-84183390D01*
X190928569Y-84183390D02*
X190880950Y-84135771D01*
X190880950Y-84135771D02*
X190785712Y-84088152D01*
X190785712Y-84088152D02*
X190595236Y-84088152D01*
X190595236Y-84088152D02*
X190499998Y-84135771D01*
X190309522Y-84850057D02*
X189547617Y-84850057D01*
X188880950Y-84754819D02*
X188880950Y-84231009D01*
X188880950Y-84231009D02*
X188928569Y-84135771D01*
X188928569Y-84135771D02*
X189023807Y-84088152D01*
X189023807Y-84088152D02*
X189214283Y-84088152D01*
X189214283Y-84088152D02*
X189309521Y-84135771D01*
X188880950Y-84707200D02*
X188976188Y-84754819D01*
X188976188Y-84754819D02*
X189214283Y-84754819D01*
X189214283Y-84754819D02*
X189309521Y-84707200D01*
X189309521Y-84707200D02*
X189357140Y-84611961D01*
X189357140Y-84611961D02*
X189357140Y-84516723D01*
X189357140Y-84516723D02*
X189309521Y-84421485D01*
X189309521Y-84421485D02*
X189214283Y-84373866D01*
X189214283Y-84373866D02*
X188976188Y-84373866D01*
X188976188Y-84373866D02*
X188880950Y-84326247D01*
X187976188Y-84707200D02*
X188071426Y-84754819D01*
X188071426Y-84754819D02*
X188261902Y-84754819D01*
X188261902Y-84754819D02*
X188357140Y-84707200D01*
X188357140Y-84707200D02*
X188404759Y-84659580D01*
X188404759Y-84659580D02*
X188452378Y-84564342D01*
X188452378Y-84564342D02*
X188452378Y-84278628D01*
X188452378Y-84278628D02*
X188404759Y-84183390D01*
X188404759Y-84183390D02*
X188357140Y-84135771D01*
X188357140Y-84135771D02*
X188261902Y-84088152D01*
X188261902Y-84088152D02*
X188071426Y-84088152D01*
X188071426Y-84088152D02*
X187976188Y-84135771D01*
X187547616Y-84754819D02*
X187547616Y-84088152D01*
X187547616Y-83754819D02*
X187595235Y-83802438D01*
X187595235Y-83802438D02*
X187547616Y-83850057D01*
X187547616Y-83850057D02*
X187499997Y-83802438D01*
X187499997Y-83802438D02*
X187547616Y-83754819D01*
X187547616Y-83754819D02*
X187547616Y-83850057D01*
X186642855Y-84754819D02*
X186642855Y-83754819D01*
X186642855Y-84707200D02*
X186738093Y-84754819D01*
X186738093Y-84754819D02*
X186928569Y-84754819D01*
X186928569Y-84754819D02*
X187023807Y-84707200D01*
X187023807Y-84707200D02*
X187071426Y-84659580D01*
X187071426Y-84659580D02*
X187119045Y-84564342D01*
X187119045Y-84564342D02*
X187119045Y-84278628D01*
X187119045Y-84278628D02*
X187071426Y-84183390D01*
X187071426Y-84183390D02*
X187023807Y-84135771D01*
X187023807Y-84135771D02*
X186928569Y-84088152D01*
X186928569Y-84088152D02*
X186738093Y-84088152D01*
X186738093Y-84088152D02*
X186642855Y-84135771D01*
X186261902Y-83754819D02*
X185642855Y-83754819D01*
X185642855Y-83754819D02*
X185976188Y-84135771D01*
X185976188Y-84135771D02*
X185833331Y-84135771D01*
X185833331Y-84135771D02*
X185738093Y-84183390D01*
X185738093Y-84183390D02*
X185690474Y-84231009D01*
X185690474Y-84231009D02*
X185642855Y-84326247D01*
X185642855Y-84326247D02*
X185642855Y-84564342D01*
X185642855Y-84564342D02*
X185690474Y-84659580D01*
X185690474Y-84659580D02*
X185738093Y-84707200D01*
X185738093Y-84707200D02*
X185833331Y-84754819D01*
X185833331Y-84754819D02*
X186119045Y-84754819D01*
X186119045Y-84754819D02*
X186214283Y-84707200D01*
X186214283Y-84707200D02*
X186261902Y-84659580D01*
X185309521Y-85135771D02*
X185261902Y-85088152D01*
X185261902Y-85088152D02*
X185166664Y-84945295D01*
X185166664Y-84945295D02*
X185119045Y-84850057D01*
X185119045Y-84850057D02*
X185071426Y-84707200D01*
X185071426Y-84707200D02*
X185023807Y-84469104D01*
X185023807Y-84469104D02*
X185023807Y-84278628D01*
X185023807Y-84278628D02*
X185071426Y-84040533D01*
X185071426Y-84040533D02*
X185119045Y-83897676D01*
X185119045Y-83897676D02*
X185166664Y-83802438D01*
X185166664Y-83802438D02*
X185261902Y-83659580D01*
X185261902Y-83659580D02*
X185309521Y-83611961D01*
D13*
X74035712Y-54682228D02*
X74749998Y-54682228D01*
X74749998Y-54682228D02*
X74749998Y-53182228D01*
X73535712Y-54682228D02*
X73535712Y-53682228D01*
X73535712Y-53182228D02*
X73607140Y-53253657D01*
X73607140Y-53253657D02*
X73535712Y-53325085D01*
X73535712Y-53325085D02*
X73464283Y-53253657D01*
X73464283Y-53253657D02*
X73535712Y-53182228D01*
X73535712Y-53182228D02*
X73535712Y-53325085D01*
X72821426Y-54682228D02*
X72821426Y-53182228D01*
X72821426Y-53182228D02*
X72249997Y-53182228D01*
X72249997Y-53182228D02*
X72107140Y-53253657D01*
X72107140Y-53253657D02*
X72035711Y-53325085D01*
X72035711Y-53325085D02*
X71964283Y-53467942D01*
X71964283Y-53467942D02*
X71964283Y-53682228D01*
X71964283Y-53682228D02*
X72035711Y-53825085D01*
X72035711Y-53825085D02*
X72107140Y-53896514D01*
X72107140Y-53896514D02*
X72249997Y-53967942D01*
X72249997Y-53967942D02*
X72821426Y-53967942D01*
X71107140Y-54682228D02*
X71249997Y-54610800D01*
X71249997Y-54610800D02*
X71321426Y-54539371D01*
X71321426Y-54539371D02*
X71392854Y-54396514D01*
X71392854Y-54396514D02*
X71392854Y-53967942D01*
X71392854Y-53967942D02*
X71321426Y-53825085D01*
X71321426Y-53825085D02*
X71249997Y-53753657D01*
X71249997Y-53753657D02*
X71107140Y-53682228D01*
X71107140Y-53682228D02*
X70892854Y-53682228D01*
X70892854Y-53682228D02*
X70749997Y-53753657D01*
X70749997Y-53753657D02*
X70678569Y-53825085D01*
X70678569Y-53825085D02*
X70607140Y-53967942D01*
X70607140Y-53967942D02*
X70607140Y-54396514D01*
X70607140Y-54396514D02*
X70678569Y-54539371D01*
X70678569Y-54539371D02*
X70749997Y-54610800D01*
X70749997Y-54610800D02*
X70892854Y-54682228D01*
X70892854Y-54682228D02*
X71107140Y-54682228D01*
X68035711Y-54682228D02*
X68892854Y-54682228D01*
X68464283Y-54682228D02*
X68464283Y-53182228D01*
X68464283Y-53182228D02*
X68607140Y-53396514D01*
X68607140Y-53396514D02*
X68749997Y-53539371D01*
X68749997Y-53539371D02*
X68892854Y-53610800D01*
X67464283Y-54610800D02*
X67249998Y-54682228D01*
X67249998Y-54682228D02*
X66892855Y-54682228D01*
X66892855Y-54682228D02*
X66749998Y-54610800D01*
X66749998Y-54610800D02*
X66678569Y-54539371D01*
X66678569Y-54539371D02*
X66607140Y-54396514D01*
X66607140Y-54396514D02*
X66607140Y-54253657D01*
X66607140Y-54253657D02*
X66678569Y-54110800D01*
X66678569Y-54110800D02*
X66749998Y-54039371D01*
X66749998Y-54039371D02*
X66892855Y-53967942D01*
X66892855Y-53967942D02*
X67178569Y-53896514D01*
X67178569Y-53896514D02*
X67321426Y-53825085D01*
X67321426Y-53825085D02*
X67392855Y-53753657D01*
X67392855Y-53753657D02*
X67464283Y-53610800D01*
X67464283Y-53610800D02*
X67464283Y-53467942D01*
X67464283Y-53467942D02*
X67392855Y-53325085D01*
X67392855Y-53325085D02*
X67321426Y-53253657D01*
X67321426Y-53253657D02*
X67178569Y-53182228D01*
X67178569Y-53182228D02*
X66821426Y-53182228D01*
X66821426Y-53182228D02*
X66607140Y-53253657D01*
X63249998Y-55253657D02*
X63321427Y-55182228D01*
X63321427Y-55182228D02*
X63464284Y-54967942D01*
X63464284Y-54967942D02*
X63535713Y-54825085D01*
X63535713Y-54825085D02*
X63607141Y-54610800D01*
X63607141Y-54610800D02*
X63678570Y-54253657D01*
X63678570Y-54253657D02*
X63678570Y-53967942D01*
X63678570Y-53967942D02*
X63607141Y-53610800D01*
X63607141Y-53610800D02*
X63535713Y-53396514D01*
X63535713Y-53396514D02*
X63464284Y-53253657D01*
X63464284Y-53253657D02*
X63321427Y-53039371D01*
X63321427Y-53039371D02*
X63249998Y-52967942D01*
X61535713Y-53682228D02*
X62678570Y-54110800D01*
X62678570Y-54110800D02*
X61535713Y-54539371D01*
X60821427Y-53896514D02*
X59678570Y-53896514D01*
X59678570Y-54325085D02*
X60821427Y-54325085D01*
X57964284Y-53182228D02*
X57035712Y-53182228D01*
X57035712Y-53182228D02*
X57535712Y-53753657D01*
X57535712Y-53753657D02*
X57321427Y-53753657D01*
X57321427Y-53753657D02*
X57178570Y-53825085D01*
X57178570Y-53825085D02*
X57107141Y-53896514D01*
X57107141Y-53896514D02*
X57035712Y-54039371D01*
X57035712Y-54039371D02*
X57035712Y-54396514D01*
X57035712Y-54396514D02*
X57107141Y-54539371D01*
X57107141Y-54539371D02*
X57178570Y-54610800D01*
X57178570Y-54610800D02*
X57321427Y-54682228D01*
X57321427Y-54682228D02*
X57749998Y-54682228D01*
X57749998Y-54682228D02*
X57892855Y-54610800D01*
X57892855Y-54610800D02*
X57964284Y-54539371D01*
X56392856Y-54539371D02*
X56321427Y-54610800D01*
X56321427Y-54610800D02*
X56392856Y-54682228D01*
X56392856Y-54682228D02*
X56464284Y-54610800D01*
X56464284Y-54610800D02*
X56392856Y-54539371D01*
X56392856Y-54539371D02*
X56392856Y-54682228D01*
X55392855Y-53182228D02*
X55249998Y-53182228D01*
X55249998Y-53182228D02*
X55107141Y-53253657D01*
X55107141Y-53253657D02*
X55035713Y-53325085D01*
X55035713Y-53325085D02*
X54964284Y-53467942D01*
X54964284Y-53467942D02*
X54892855Y-53753657D01*
X54892855Y-53753657D02*
X54892855Y-54110800D01*
X54892855Y-54110800D02*
X54964284Y-54396514D01*
X54964284Y-54396514D02*
X55035713Y-54539371D01*
X55035713Y-54539371D02*
X55107141Y-54610800D01*
X55107141Y-54610800D02*
X55249998Y-54682228D01*
X55249998Y-54682228D02*
X55392855Y-54682228D01*
X55392855Y-54682228D02*
X55535713Y-54610800D01*
X55535713Y-54610800D02*
X55607141Y-54539371D01*
X55607141Y-54539371D02*
X55678570Y-54396514D01*
X55678570Y-54396514D02*
X55749998Y-54110800D01*
X55749998Y-54110800D02*
X55749998Y-53753657D01*
X55749998Y-53753657D02*
X55678570Y-53467942D01*
X55678570Y-53467942D02*
X55607141Y-53325085D01*
X55607141Y-53325085D02*
X55535713Y-53253657D01*
X55535713Y-53253657D02*
X55392855Y-53182228D01*
X53321427Y-53682228D02*
X52749999Y-53682228D01*
X53107142Y-53182228D02*
X53107142Y-54467942D01*
X53107142Y-54467942D02*
X53035713Y-54610800D01*
X53035713Y-54610800D02*
X52892856Y-54682228D01*
X52892856Y-54682228D02*
X52749999Y-54682228D01*
X51249999Y-54682228D02*
X50464285Y-53682228D01*
X51249999Y-53682228D02*
X50464285Y-54682228D01*
X48107142Y-53682228D02*
X48107142Y-54682228D01*
X48464284Y-53110800D02*
X48821427Y-54182228D01*
X48821427Y-54182228D02*
X47892856Y-54182228D01*
X47035713Y-53182228D02*
X46892856Y-53182228D01*
X46892856Y-53182228D02*
X46749999Y-53253657D01*
X46749999Y-53253657D02*
X46678571Y-53325085D01*
X46678571Y-53325085D02*
X46607142Y-53467942D01*
X46607142Y-53467942D02*
X46535713Y-53753657D01*
X46535713Y-53753657D02*
X46535713Y-54110800D01*
X46535713Y-54110800D02*
X46607142Y-54396514D01*
X46607142Y-54396514D02*
X46678571Y-54539371D01*
X46678571Y-54539371D02*
X46749999Y-54610800D01*
X46749999Y-54610800D02*
X46892856Y-54682228D01*
X46892856Y-54682228D02*
X47035713Y-54682228D01*
X47035713Y-54682228D02*
X47178571Y-54610800D01*
X47178571Y-54610800D02*
X47249999Y-54539371D01*
X47249999Y-54539371D02*
X47321428Y-54396514D01*
X47321428Y-54396514D02*
X47392856Y-54110800D01*
X47392856Y-54110800D02*
X47392856Y-53753657D01*
X47392856Y-53753657D02*
X47321428Y-53467942D01*
X47321428Y-53467942D02*
X47249999Y-53325085D01*
X47249999Y-53325085D02*
X47178571Y-53253657D01*
X47178571Y-53253657D02*
X47035713Y-53182228D01*
X44892857Y-54682228D02*
X44107143Y-53682228D01*
X44892857Y-53682228D02*
X44107143Y-54682228D01*
X42535714Y-53182228D02*
X41535714Y-53182228D01*
X41535714Y-53182228D02*
X42178571Y-54682228D01*
X40678571Y-53182228D02*
X40535714Y-53182228D01*
X40535714Y-53182228D02*
X40392857Y-53253657D01*
X40392857Y-53253657D02*
X40321429Y-53325085D01*
X40321429Y-53325085D02*
X40250000Y-53467942D01*
X40250000Y-53467942D02*
X40178571Y-53753657D01*
X40178571Y-53753657D02*
X40178571Y-54110800D01*
X40178571Y-54110800D02*
X40250000Y-54396514D01*
X40250000Y-54396514D02*
X40321429Y-54539371D01*
X40321429Y-54539371D02*
X40392857Y-54610800D01*
X40392857Y-54610800D02*
X40535714Y-54682228D01*
X40535714Y-54682228D02*
X40678571Y-54682228D01*
X40678571Y-54682228D02*
X40821429Y-54610800D01*
X40821429Y-54610800D02*
X40892857Y-54539371D01*
X40892857Y-54539371D02*
X40964286Y-54396514D01*
X40964286Y-54396514D02*
X41035714Y-54110800D01*
X41035714Y-54110800D02*
X41035714Y-53753657D01*
X41035714Y-53753657D02*
X40964286Y-53467942D01*
X40964286Y-53467942D02*
X40892857Y-53325085D01*
X40892857Y-53325085D02*
X40821429Y-53253657D01*
X40821429Y-53253657D02*
X40678571Y-53182228D01*
X39678572Y-55253657D02*
X39607143Y-55182228D01*
X39607143Y-55182228D02*
X39464286Y-54967942D01*
X39464286Y-54967942D02*
X39392858Y-54825085D01*
X39392858Y-54825085D02*
X39321429Y-54610800D01*
X39321429Y-54610800D02*
X39250000Y-54253657D01*
X39250000Y-54253657D02*
X39250000Y-53967942D01*
X39250000Y-53967942D02*
X39321429Y-53610800D01*
X39321429Y-53610800D02*
X39392858Y-53396514D01*
X39392858Y-53396514D02*
X39464286Y-53253657D01*
X39464286Y-53253657D02*
X39607143Y-53039371D01*
X39607143Y-53039371D02*
X39678572Y-52967942D01*
X213499999Y-82182228D02*
X213499999Y-80682228D01*
X213499999Y-80682228D02*
X213142856Y-80682228D01*
X213142856Y-80682228D02*
X212928570Y-80753657D01*
X212928570Y-80753657D02*
X212785713Y-80896514D01*
X212785713Y-80896514D02*
X212714284Y-81039371D01*
X212714284Y-81039371D02*
X212642856Y-81325085D01*
X212642856Y-81325085D02*
X212642856Y-81539371D01*
X212642856Y-81539371D02*
X212714284Y-81825085D01*
X212714284Y-81825085D02*
X212785713Y-81967942D01*
X212785713Y-81967942D02*
X212928570Y-82110800D01*
X212928570Y-82110800D02*
X213142856Y-82182228D01*
X213142856Y-82182228D02*
X213499999Y-82182228D01*
X211428570Y-82110800D02*
X211571427Y-82182228D01*
X211571427Y-82182228D02*
X211857142Y-82182228D01*
X211857142Y-82182228D02*
X211999999Y-82110800D01*
X211999999Y-82110800D02*
X212071427Y-81967942D01*
X212071427Y-81967942D02*
X212071427Y-81396514D01*
X212071427Y-81396514D02*
X211999999Y-81253657D01*
X211999999Y-81253657D02*
X211857142Y-81182228D01*
X211857142Y-81182228D02*
X211571427Y-81182228D01*
X211571427Y-81182228D02*
X211428570Y-81253657D01*
X211428570Y-81253657D02*
X211357142Y-81396514D01*
X211357142Y-81396514D02*
X211357142Y-81539371D01*
X211357142Y-81539371D02*
X212071427Y-81682228D01*
X210785713Y-82110800D02*
X210642856Y-82182228D01*
X210642856Y-82182228D02*
X210357142Y-82182228D01*
X210357142Y-82182228D02*
X210214285Y-82110800D01*
X210214285Y-82110800D02*
X210142856Y-81967942D01*
X210142856Y-81967942D02*
X210142856Y-81896514D01*
X210142856Y-81896514D02*
X210214285Y-81753657D01*
X210214285Y-81753657D02*
X210357142Y-81682228D01*
X210357142Y-81682228D02*
X210571428Y-81682228D01*
X210571428Y-81682228D02*
X210714285Y-81610800D01*
X210714285Y-81610800D02*
X210785713Y-81467942D01*
X210785713Y-81467942D02*
X210785713Y-81396514D01*
X210785713Y-81396514D02*
X210714285Y-81253657D01*
X210714285Y-81253657D02*
X210571428Y-81182228D01*
X210571428Y-81182228D02*
X210357142Y-81182228D01*
X210357142Y-81182228D02*
X210214285Y-81253657D01*
X209499999Y-82182228D02*
X209499999Y-81182228D01*
X209499999Y-80682228D02*
X209571427Y-80753657D01*
X209571427Y-80753657D02*
X209499999Y-80825085D01*
X209499999Y-80825085D02*
X209428570Y-80753657D01*
X209428570Y-80753657D02*
X209499999Y-80682228D01*
X209499999Y-80682228D02*
X209499999Y-80825085D01*
X208142856Y-81182228D02*
X208142856Y-82396514D01*
X208142856Y-82396514D02*
X208214284Y-82539371D01*
X208214284Y-82539371D02*
X208285713Y-82610800D01*
X208285713Y-82610800D02*
X208428570Y-82682228D01*
X208428570Y-82682228D02*
X208642856Y-82682228D01*
X208642856Y-82682228D02*
X208785713Y-82610800D01*
X208142856Y-82110800D02*
X208285713Y-82182228D01*
X208285713Y-82182228D02*
X208571427Y-82182228D01*
X208571427Y-82182228D02*
X208714284Y-82110800D01*
X208714284Y-82110800D02*
X208785713Y-82039371D01*
X208785713Y-82039371D02*
X208857141Y-81896514D01*
X208857141Y-81896514D02*
X208857141Y-81467942D01*
X208857141Y-81467942D02*
X208785713Y-81325085D01*
X208785713Y-81325085D02*
X208714284Y-81253657D01*
X208714284Y-81253657D02*
X208571427Y-81182228D01*
X208571427Y-81182228D02*
X208285713Y-81182228D01*
X208285713Y-81182228D02*
X208142856Y-81253657D01*
X207428570Y-81182228D02*
X207428570Y-82182228D01*
X207428570Y-81325085D02*
X207357141Y-81253657D01*
X207357141Y-81253657D02*
X207214284Y-81182228D01*
X207214284Y-81182228D02*
X206999998Y-81182228D01*
X206999998Y-81182228D02*
X206857141Y-81253657D01*
X206857141Y-81253657D02*
X206785713Y-81396514D01*
X206785713Y-81396514D02*
X206785713Y-82182228D01*
X205499998Y-82110800D02*
X205642855Y-82182228D01*
X205642855Y-82182228D02*
X205928570Y-82182228D01*
X205928570Y-82182228D02*
X206071427Y-82110800D01*
X206071427Y-82110800D02*
X206142855Y-81967942D01*
X206142855Y-81967942D02*
X206142855Y-81396514D01*
X206142855Y-81396514D02*
X206071427Y-81253657D01*
X206071427Y-81253657D02*
X205928570Y-81182228D01*
X205928570Y-81182228D02*
X205642855Y-81182228D01*
X205642855Y-81182228D02*
X205499998Y-81253657D01*
X205499998Y-81253657D02*
X205428570Y-81396514D01*
X205428570Y-81396514D02*
X205428570Y-81539371D01*
X205428570Y-81539371D02*
X206142855Y-81682228D01*
X204142856Y-82182228D02*
X204142856Y-80682228D01*
X204142856Y-82110800D02*
X204285713Y-82182228D01*
X204285713Y-82182228D02*
X204571427Y-82182228D01*
X204571427Y-82182228D02*
X204714284Y-82110800D01*
X204714284Y-82110800D02*
X204785713Y-82039371D01*
X204785713Y-82039371D02*
X204857141Y-81896514D01*
X204857141Y-81896514D02*
X204857141Y-81467942D01*
X204857141Y-81467942D02*
X204785713Y-81325085D01*
X204785713Y-81325085D02*
X204714284Y-81253657D01*
X204714284Y-81253657D02*
X204571427Y-81182228D01*
X204571427Y-81182228D02*
X204285713Y-81182228D01*
X204285713Y-81182228D02*
X204142856Y-81253657D01*
X202285713Y-82182228D02*
X202285713Y-80682228D01*
X202285713Y-81253657D02*
X202142856Y-81182228D01*
X202142856Y-81182228D02*
X201857141Y-81182228D01*
X201857141Y-81182228D02*
X201714284Y-81253657D01*
X201714284Y-81253657D02*
X201642856Y-81325085D01*
X201642856Y-81325085D02*
X201571427Y-81467942D01*
X201571427Y-81467942D02*
X201571427Y-81896514D01*
X201571427Y-81896514D02*
X201642856Y-82039371D01*
X201642856Y-82039371D02*
X201714284Y-82110800D01*
X201714284Y-82110800D02*
X201857141Y-82182228D01*
X201857141Y-82182228D02*
X202142856Y-82182228D01*
X202142856Y-82182228D02*
X202285713Y-82110800D01*
X201071427Y-81182228D02*
X200714284Y-82182228D01*
X200357141Y-81182228D02*
X200714284Y-82182228D01*
X200714284Y-82182228D02*
X200857141Y-82539371D01*
X200857141Y-82539371D02*
X200928570Y-82610800D01*
X200928570Y-82610800D02*
X201071427Y-82682228D01*
X198857141Y-81182228D02*
X198285713Y-81182228D01*
X198642856Y-80682228D02*
X198642856Y-81967942D01*
X198642856Y-81967942D02*
X198571427Y-82110800D01*
X198571427Y-82110800D02*
X198428570Y-82182228D01*
X198428570Y-82182228D02*
X198285713Y-82182228D01*
X197571427Y-82182228D02*
X197714284Y-82110800D01*
X197714284Y-82110800D02*
X197785713Y-82039371D01*
X197785713Y-82039371D02*
X197857141Y-81896514D01*
X197857141Y-81896514D02*
X197857141Y-81467942D01*
X197857141Y-81467942D02*
X197785713Y-81325085D01*
X197785713Y-81325085D02*
X197714284Y-81253657D01*
X197714284Y-81253657D02*
X197571427Y-81182228D01*
X197571427Y-81182228D02*
X197357141Y-81182228D01*
X197357141Y-81182228D02*
X197214284Y-81253657D01*
X197214284Y-81253657D02*
X197142856Y-81325085D01*
X197142856Y-81325085D02*
X197071427Y-81467942D01*
X197071427Y-81467942D02*
X197071427Y-81896514D01*
X197071427Y-81896514D02*
X197142856Y-82039371D01*
X197142856Y-82039371D02*
X197214284Y-82110800D01*
X197214284Y-82110800D02*
X197357141Y-82182228D01*
X197357141Y-82182228D02*
X197571427Y-82182228D01*
X196428570Y-82182228D02*
X196428570Y-81182228D01*
X196428570Y-81325085D02*
X196357141Y-81253657D01*
X196357141Y-81253657D02*
X196214284Y-81182228D01*
X196214284Y-81182228D02*
X195999998Y-81182228D01*
X195999998Y-81182228D02*
X195857141Y-81253657D01*
X195857141Y-81253657D02*
X195785713Y-81396514D01*
X195785713Y-81396514D02*
X195785713Y-82182228D01*
X195785713Y-81396514D02*
X195714284Y-81253657D01*
X195714284Y-81253657D02*
X195571427Y-81182228D01*
X195571427Y-81182228D02*
X195357141Y-81182228D01*
X195357141Y-81182228D02*
X195214284Y-81253657D01*
X195214284Y-81253657D02*
X195142855Y-81396514D01*
X195142855Y-81396514D02*
X195142855Y-82182228D01*
X194428570Y-82182228D02*
X194428570Y-81182228D01*
X194428570Y-81325085D02*
X194357141Y-81253657D01*
X194357141Y-81253657D02*
X194214284Y-81182228D01*
X194214284Y-81182228D02*
X193999998Y-81182228D01*
X193999998Y-81182228D02*
X193857141Y-81253657D01*
X193857141Y-81253657D02*
X193785713Y-81396514D01*
X193785713Y-81396514D02*
X193785713Y-82182228D01*
X193785713Y-81396514D02*
X193714284Y-81253657D01*
X193714284Y-81253657D02*
X193571427Y-81182228D01*
X193571427Y-81182228D02*
X193357141Y-81182228D01*
X193357141Y-81182228D02*
X193214284Y-81253657D01*
X193214284Y-81253657D02*
X193142855Y-81396514D01*
X193142855Y-81396514D02*
X193142855Y-82182228D01*
X192571427Y-81182228D02*
X192214284Y-82182228D01*
X191857141Y-81182228D02*
X192214284Y-82182228D01*
X192214284Y-82182228D02*
X192357141Y-82539371D01*
X192357141Y-82539371D02*
X192428570Y-82610800D01*
X192428570Y-82610800D02*
X192571427Y-82682228D01*
X191357141Y-82110800D02*
X191214284Y-82182228D01*
X191214284Y-82182228D02*
X190928570Y-82182228D01*
X190928570Y-82182228D02*
X190785713Y-82110800D01*
X190785713Y-82110800D02*
X190714284Y-81967942D01*
X190714284Y-81967942D02*
X190714284Y-81896514D01*
X190714284Y-81896514D02*
X190785713Y-81753657D01*
X190785713Y-81753657D02*
X190928570Y-81682228D01*
X190928570Y-81682228D02*
X191142856Y-81682228D01*
X191142856Y-81682228D02*
X191285713Y-81610800D01*
X191285713Y-81610800D02*
X191357141Y-81467942D01*
X191357141Y-81467942D02*
X191357141Y-81396514D01*
X191357141Y-81396514D02*
X191285713Y-81253657D01*
X191285713Y-81253657D02*
X191142856Y-81182228D01*
X191142856Y-81182228D02*
X190928570Y-81182228D01*
X190928570Y-81182228D02*
X190785713Y-81253657D01*
X189785712Y-80682228D02*
X189642855Y-80682228D01*
X189642855Y-80682228D02*
X189499998Y-80753657D01*
X189499998Y-80753657D02*
X189428570Y-80825085D01*
X189428570Y-80825085D02*
X189357141Y-80967942D01*
X189357141Y-80967942D02*
X189285712Y-81253657D01*
X189285712Y-81253657D02*
X189285712Y-81610800D01*
X189285712Y-81610800D02*
X189357141Y-81896514D01*
X189357141Y-81896514D02*
X189428570Y-82039371D01*
X189428570Y-82039371D02*
X189499998Y-82110800D01*
X189499998Y-82110800D02*
X189642855Y-82182228D01*
X189642855Y-82182228D02*
X189785712Y-82182228D01*
X189785712Y-82182228D02*
X189928570Y-82110800D01*
X189928570Y-82110800D02*
X189999998Y-82039371D01*
X189999998Y-82039371D02*
X190071427Y-81896514D01*
X190071427Y-81896514D02*
X190142855Y-81610800D01*
X190142855Y-81610800D02*
X190142855Y-81253657D01*
X190142855Y-81253657D02*
X190071427Y-80967942D01*
X190071427Y-80967942D02*
X189999998Y-80825085D01*
X189999998Y-80825085D02*
X189928570Y-80753657D01*
X189928570Y-80753657D02*
X189785712Y-80682228D01*
X188785713Y-80682228D02*
X187785713Y-80682228D01*
X187785713Y-80682228D02*
X188428570Y-82182228D01*
X187142856Y-82182228D02*
X186857142Y-82182228D01*
X186857142Y-82182228D02*
X186714285Y-82110800D01*
X186714285Y-82110800D02*
X186642856Y-82039371D01*
X186642856Y-82039371D02*
X186499999Y-81825085D01*
X186499999Y-81825085D02*
X186428570Y-81539371D01*
X186428570Y-81539371D02*
X186428570Y-80967942D01*
X186428570Y-80967942D02*
X186499999Y-80825085D01*
X186499999Y-80825085D02*
X186571428Y-80753657D01*
X186571428Y-80753657D02*
X186714285Y-80682228D01*
X186714285Y-80682228D02*
X186999999Y-80682228D01*
X186999999Y-80682228D02*
X187142856Y-80753657D01*
X187142856Y-80753657D02*
X187214285Y-80825085D01*
X187214285Y-80825085D02*
X187285713Y-80967942D01*
X187285713Y-80967942D02*
X187285713Y-81325085D01*
X187285713Y-81325085D02*
X187214285Y-81467942D01*
X187214285Y-81467942D02*
X187142856Y-81539371D01*
X187142856Y-81539371D02*
X186999999Y-81610800D01*
X186999999Y-81610800D02*
X186714285Y-81610800D01*
X186714285Y-81610800D02*
X186571428Y-81539371D01*
X186571428Y-81539371D02*
X186499999Y-81467942D01*
X186499999Y-81467942D02*
X186428570Y-81325085D01*
D14*
X206499999Y-78007314D02*
X205071428Y-78007314D01*
X206785713Y-78864457D02*
X205785713Y-75864457D01*
X205785713Y-75864457D02*
X204785713Y-78864457D01*
X203928570Y-78721600D02*
X203642856Y-78864457D01*
X203642856Y-78864457D02*
X203071427Y-78864457D01*
X203071427Y-78864457D02*
X202785713Y-78721600D01*
X202785713Y-78721600D02*
X202642856Y-78435885D01*
X202642856Y-78435885D02*
X202642856Y-78293028D01*
X202642856Y-78293028D02*
X202785713Y-78007314D01*
X202785713Y-78007314D02*
X203071427Y-77864457D01*
X203071427Y-77864457D02*
X203499999Y-77864457D01*
X203499999Y-77864457D02*
X203785713Y-77721600D01*
X203785713Y-77721600D02*
X203928570Y-77435885D01*
X203928570Y-77435885D02*
X203928570Y-77293028D01*
X203928570Y-77293028D02*
X203785713Y-77007314D01*
X203785713Y-77007314D02*
X203499999Y-76864457D01*
X203499999Y-76864457D02*
X203071427Y-76864457D01*
X203071427Y-76864457D02*
X202785713Y-77007314D01*
X201357142Y-78864457D02*
X201357142Y-75864457D01*
X200071428Y-78864457D02*
X200071428Y-77293028D01*
X200071428Y-77293028D02*
X200214285Y-77007314D01*
X200214285Y-77007314D02*
X200499999Y-76864457D01*
X200499999Y-76864457D02*
X200928570Y-76864457D01*
X200928570Y-76864457D02*
X201214285Y-77007314D01*
X201214285Y-77007314D02*
X201357142Y-77150171D01*
X198642856Y-78864457D02*
X198642856Y-76864457D01*
X198642856Y-75864457D02*
X198785713Y-76007314D01*
X198785713Y-76007314D02*
X198642856Y-76150171D01*
X198642856Y-76150171D02*
X198499999Y-76007314D01*
X198499999Y-76007314D02*
X198642856Y-75864457D01*
X198642856Y-75864457D02*
X198642856Y-76150171D01*
X197499999Y-76864457D02*
X196785713Y-78864457D01*
X196071428Y-76864457D02*
X196785713Y-78864457D01*
X196785713Y-78864457D02*
X197071428Y-79578742D01*
X197071428Y-79578742D02*
X197214285Y-79721600D01*
X197214285Y-79721600D02*
X197499999Y-79864457D01*
X193642857Y-76864457D02*
X193642857Y-78864457D01*
X194928571Y-76864457D02*
X194928571Y-78435885D01*
X194928571Y-78435885D02*
X194785714Y-78721600D01*
X194785714Y-78721600D02*
X194499999Y-78864457D01*
X194499999Y-78864457D02*
X194071428Y-78864457D01*
X194071428Y-78864457D02*
X193785714Y-78721600D01*
X193785714Y-78721600D02*
X193642857Y-78578742D01*
%LPC*%
D15*
%TO.C,H4*%
X240000000Y-4000000D03*
%TD*%
D16*
%TO.C,J1*%
X122890000Y-6850000D03*
X117110000Y-6850000D03*
D17*
X124320000Y-7380000D03*
D18*
X124320000Y-3200000D03*
D17*
X115680000Y-7380000D03*
D18*
X115680000Y-3200000D03*
%TD*%
D15*
%TO.C,H9*%
X138500000Y-100500000D03*
%TD*%
%TO.C,H5*%
X60500000Y-98000000D03*
%TD*%
%TO.C,H1*%
X40000000Y-5000000D03*
%TD*%
%TO.C,H8*%
X156500000Y-82500000D03*
%TD*%
%TO.C,H7*%
X120500000Y-82500000D03*
%TD*%
%TO.C,H2*%
X100000000Y-5000000D03*
%TD*%
D19*
%TO.C,SW102*%
X156500000Y-2870000D03*
X153500000Y-2870000D03*
%TD*%
D15*
%TO.C,H3*%
X165000000Y-4000000D03*
%TD*%
%TO.C,H6*%
X215000000Y-102800000D03*
%TD*%
%LPD*%
M02*
