%TF.GenerationSoftware,KiCad,Pcbnew,9.0.9*%
%TF.CreationDate,2026-10-10T22:01:01+00:00*%
%TF.ProjectId,tomtho_mk2,746f6d74-686f-45f6-9d6b-322e6b696361,mk2-0.1*%
%TF.SameCoordinates,Original*%
%TF.FileFunction,Paste,Top*%
%TF.FilePolarity,Positive*%
%FSLAX46Y46*%
G04 Gerber Fmt 4.6, Leading zero omitted, Abs format (unit mm)*
G04 Created by KiCad (PCBNEW 9.0.9) date 2026-10-10 22:01:01*
%MOMM*%
%LPD*%
G01*
G04 APERTURE LIST*
G04 Aperture macros list*
%AMRoundRect*
0 Rectangle with rounded corners*
0 $1 Rounding radius*
0 $2 $3 $4 $5 $6 $7 $8 $9 X,Y pos of 4 corners*
0 Add a 4 corners polygon primitive as box body*
4,1,4,$2,$3,$4,$5,$6,$7,$8,$9,$2,$3,0*
0 Add four circle primitives for the rounded corners*
1,1,$1+$1,$2,$3*
1,1,$1+$1,$4,$5*
1,1,$1+$1,$6,$7*
1,1,$1+$1,$8,$9*
0 Add four rect primitives between the rounded corners*
20,1,$1+$1,$2,$3,$4,$5,0*
20,1,$1+$1,$4,$5,$6,$7,0*
20,1,$1+$1,$6,$7,$8,$9,0*
20,1,$1+$1,$8,$9,$2,$3,0*%
%AMRotRect*
0 Rectangle, with rotation*
0 The origin of the aperture is its center*
0 $1 length*
0 $2 width*
0 $3 Rotation angle, in degrees counterclockwise*
0 Add horizontal line*
21,1,$1,$2,0,0,$3*%
G04 Aperture macros list end*
%ADD10R,0.900000X1.200000*%
%ADD11R,1.000000X0.500000*%
%ADD12R,2.750000X1.000000*%
%ADD13RotRect,0.900000X1.200000X175.500000*%
%ADD14RotRect,0.900000X1.200000X170.000000*%
%ADD15R,0.600000X0.600000*%
%ADD16RoundRect,0.200000X-0.200000X-0.275000X0.200000X-0.275000X0.200000X0.275000X-0.200000X0.275000X0*%
%ADD17RotRect,0.900000X1.200000X190.000000*%
%ADD18R,0.600000X0.400000*%
%ADD19R,0.400000X0.600000*%
%ADD20RoundRect,0.200000X0.275000X-0.200000X0.275000X0.200000X-0.275000X0.200000X-0.275000X-0.200000X0*%
%ADD21R,0.600000X1.450000*%
%ADD22R,0.300000X1.450000*%
%ADD23RoundRect,0.225000X0.250000X-0.225000X0.250000X0.225000X-0.250000X0.225000X-0.250000X-0.225000X0*%
%ADD24RotRect,2.750000X1.000000X10.000000*%
%ADD25RotRect,2.750000X1.000000X350.000000*%
%ADD26C,1.000000*%
%ADD27RoundRect,0.218750X0.256250X-0.218750X0.256250X0.218750X-0.256250X0.218750X-0.256250X-0.218750X0*%
%ADD28RoundRect,0.150000X-0.512500X-0.150000X0.512500X-0.150000X0.512500X0.150000X-0.512500X0.150000X0*%
%ADD29R,0.650000X0.300000*%
%ADD30R,1.150000X0.300000*%
%ADD31RotRect,2.750000X1.000000X355.500000*%
%ADD32R,1.200000X0.900000*%
%ADD33RotRect,2.750000X1.000000X4.500000*%
%ADD34R,0.700000X1.500000*%
%ADD35R,1.000000X0.800000*%
%ADD36R,0.900000X0.800000*%
%ADD37RoundRect,0.150000X0.625000X-0.150000X0.625000X0.150000X-0.625000X0.150000X-0.625000X-0.150000X0*%
%ADD38RoundRect,0.300000X0.600000X-0.300000X0.600000X0.300000X-0.600000X0.300000X-0.600000X-0.300000X0*%
%ADD39RotRect,0.900000X1.200000X184.500000*%
G04 APERTURE END LIST*
D10*
%TO.C,D1*%
X12900000Y-28564000D03*
X9600000Y-28564000D03*
%TD*%
D11*
%TO.C,LED5*%
X267950000Y-6100000D03*
X270050000Y-6100000D03*
X267950000Y-6900000D03*
X270050000Y-6900000D03*
%TD*%
D12*
%TO.C,SW45*%
X207375000Y-67248000D03*
X213125000Y-67248000D03*
X207375000Y-71248000D03*
X213125000Y-71248000D03*
%TD*%
D10*
%TO.C,D65*%
X154025000Y-79312000D03*
X150725000Y-79312000D03*
%TD*%
D12*
%TO.C,SW34*%
X225875000Y-52569000D03*
X231625000Y-52569000D03*
X225875000Y-56569000D03*
X231625000Y-56569000D03*
%TD*%
D10*
%TO.C,D41*%
X86900000Y-76030000D03*
X83600000Y-76030000D03*
%TD*%
%TO.C,D27*%
X49900000Y-59569000D03*
X46600000Y-59569000D03*
%TD*%
D12*
%TO.C,SW49*%
X8375000Y-93564000D03*
X14125000Y-93564000D03*
X8375000Y-97564000D03*
X14125000Y-97564000D03*
%TD*%
D13*
%TO.C,D53*%
X105408614Y-97582058D03*
X102118786Y-97323142D03*
%TD*%
D10*
%TO.C,D34*%
X230400000Y-59569000D03*
X227100000Y-59569000D03*
%TD*%
D14*
%TO.C,D54*%
X127575733Y-100306519D03*
X124325867Y-99733481D03*
%TD*%
D11*
%TO.C,LED2*%
X14200000Y-6100000D03*
X16300000Y-6100000D03*
X14200000Y-6900000D03*
X16300000Y-6900000D03*
%TD*%
D15*
%TO.C,SW101*%
X136650000Y-19000000D03*
X139750000Y-19000000D03*
X136650000Y-20200000D03*
X139750000Y-20200000D03*
%TD*%
D10*
%TO.C,D4*%
X68400000Y-20248000D03*
X65100000Y-20248000D03*
%TD*%
D12*
%TO.C,SW47*%
X244375000Y-75564000D03*
X250125000Y-75564000D03*
X244375000Y-79564000D03*
X250125000Y-79564000D03*
%TD*%
D10*
%TO.C,D23*%
X248900000Y-46564000D03*
X245600000Y-46564000D03*
%TD*%
D16*
%TO.C,R7*%
X18925000Y-9100000D03*
X20575000Y-9100000D03*
%TD*%
D12*
%TO.C,SW5*%
X82375000Y-15030000D03*
X88125000Y-15030000D03*
X82375000Y-19030000D03*
X88125000Y-19030000D03*
%TD*%
D17*
%TO.C,D55*%
X152674133Y-99733481D03*
X149424267Y-100306519D03*
%TD*%
D12*
%TO.C,SW17*%
X82375000Y-33030000D03*
X88125000Y-33030000D03*
X82375000Y-37030000D03*
X88125000Y-37030000D03*
%TD*%
%TO.C,SW3*%
X45375000Y-16569000D03*
X51125000Y-16569000D03*
X45375000Y-20569000D03*
X51125000Y-20569000D03*
%TD*%
%TO.C,SW4*%
X63875000Y-13248000D03*
X69625000Y-13248000D03*
X63875000Y-17248000D03*
X69625000Y-17248000D03*
%TD*%
D10*
%TO.C,D63*%
X126275000Y-79312000D03*
X122975000Y-79312000D03*
%TD*%
D12*
%TO.C,SW29*%
X82375000Y-51030000D03*
X88125000Y-51030000D03*
X82375000Y-55030000D03*
X88125000Y-55030000D03*
%TD*%
D18*
%TO.C,U1*%
X133550000Y-4900000D03*
X133550000Y-6000000D03*
X133550000Y-6800000D03*
X133550000Y-8400000D03*
X134450000Y-8800000D03*
X133550000Y-9200000D03*
X134450000Y-9600000D03*
X133550000Y-10000000D03*
X134450000Y-10400000D03*
X133550000Y-10800000D03*
X134450000Y-11200000D03*
X133550000Y-11600000D03*
X134450000Y-12000000D03*
X133550000Y-12400000D03*
D19*
X133400000Y-15800000D03*
X134200000Y-15800000D03*
X135000000Y-15800000D03*
X135800000Y-15800000D03*
X136200000Y-14900000D03*
X136600000Y-15800000D03*
X137000000Y-14900000D03*
X137400000Y-15800000D03*
X137800000Y-14900000D03*
X138200000Y-15800000D03*
X138600000Y-14900000D03*
X139000000Y-15800000D03*
X139400000Y-14900000D03*
X139800000Y-15800000D03*
X140200000Y-14900000D03*
X140600000Y-15800000D03*
X141400000Y-15800000D03*
X142200000Y-15800000D03*
X143000000Y-15800000D03*
D18*
X142850000Y-14800000D03*
X142850000Y-14000000D03*
X141950000Y-13600000D03*
X142850000Y-13200000D03*
X141950000Y-12800000D03*
X142850000Y-12400000D03*
X141950000Y-12000000D03*
X142850000Y-11600000D03*
X141950000Y-11200000D03*
X141950000Y-10400000D03*
X142850000Y-10000000D03*
X141950000Y-9600000D03*
X142850000Y-9200000D03*
X141950000Y-8800000D03*
X142850000Y-8400000D03*
X141950000Y-8000000D03*
X141950000Y-7200000D03*
X142850000Y-6800000D03*
X141950000Y-6400000D03*
X142850000Y-6000000D03*
X141950000Y-5600000D03*
X142850000Y-4900000D03*
D19*
X136200000Y-9200000D03*
X137000000Y-9200000D03*
X137800000Y-9200000D03*
X138600000Y-9200000D03*
X139400000Y-9200000D03*
X140200000Y-9200000D03*
%TD*%
D20*
%TO.C,R4*%
X263000000Y-10825000D03*
X263000000Y-9175000D03*
%TD*%
D10*
%TO.C,D64*%
X140150000Y-79312000D03*
X136850000Y-79312000D03*
%TD*%
D12*
%TO.C,SW27*%
X45375000Y-52569000D03*
X51125000Y-52569000D03*
X45375000Y-56569000D03*
X51125000Y-56569000D03*
%TD*%
D10*
%TO.C,D22*%
X230400000Y-41569000D03*
X227100000Y-41569000D03*
%TD*%
D20*
%TO.C,R11*%
X113900000Y-51737000D03*
X113900000Y-50087000D03*
%TD*%
D12*
%TO.C,SW24*%
X262875000Y-39564000D03*
X268625000Y-39564000D03*
X262875000Y-43564000D03*
X268625000Y-43564000D03*
%TD*%
%TO.C,SW26*%
X26875000Y-57564000D03*
X32625000Y-57564000D03*
X26875000Y-61564000D03*
X32625000Y-61564000D03*
%TD*%
%TO.C,SW14*%
X26875000Y-39564000D03*
X32625000Y-39564000D03*
X26875000Y-43564000D03*
X32625000Y-43564000D03*
%TD*%
D10*
%TO.C,D28*%
X68400000Y-56248000D03*
X65100000Y-56248000D03*
%TD*%
%TO.C,D36*%
X267400000Y-64564000D03*
X264100000Y-64564000D03*
%TD*%
%TO.C,D50*%
X37350000Y-91064000D03*
X40650000Y-91064000D03*
%TD*%
%TO.C,D19*%
X174900000Y-41812000D03*
X171600000Y-41812000D03*
%TD*%
%TO.C,D12*%
X267400000Y-28564000D03*
X264100000Y-28564000D03*
%TD*%
D21*
%TO.C,J1*%
X123250000Y-8295000D03*
X122450000Y-8295000D03*
D22*
X121250000Y-8295000D03*
X120250000Y-8295000D03*
X119750000Y-8295000D03*
X118750000Y-8295000D03*
D21*
X117550000Y-8295000D03*
X116750000Y-8295000D03*
X116750000Y-8295000D03*
X117550000Y-8295000D03*
D22*
X118250000Y-8295000D03*
X119250000Y-8295000D03*
X120750000Y-8295000D03*
X121750000Y-8295000D03*
D21*
X122450000Y-8295000D03*
X123250000Y-8295000D03*
%TD*%
D10*
%TO.C,D48*%
X267400000Y-82564000D03*
X264100000Y-82564000D03*
%TD*%
D12*
%TO.C,SW22*%
X225875000Y-34569000D03*
X231625000Y-34569000D03*
X225875000Y-38569000D03*
X231625000Y-38569000D03*
%TD*%
%TO.C,SW39*%
X45375000Y-70569000D03*
X51125000Y-70569000D03*
X45375000Y-74569000D03*
X51125000Y-74569000D03*
%TD*%
D10*
%TO.C,D17*%
X86900000Y-40030000D03*
X83600000Y-40030000D03*
%TD*%
D12*
%TO.C,SW15*%
X45375000Y-34569000D03*
X51125000Y-34569000D03*
X45375000Y-38569000D03*
X51125000Y-38569000D03*
%TD*%
D23*
%TO.C,C6*%
X116000000Y-17775000D03*
X116000000Y-16225000D03*
%TD*%
D12*
%TO.C,SW58*%
X225875000Y-93564000D03*
X231625000Y-93564000D03*
X225875000Y-97564000D03*
X231625000Y-97564000D03*
%TD*%
D10*
%TO.C,D38*%
X31400000Y-82564000D03*
X28100000Y-82564000D03*
%TD*%
%TO.C,D3*%
X49900000Y-23569000D03*
X46600000Y-23569000D03*
%TD*%
%TO.C,D47*%
X248900000Y-82564000D03*
X245600000Y-82564000D03*
%TD*%
%TO.C,D49*%
X12900000Y-100564000D03*
X9600000Y-100564000D03*
%TD*%
%TO.C,D16*%
X68400000Y-38248000D03*
X65100000Y-38248000D03*
%TD*%
%TO.C,D60*%
X267400000Y-100564000D03*
X264100000Y-100564000D03*
%TD*%
D12*
%TO.C,SW59*%
X244375000Y-89064000D03*
X250125000Y-89064000D03*
X244375000Y-93064000D03*
X250125000Y-93064000D03*
%TD*%
%TO.C,SW23*%
X244375000Y-39564000D03*
X250125000Y-39564000D03*
X244375000Y-43564000D03*
X250125000Y-43564000D03*
%TD*%
D23*
%TO.C,C5*%
X147400000Y-9775000D03*
X147400000Y-8225000D03*
%TD*%
D10*
%TO.C,D13*%
X12900000Y-46564000D03*
X9600000Y-46564000D03*
%TD*%
D12*
%TO.C,SW42*%
X100875000Y-70812000D03*
X106625000Y-70812000D03*
X100875000Y-74812000D03*
X106625000Y-74812000D03*
%TD*%
D16*
%TO.C,R5*%
X128175000Y-21500000D03*
X129825000Y-21500000D03*
%TD*%
D12*
%TO.C,SW50*%
X26875000Y-89064000D03*
X32625000Y-89064000D03*
X26875000Y-93064000D03*
X32625000Y-93064000D03*
%TD*%
D10*
%TO.C,D10*%
X230400000Y-23569000D03*
X227100000Y-23569000D03*
%TD*%
D12*
%TO.C,SW1*%
X8375000Y-21564000D03*
X14125000Y-21564000D03*
X8375000Y-25564000D03*
X14125000Y-25564000D03*
%TD*%
D24*
%TO.C,SW55*%
X147002381Y-93625623D03*
X152665026Y-92627146D03*
X147696974Y-97564854D03*
X153359619Y-96566377D03*
%TD*%
D10*
%TO.C,D35*%
X248900000Y-64564000D03*
X245600000Y-64564000D03*
%TD*%
%TO.C,D45*%
X211900000Y-74248000D03*
X208600000Y-74248000D03*
%TD*%
%TO.C,D66*%
X236350000Y-100064000D03*
X239650000Y-100064000D03*
%TD*%
D25*
%TO.C,SW54*%
X124334974Y-92627146D03*
X129997619Y-93625623D03*
X123640381Y-96566377D03*
X129303026Y-97564854D03*
%TD*%
D12*
%TO.C,SW12*%
X262875000Y-21564000D03*
X268625000Y-21564000D03*
X262875000Y-25564000D03*
X268625000Y-25564000D03*
%TD*%
D10*
%TO.C,D33*%
X211900000Y-56248000D03*
X208600000Y-56248000D03*
%TD*%
D12*
%TO.C,SW65*%
X149500000Y-72312000D03*
X155250000Y-72312000D03*
X149500000Y-76312000D03*
X155250000Y-76312000D03*
%TD*%
D10*
%TO.C,D18*%
X105400000Y-41812000D03*
X102100000Y-41812000D03*
%TD*%
D12*
%TO.C,SW44*%
X188875000Y-69030000D03*
X194625000Y-69030000D03*
X188875000Y-73030000D03*
X194625000Y-73030000D03*
%TD*%
D10*
%TO.C,D39*%
X49900000Y-77569000D03*
X46600000Y-77569000D03*
%TD*%
%TO.C,D29*%
X86900000Y-58030000D03*
X83600000Y-58030000D03*
%TD*%
%TO.C,D52*%
X83144000Y-96640000D03*
X79844000Y-96640000D03*
%TD*%
D12*
%TO.C,SW38*%
X26875000Y-75564000D03*
X32625000Y-75564000D03*
X26875000Y-79564000D03*
X32625000Y-79564000D03*
%TD*%
%TO.C,SW46*%
X225875000Y-70569000D03*
X231625000Y-70569000D03*
X225875000Y-74569000D03*
X231625000Y-74569000D03*
%TD*%
D20*
%TO.C,R2*%
X124000000Y-12825000D03*
X124000000Y-11175000D03*
%TD*%
D26*
%TO.C,TP3*%
X139470000Y-24000000D03*
%TD*%
D12*
%TO.C,SW11*%
X244375000Y-21564000D03*
X250125000Y-21564000D03*
X244375000Y-25564000D03*
X250125000Y-25564000D03*
%TD*%
%TO.C,SW30*%
X100875000Y-52812000D03*
X106625000Y-52812000D03*
X100875000Y-56812000D03*
X106625000Y-56812000D03*
%TD*%
D10*
%TO.C,D43*%
X174900000Y-77812000D03*
X171600000Y-77812000D03*
%TD*%
D27*
%TO.C,LED1*%
X263000000Y-7287500D03*
X263000000Y-5712500D03*
%TD*%
D20*
%TO.C,R12*%
X113900000Y-59537000D03*
X113900000Y-57887000D03*
%TD*%
D10*
%TO.C,D11*%
X248900000Y-28564000D03*
X245600000Y-28564000D03*
%TD*%
D28*
%TO.C,U3*%
X118862500Y-16050000D03*
X118862500Y-17000000D03*
X118862500Y-17950000D03*
X121137500Y-17950000D03*
X121137500Y-16050000D03*
%TD*%
D29*
%TO.C,J3*%
X115610000Y-53562000D03*
X115610000Y-54062000D03*
X115610000Y-54562000D03*
X115610000Y-55062000D03*
X115610000Y-55562000D03*
X115610000Y-56062000D03*
D30*
X112790000Y-56942000D03*
X112790000Y-52682000D03*
%TD*%
D10*
%TO.C,D51*%
X49900000Y-100564000D03*
X46600000Y-100564000D03*
%TD*%
D12*
%TO.C,SW41*%
X82375000Y-69030000D03*
X88125000Y-69030000D03*
X82375000Y-73030000D03*
X88125000Y-73030000D03*
%TD*%
D31*
%TO.C,SW53*%
X101446781Y-90248595D03*
X107179056Y-90699735D03*
X101132944Y-94236265D03*
X106865219Y-94687405D03*
%TD*%
D10*
%TO.C,D31*%
X174900000Y-59812000D03*
X171600000Y-59812000D03*
%TD*%
D12*
%TO.C,SW35*%
X244375000Y-57564000D03*
X250125000Y-57564000D03*
X244375000Y-61564000D03*
X250125000Y-61564000D03*
%TD*%
%TO.C,SW51*%
X45375000Y-93564000D03*
X51125000Y-93564000D03*
X45375000Y-97564000D03*
X51125000Y-97564000D03*
%TD*%
%TO.C,SW32*%
X188875000Y-51030000D03*
X194625000Y-51030000D03*
X188875000Y-55030000D03*
X194625000Y-55030000D03*
%TD*%
D23*
%TO.C,C7*%
X124000000Y-17775000D03*
X124000000Y-16225000D03*
%TD*%
D10*
%TO.C,D2*%
X31400000Y-28564000D03*
X28100000Y-28564000D03*
%TD*%
%TO.C,D57*%
X197156000Y-96640000D03*
X193856000Y-96640000D03*
%TD*%
D12*
%TO.C,SW16*%
X63875000Y-31248000D03*
X69625000Y-31248000D03*
X63875000Y-35248000D03*
X69625000Y-35248000D03*
%TD*%
%TO.C,SW13*%
X8375000Y-39564000D03*
X14125000Y-39564000D03*
X8375000Y-43564000D03*
X14125000Y-43564000D03*
%TD*%
%TO.C,SW60*%
X262875000Y-93564000D03*
X268625000Y-93564000D03*
X262875000Y-97564000D03*
X268625000Y-97564000D03*
%TD*%
%TO.C,SW7*%
X170375000Y-16812000D03*
X176125000Y-16812000D03*
X170375000Y-20812000D03*
X176125000Y-20812000D03*
%TD*%
D10*
%TO.C,D42*%
X105400000Y-77812000D03*
X102100000Y-77812000D03*
%TD*%
D32*
%TO.C,D101*%
X129500000Y-13650000D03*
X129500000Y-10350000D03*
%TD*%
D10*
%TO.C,D44*%
X193400000Y-76030000D03*
X190100000Y-76030000D03*
%TD*%
D12*
%TO.C,SW52*%
X78619000Y-89640000D03*
X84369000Y-89640000D03*
X78619000Y-93640000D03*
X84369000Y-93640000D03*
%TD*%
D16*
%TO.C,R8*%
X23425000Y-9100000D03*
X25075000Y-9100000D03*
%TD*%
D10*
%TO.C,D20*%
X193400000Y-40030000D03*
X190100000Y-40030000D03*
%TD*%
D12*
%TO.C,SW61*%
X3750000Y-4500000D03*
X9500000Y-4500000D03*
X3750000Y-8500000D03*
X9500000Y-8500000D03*
%TD*%
%TO.C,SW64*%
X135625000Y-72312000D03*
X141375000Y-72312000D03*
X135625000Y-76312000D03*
X141375000Y-76312000D03*
%TD*%
D26*
%TO.C,TP1*%
X134390000Y-24000000D03*
%TD*%
D12*
%TO.C,SW2*%
X26875000Y-21564000D03*
X32625000Y-21564000D03*
X26875000Y-25564000D03*
X32625000Y-25564000D03*
%TD*%
%TO.C,SW9*%
X207375000Y-13248000D03*
X213125000Y-13248000D03*
X207375000Y-17248000D03*
X213125000Y-17248000D03*
%TD*%
D33*
%TO.C,SW56*%
X169820944Y-90699735D03*
X175553219Y-90248595D03*
X170134781Y-94687405D03*
X175867056Y-94236265D03*
%TD*%
D10*
%TO.C,D7*%
X174900000Y-23812000D03*
X171600000Y-23812000D03*
%TD*%
D12*
%TO.C,SW21*%
X207375000Y-31248000D03*
X213125000Y-31248000D03*
X207375000Y-35248000D03*
X213125000Y-35248000D03*
%TD*%
D16*
%TO.C,R6*%
X14425000Y-9100000D03*
X16075000Y-9100000D03*
%TD*%
D12*
%TO.C,SW20*%
X188875000Y-33030000D03*
X194625000Y-33030000D03*
X188875000Y-37030000D03*
X194625000Y-37030000D03*
%TD*%
%TO.C,SW31*%
X170375000Y-52812000D03*
X176125000Y-52812000D03*
X170375000Y-56812000D03*
X176125000Y-56812000D03*
%TD*%
D10*
%TO.C,D61*%
X8275000Y-11500000D03*
X4975000Y-11500000D03*
%TD*%
D12*
%TO.C,SW43*%
X170375000Y-70812000D03*
X176125000Y-70812000D03*
X170375000Y-74812000D03*
X176125000Y-74812000D03*
%TD*%
D23*
%TO.C,C1*%
X145600000Y-13775000D03*
X145600000Y-12225000D03*
%TD*%
D28*
%TO.C,U2*%
X118862500Y-11050000D03*
X118862500Y-12000000D03*
X118862500Y-12950000D03*
X121137500Y-12950000D03*
X121137500Y-12000000D03*
X121137500Y-11050000D03*
%TD*%
D10*
%TO.C,D6*%
X105400000Y-23812000D03*
X102100000Y-23812000D03*
%TD*%
D12*
%TO.C,SW8*%
X188875000Y-15030000D03*
X194625000Y-15030000D03*
X188875000Y-19030000D03*
X194625000Y-19030000D03*
%TD*%
D11*
%TO.C,LED3*%
X18700000Y-6100000D03*
X20800000Y-6100000D03*
X18700000Y-6900000D03*
X20800000Y-6900000D03*
%TD*%
D23*
%TO.C,C2*%
X145600000Y-5775000D03*
X145600000Y-4225000D03*
%TD*%
D10*
%TO.C,D30*%
X105400000Y-59812000D03*
X102100000Y-59812000D03*
%TD*%
D12*
%TO.C,SW48*%
X262875000Y-75564000D03*
X268625000Y-75564000D03*
X262875000Y-79564000D03*
X268625000Y-79564000D03*
%TD*%
D34*
%TO.C,SW102*%
X157250000Y-4630000D03*
X154250000Y-4630000D03*
X152750000Y-4630000D03*
D35*
X158650000Y-3980000D03*
X158650000Y-1770000D03*
X151350000Y-3980000D03*
X151350000Y-1770000D03*
%TD*%
D36*
%TO.C,Q1*%
X128000000Y-17050000D03*
X128000000Y-18950000D03*
X130000000Y-18000000D03*
%TD*%
D10*
%TO.C,D40*%
X68400000Y-74248000D03*
X65100000Y-74248000D03*
%TD*%
D26*
%TO.C,TP2*%
X136930000Y-24000000D03*
%TD*%
D12*
%TO.C,SW33*%
X207375000Y-49248000D03*
X213125000Y-49248000D03*
X207375000Y-53248000D03*
X213125000Y-53248000D03*
%TD*%
%TO.C,SW63*%
X121750000Y-72312000D03*
X127500000Y-72312000D03*
X121750000Y-76312000D03*
X127500000Y-76312000D03*
%TD*%
%TO.C,SW25*%
X8375000Y-57564000D03*
X14125000Y-57564000D03*
X8375000Y-61564000D03*
X14125000Y-61564000D03*
%TD*%
D10*
%TO.C,D9*%
X211900000Y-20248000D03*
X208600000Y-20248000D03*
%TD*%
%TO.C,D5*%
X86900000Y-22030000D03*
X83600000Y-22030000D03*
%TD*%
D11*
%TO.C,LED4*%
X23200000Y-6100000D03*
X25300000Y-6100000D03*
X23200000Y-6900000D03*
X25300000Y-6900000D03*
%TD*%
D12*
%TO.C,SW40*%
X63875000Y-67248000D03*
X69625000Y-67248000D03*
X63875000Y-71248000D03*
X69625000Y-71248000D03*
%TD*%
D10*
%TO.C,D62*%
X37350000Y-100064000D03*
X40650000Y-100064000D03*
%TD*%
D23*
%TO.C,C3*%
X147400000Y-5775000D03*
X147400000Y-4225000D03*
%TD*%
%TO.C,C4*%
X145600000Y-9775000D03*
X145600000Y-8225000D03*
%TD*%
D10*
%TO.C,D37*%
X12900000Y-82564000D03*
X9600000Y-82564000D03*
%TD*%
D16*
%TO.C,R3*%
X119175000Y-20200000D03*
X120825000Y-20200000D03*
%TD*%
D12*
%TO.C,SW10*%
X225875000Y-16569000D03*
X231625000Y-16569000D03*
X225875000Y-20569000D03*
X231625000Y-20569000D03*
%TD*%
D10*
%TO.C,D24*%
X267400000Y-46564000D03*
X264100000Y-46564000D03*
%TD*%
D12*
%TO.C,SW18*%
X100875000Y-34812000D03*
X106625000Y-34812000D03*
X100875000Y-38812000D03*
X106625000Y-38812000D03*
%TD*%
D10*
%TO.C,D26*%
X31400000Y-64564000D03*
X28100000Y-64564000D03*
%TD*%
D12*
%TO.C,SW36*%
X262875000Y-57564000D03*
X268625000Y-57564000D03*
X262875000Y-61564000D03*
X268625000Y-61564000D03*
%TD*%
D10*
%TO.C,D21*%
X211900000Y-38248000D03*
X208600000Y-38248000D03*
%TD*%
D20*
%TO.C,R10*%
X270200000Y-9925000D03*
X270200000Y-8275000D03*
%TD*%
D10*
%TO.C,D8*%
X193400000Y-22030000D03*
X190100000Y-22030000D03*
%TD*%
D20*
%TO.C,R1*%
X116000000Y-12825000D03*
X116000000Y-11175000D03*
%TD*%
D37*
%TO.C,J2*%
X117000000Y-25100000D03*
X117000000Y-24100000D03*
D38*
X120875000Y-26400000D03*
X120875000Y-22800000D03*
%TD*%
D12*
%TO.C,SW57*%
X192631000Y-89640000D03*
X198381000Y-89640000D03*
X192631000Y-93640000D03*
X198381000Y-93640000D03*
%TD*%
%TO.C,SW19*%
X170375000Y-34812000D03*
X176125000Y-34812000D03*
X170375000Y-38812000D03*
X176125000Y-38812000D03*
%TD*%
%TO.C,SW37*%
X8375000Y-75564000D03*
X14125000Y-75564000D03*
X8375000Y-79564000D03*
X14125000Y-79564000D03*
%TD*%
D10*
%TO.C,D15*%
X49900000Y-41569000D03*
X46600000Y-41569000D03*
%TD*%
%TO.C,D32*%
X193400000Y-58030000D03*
X190100000Y-58030000D03*
%TD*%
D12*
%TO.C,SW62*%
X26875000Y-98064000D03*
X32625000Y-98064000D03*
X26875000Y-102064000D03*
X32625000Y-102064000D03*
%TD*%
D26*
%TO.C,TP4*%
X142010000Y-24000000D03*
%TD*%
D12*
%TO.C,SW6*%
X100875000Y-16812000D03*
X106625000Y-16812000D03*
X100875000Y-20812000D03*
X106625000Y-20812000D03*
%TD*%
D10*
%TO.C,D59*%
X236350000Y-91064000D03*
X239650000Y-91064000D03*
%TD*%
D39*
%TO.C,D56*%
X174881214Y-97323142D03*
X171591386Y-97582058D03*
%TD*%
D20*
%TO.C,R9*%
X267800000Y-9925000D03*
X267800000Y-8275000D03*
%TD*%
D10*
%TO.C,D14*%
X31400000Y-46564000D03*
X28100000Y-46564000D03*
%TD*%
D12*
%TO.C,SW66*%
X244375000Y-98064000D03*
X250125000Y-98064000D03*
X244375000Y-102064000D03*
X250125000Y-102064000D03*
%TD*%
D10*
%TO.C,D25*%
X12900000Y-64564000D03*
X9600000Y-64564000D03*
%TD*%
%TO.C,D58*%
X230400000Y-100564000D03*
X227100000Y-100564000D03*
%TD*%
%TO.C,D46*%
X230400000Y-77569000D03*
X227100000Y-77569000D03*
%TD*%
D12*
%TO.C,SW28*%
X63875000Y-49248000D03*
X69625000Y-49248000D03*
X63875000Y-53248000D03*
X69625000Y-53248000D03*
%TD*%
M02*
