M48
; DRILL file {KiCad 9.0.9} date 2026-10-10T22:01:02+0000
; FORMAT={-:-/ absolute / metric / decimal}
; #@! TF.CreationDate,2026-10-10T22:01:02+00:00
; #@! TF.GenerationSoftware,Kicad,Pcbnew,9.0.9
; #@! TF.FileFunction,Plated,1,2,PTH
FMAT,2
METRIC
; #@! TA.AperFunction,Plated,PTH,ViaDrill
T1C0.300
; #@! TA.AperFunction,Plated,PTH,ComponentDrill
T2C0.600
%
G90
G05
T1
X2.1Y-18.1
X2.1Y-22.1
X2.1Y-26.1
X2.1Y-30.1
X2.1Y-34.1
X2.1Y-38.1
X2.1Y-42.1
X2.1Y-46.1
X2.1Y-50.1
X2.1Y-54.1
X2.1Y-58.1
X2.1Y-62.1
X2.1Y-66.1
X2.1Y-70.1
X2.1Y-74.1
X2.1Y-78.1
X2.1Y-82.1
X2.1Y-86.1
X2.1Y-90.1
X2.1Y-94.1
X2.1Y-98.1
X2.1Y-102.1
X6.1Y-2.1
X6.1Y-6.1
X6.1Y-10.1
X6.1Y-14.1
X6.1Y-18.1
X6.1Y-22.1
X6.1Y-26.1
X6.1Y-30.1
X6.1Y-34.1
X6.1Y-38.1
X6.1Y-42.1
X6.1Y-46.1
X6.1Y-50.1
X6.1Y-54.1
X6.1Y-58.1
X6.1Y-62.1
X6.1Y-66.1
X6.1Y-70.1
X6.1Y-74.1
X6.1Y-78.1
X6.1Y-82.1
X6.1Y-86.1
X6.1Y-90.1
X6.1Y-94.1
X6.1Y-98.1
X6.1Y-102.1
X10.1Y-2.1
X10.1Y-6.1
X10.1Y-10.1
X10.1Y-14.1
X10.1Y-18.1
X10.1Y-30.1
X10.1Y-34.1
X10.1Y-38.1
X10.1Y-42.1
X10.1Y-50.1
X10.1Y-54.1
X10.1Y-66.1
X10.1Y-70.1
X10.1Y-74.1
X10.1Y-78.1
X10.1Y-86.1
X10.1Y-90.1
X10.1Y-102.1
X11.0Y-10.852
X14.1Y-2.1
X14.1Y-10.1
X14.1Y-14.1
X14.1Y-18.1
X14.1Y-30.1
X14.1Y-34.1
X14.1Y-38.1
X14.1Y-42.1
X14.1Y-46.1
X14.1Y-50.1
X14.1Y-54.1
X14.1Y-66.1
X14.1Y-70.1
X14.1Y-74.1
X14.1Y-78.1
X14.1Y-82.1
X14.1Y-86.1
X14.1Y-90.1
X14.1Y-102.1
X18.1Y-2.1
X18.1Y-14.1
X18.1Y-18.1
X18.1Y-22.1
X18.1Y-26.1
X18.1Y-30.1
X18.1Y-34.1
X18.1Y-38.1
X18.1Y-46.1
X18.1Y-50.1
X18.1Y-54.1
X18.1Y-58.1
X18.1Y-62.1
X18.1Y-66.1
X18.1Y-70.1
X18.1Y-74.1
X18.1Y-78.1
X18.1Y-82.1
X18.1Y-86.1
X18.1Y-90.1
X18.1Y-94.1
X18.1Y-98.1
X18.1Y-102.1
X22.1Y-2.1
X22.1Y-14.1
X22.1Y-22.1
X22.1Y-26.1
X22.1Y-30.1
X22.1Y-34.1
X22.1Y-38.1
X22.1Y-42.1
X22.1Y-46.1
X22.1Y-50.1
X22.1Y-54.1
X22.1Y-58.1
X22.1Y-62.1
X22.1Y-66.1
X22.1Y-70.1
X22.1Y-74.1
X22.1Y-82.1
X22.1Y-86.1
X22.1Y-90.1
X22.1Y-94.1
X22.1Y-98.1
X22.1Y-102.1
X26.1Y-2.1
X26.1Y-14.1
X26.1Y-30.1
X26.1Y-34.1
X26.1Y-38.1
X26.1Y-42.1
X26.1Y-46.1
X26.1Y-50.1
X26.1Y-54.1
X26.1Y-66.1
X26.1Y-70.1
X26.1Y-74.1
X26.1Y-78.1
X26.1Y-82.1
X26.1Y-86.1
X26.1Y-90.1
X26.1Y-94.1
X30.1Y-2.1
X30.1Y-6.1
X30.1Y-14.1
X30.1Y-30.1
X30.1Y-34.1
X30.1Y-38.1
X30.1Y-42.1
X30.1Y-46.1
X30.1Y-50.1
X30.1Y-54.1
X30.1Y-66.1
X30.1Y-70.1
X30.1Y-74.1
X30.1Y-78.1
X30.1Y-82.1
X30.1Y-86.1
X30.1Y-90.1
X30.1Y-94.1
X34.1Y-2.1
X34.1Y-6.1
X34.1Y-14.1
X34.1Y-30.1
X34.1Y-34.1
X34.1Y-38.1
X34.1Y-42.1
X34.1Y-50.1
X34.1Y-54.1
X34.1Y-66.1
X34.1Y-70.1
X34.1Y-74.1
X34.1Y-78.1
X34.1Y-86.1
X34.1Y-90.1
X34.1Y-94.1
X38.1Y-2.1
X38.1Y-14.1
X38.1Y-22.1
X38.1Y-26.1
X38.1Y-30.1
X38.1Y-34.1
X38.1Y-38.1
X38.1Y-42.1
X38.1Y-50.1
X38.1Y-54.1
X38.1Y-58.1
X38.1Y-62.1
X38.1Y-66.1
X38.1Y-70.1
X38.1Y-74.1
X38.1Y-78.1
X38.1Y-86.1
X38.1Y-94.1
X41.0Y-82.998
X42.1Y-2.1
X42.1Y-14.1
X42.1Y-22.1
X42.1Y-26.1
X42.1Y-30.1
X42.1Y-34.1
X42.1Y-38.1
X42.1Y-42.1
X42.1Y-50.1
X42.1Y-54.1
X42.1Y-58.1
X42.1Y-62.1
X42.1Y-66.1
X42.1Y-70.1
X42.1Y-74.1
X42.1Y-78.1
X42.1Y-86.1
X42.1Y-90.1
X42.1Y-94.1
X42.1Y-98.1
X42.1Y-102.1
X43.929Y-7.072
X46.1Y-2.1
X46.1Y-6.1
X46.1Y-14.1
X46.1Y-30.1
X46.1Y-46.1
X46.1Y-50.1
X46.1Y-54.1
X46.1Y-66.1
X46.1Y-82.1
X46.1Y-86.1
X46.1Y-90.1
X46.1Y-102.1
X49.125Y-16.769
X49.125Y-34.519
X49.125Y-52.909
X49.283Y-70.569
X50.1Y-2.1
X50.1Y-6.1
X50.1Y-22.1
X50.1Y-26.1
X50.1Y-30.1
X50.1Y-46.1
X50.1Y-50.1
X50.1Y-54.1
X50.1Y-58.1
X50.1Y-62.1
X50.1Y-66.1
X50.1Y-82.1
X50.1Y-86.1
X50.1Y-90.1
X50.1Y-102.1
X51.733Y-94.522
X54.001Y-18.013
X54.1Y-2.1
X54.1Y-6.1
X54.1Y-14.1
X54.1Y-22.1
X54.1Y-26.1
X54.1Y-30.1
X54.1Y-34.1
X54.1Y-38.1
X54.1Y-46.1
X54.1Y-50.1
X54.1Y-54.1
X54.1Y-58.1
X54.1Y-62.1
X54.1Y-66.1
X54.1Y-70.1
X54.1Y-74.1
X54.1Y-78.1
X54.1Y-82.1
X54.1Y-86.1
X54.1Y-90.1
X54.1Y-94.1
X54.1Y-98.1
X54.1Y-102.1
X58.1Y-2.1
X58.1Y-6.1
X58.1Y-18.1
X58.1Y-26.1
X58.1Y-30.1
X58.1Y-34.1
X58.1Y-38.1
X58.1Y-46.1
X58.1Y-50.1
X58.1Y-54.1
X58.1Y-58.1
X58.1Y-62.1
X58.1Y-66.1
X58.1Y-70.1
X58.1Y-74.1
X58.1Y-78.1
X58.1Y-82.1
X58.1Y-86.1
X58.1Y-90.1
X58.1Y-94.1
X58.1Y-102.1
X59.0Y-46.353
X62.1Y-2.1
X62.1Y-6.1
X62.1Y-18.1
X62.1Y-22.1
X62.1Y-26.1
X62.1Y-30.1
X62.1Y-34.1
X62.1Y-38.1
X62.1Y-50.1
X62.1Y-54.1
X62.1Y-58.1
X62.1Y-62.1
X62.1Y-66.1
X62.1Y-70.1
X62.1Y-74.1
X62.1Y-78.1
X62.1Y-82.1
X62.1Y-86.1
X62.1Y-90.1
X62.1Y-94.1
X62.1Y-102.1
X66.1Y-2.1
X66.1Y-6.1
X66.1Y-18.1
X66.1Y-22.1
X66.1Y-26.1
X66.1Y-30.1
X66.1Y-34.1
X66.1Y-38.1
X66.1Y-42.1
X66.1Y-50.1
X66.1Y-54.1
X66.1Y-58.1
X66.1Y-62.1
X66.1Y-66.1
X66.1Y-70.1
X66.1Y-74.1
X66.1Y-78.1
X66.1Y-82.1
X66.1Y-86.1
X66.1Y-90.1
X66.1Y-94.1
X66.1Y-98.1
X66.1Y-102.1
X67.374Y-13.248
X70.1Y-2.1
X70.1Y-6.1
X70.1Y-22.1
X70.1Y-26.1
X70.1Y-30.1
X70.1Y-34.1
X70.1Y-38.1
X70.1Y-42.1
X70.1Y-58.1
X70.1Y-62.1
X70.1Y-66.1
X70.1Y-70.1
X70.1Y-74.1
X70.1Y-78.1
X70.1Y-82.1
X70.1Y-86.1
X70.1Y-90.1
X70.1Y-94.1
X70.1Y-98.1
X70.1Y-102.1
X71.75Y-31.561
X71.75Y-49.311
X71.75Y-67.062
X74.1Y-2.1
X74.1Y-6.1
X74.1Y-22.1
X74.1Y-26.1
X74.1Y-30.1
X74.1Y-34.1
X74.1Y-38.1
X74.1Y-42.1
X74.1Y-50.1
X74.1Y-54.1
X74.1Y-58.1
X74.1Y-62.1
X74.1Y-66.1
X74.1Y-70.1
X74.1Y-74.1
X74.1Y-78.1
X74.1Y-82.1
X74.1Y-90.1
X74.1Y-94.1
X74.1Y-98.1
X74.1Y-102.1
X76.992Y-88.734
X78.1Y-2.1
X78.1Y-6.1
X78.1Y-22.1
X78.1Y-26.1
X78.1Y-30.1
X78.1Y-34.1
X78.1Y-38.1
X78.1Y-42.1
X78.1Y-50.1
X78.1Y-54.1
X78.1Y-58.1
X78.1Y-62.1
X78.1Y-66.1
X78.1Y-70.1
X78.1Y-74.1
X78.1Y-78.1
X78.1Y-82.1
X78.1Y-86.1
X78.1Y-98.1
X78.1Y-102.1
X82.1Y-2.1
X82.1Y-6.1
X82.1Y-22.1
X82.1Y-26.1
X82.1Y-30.1
X82.1Y-34.1
X82.1Y-38.1
X82.1Y-42.1
X82.1Y-58.1
X82.1Y-62.1
X82.1Y-66.1
X82.1Y-70.1
X82.1Y-74.1
X82.1Y-78.1
X82.1Y-82.1
X82.1Y-86.1
X82.1Y-102.1
X84.153Y-20.055
X86.1Y-2.1
X86.1Y-6.1
X86.1Y-26.1
X86.1Y-30.1
X86.1Y-34.1
X86.1Y-38.1
X86.1Y-42.1
X86.1Y-50.1
X86.1Y-66.1
X86.1Y-70.1
X86.1Y-74.1
X86.1Y-78.1
X86.1Y-82.1
X86.1Y-86.1
X86.1Y-102.1
X86.28Y-51.03
X89.96Y-14.845
X89.962Y-18.892
X89.962Y-33.03
X89.962Y-69.03
X90.1Y-2.1
X90.1Y-6.1
X90.1Y-50.1
X90.1Y-54.1
X90.1Y-58.1
X90.1Y-62.1
X90.1Y-66.1
X90.1Y-90.1
X90.1Y-94.1
X90.1Y-102.1
X90.36Y-87.77
X94.1Y-2.1
X94.1Y-6.1
X94.1Y-22.1
X94.1Y-26.1
X94.1Y-30.1
X94.1Y-34.1
X94.1Y-38.1
X94.1Y-50.1
X94.1Y-54.1
X94.1Y-58.1
X94.1Y-62.1
X94.1Y-66.1
X94.1Y-70.1
X94.1Y-74.1
X94.1Y-82.1
X94.1Y-86.1
X94.1Y-90.1
X94.1Y-94.1
X94.1Y-102.1
X98.1Y-2.1
X98.1Y-22.1
X98.1Y-26.1
X98.1Y-30.1
X98.1Y-34.1
X98.1Y-38.1
X98.1Y-50.1
X98.1Y-54.1
X98.1Y-58.1
X98.1Y-62.1
X98.1Y-66.1
X98.1Y-70.1
X98.1Y-74.1
X98.1Y-82.1
X98.1Y-86.1
X98.1Y-90.1
X98.1Y-94.1
X98.1Y-102.1
X102.1Y-2.1
X102.1Y-26.1
X102.1Y-30.1
X102.1Y-50.1
X102.1Y-54.1
X102.1Y-62.1
X102.1Y-66.1
X102.1Y-82.1
X102.1Y-86.1
X103.75Y-16.812
X103.75Y-70.812
X103.873Y-52.27
X103.875Y-34.519
X104.642Y-58.878
X105.234Y-40.759
X105.4Y-22.738
X106.1Y-2.1
X106.1Y-6.1
X106.1Y-22.1
X106.1Y-26.1
X106.1Y-30.1
X106.1Y-50.1
X106.1Y-54.1
X106.1Y-62.1
X106.1Y-66.1
X106.1Y-82.1
X106.1Y-86.1
X107.93Y-73.836
X110.083Y-48.44
X110.1Y-2.1
X110.1Y-6.1
X110.1Y-74.1
X110.1Y-78.1
X110.1Y-82.1
X110.1Y-86.1
X110.1Y-90.1
X110.1Y-94.1
X110.1Y-98.1
X110.1Y-102.1
X110.695Y-9.919
X112.271Y-8.609
X112.774Y-61.279
X112.976Y-48.864
X113.299Y-53.621
X113.485Y-56.333
X113.502Y-5.249
X113.556Y-54.443
X114.1Y-2.1
X114.1Y-10.1
X114.1Y-82.1
X114.1Y-86.1
X114.1Y-90.1
X114.1Y-94.1
X114.1Y-98.1
X114.1Y-102.1
X114.423Y-80.164
X114.811Y-51.133
X114.817Y-56.137
X114.828Y-50.289
X114.901Y-20.055
X114.928Y-59.25
X115.039Y-15.357
X115.059Y-18.45
X115.313Y-13.692
X115.772Y-19.002
X116.513Y-70.148
X116.936Y-11.175
X116.987Y-15.307
X117.614Y-12.913
X118.1Y-2.1
X118.1Y-74.1
X118.1Y-78.1
X118.1Y-86.1
X118.1Y-90.1
X118.1Y-94.1
X118.1Y-98.1
X118.1Y-102.1
X119.18Y-9.98
X119.25Y-7.02
X119.512Y-26.942
X121.288Y-9.988
X122.1Y-2.1
X122.1Y-74.1
X122.1Y-78.1
X122.1Y-86.1
X122.1Y-90.1
X122.275Y-13.023
X122.294Y-16.667
X122.344Y-20.2
X123.23Y-12.055
X125.042Y-21.225
X125.309Y-24.234
X125.335Y-13.627
X125.528Y-10.664
X125.687Y-100.306
X126.074Y-16.476
X126.1Y-2.1
X126.1Y-74.1
X126.1Y-78.1
X126.1Y-82.1
X126.1Y-86.1
X126.235Y-93.537
X126.849Y-8.241
X126.891Y-15.963
X128.0Y-73.635
X128.921Y-18.95
X129.669Y-12.345
X129.924Y-22.563
X130.1Y-2.1
X130.1Y-26.1
X130.1Y-74.1
X130.1Y-78.1
X130.1Y-82.1
X130.1Y-86.1
X130.386Y-16.61
X130.471Y-7.104
X131.123Y-9.751
X131.365Y-15.557
X131.391Y-10.8
X131.929Y-19.13
X131.951Y-24.234
X132.184Y-15.248
X132.626Y-17.099
X133.116Y-18.191
X133.93Y-20.675
X134.1Y-6.1
X134.1Y-74.1
X134.1Y-78.1
X134.1Y-82.1
X134.1Y-86.1
X134.1Y-90.1
X134.1Y-94.1
X134.1Y-98.1
X134.401Y-15.042
X135.113Y-24.636
X135.2Y-9.6
X135.2Y-10.4
X135.2Y-11.2
X135.215Y-13.126
X135.274Y-18.39
X137.232Y-17.001
X137.941Y-22.406
X138.1Y-6.1
X138.1Y-74.1
X138.1Y-78.1
X138.1Y-82.1
X138.1Y-86.1
X138.1Y-90.1
X138.1Y-94.1
X138.285Y-23.749
X138.407Y-17.62
X138.697Y-16.71
X138.995Y-19.044
X140.206Y-16.567
X141.132Y-14.922
X141.2Y-10.4
X141.2Y-11.2
X141.2Y-12.0
X141.2Y-12.8
X141.2Y-13.6
X141.48Y-19.865
X142.028Y-16.598
X142.062Y-14.8
X142.1Y-26.1
X142.1Y-74.1
X142.1Y-78.1
X142.1Y-82.1
X142.1Y-86.1
X142.1Y-90.1
X142.1Y-94.1
X142.1Y-98.1
X142.32Y-17.76
X143.173Y-7.467
X143.34Y-16.648
X144.691Y-6.441
X145.757Y-10.683
X146.0Y-70.812
X146.1Y-2.1
X146.1Y-22.1
X146.1Y-26.1
X146.1Y-90.1
X146.547Y-13.775
X146.592Y-11.016
X146.616Y-12.602
X149.068Y-13.787
X149.8Y-10.268
X150.1Y-2.1
X150.1Y-18.1
X150.1Y-22.1
X150.1Y-26.1
X150.1Y-74.1
X150.1Y-78.1
X150.1Y-82.1
X150.1Y-86.1
X152.254Y-91.428
X152.57Y-5.872
X154.1Y-18.1
X154.1Y-22.1
X154.1Y-26.1
X154.1Y-74.1
X154.1Y-78.1
X154.1Y-86.1
X154.1Y-90.1
X155.056Y-3.579
X158.1Y-18.1
X158.1Y-22.1
X158.1Y-26.1
X158.1Y-74.1
X158.1Y-78.1
X158.1Y-86.1
X158.1Y-90.1
X158.1Y-94.1
X158.1Y-98.1
X158.1Y-102.1
X161.201Y-70.148
X162.1Y-2.1
X162.1Y-6.1
X162.1Y-18.1
X162.1Y-22.1
X162.1Y-26.1
X162.1Y-30.1
X162.1Y-34.1
X162.1Y-38.1
X162.1Y-42.1
X162.1Y-46.1
X162.1Y-50.1
X162.1Y-54.1
X162.1Y-58.1
X162.1Y-62.1
X162.1Y-66.1
X162.1Y-74.1
X162.1Y-82.1
X162.1Y-86.1
X162.1Y-90.1
X162.1Y-94.1
X162.1Y-98.1
X162.1Y-102.1
X166.1Y-18.1
X166.1Y-22.1
X166.1Y-26.1
X166.1Y-30.1
X166.1Y-34.1
X166.1Y-38.1
X166.1Y-42.1
X166.1Y-46.1
X166.1Y-50.1
X166.1Y-54.1
X166.1Y-58.1
X166.1Y-62.1
X166.1Y-70.1
X166.1Y-74.1
X166.1Y-82.1
X166.1Y-86.1
X166.1Y-90.1
X166.1Y-94.1
X166.1Y-98.1
X166.1Y-102.1
X166.278Y-7.172
X170.1Y-2.1
X170.1Y-6.1
X170.1Y-22.1
X170.1Y-26.1
X170.1Y-30.1
X170.1Y-42.1
X170.1Y-46.1
X170.1Y-50.1
X170.1Y-54.1
X170.1Y-58.1
X170.1Y-66.1
X170.1Y-82.1
X170.1Y-86.1
X172.537Y-41.564
X172.822Y-90.7
X173.125Y-16.812
X173.125Y-34.519
X173.125Y-52.27
X174.1Y-2.1
X174.1Y-6.1
X174.1Y-18.1
X174.1Y-22.1
X174.1Y-26.1
X174.1Y-30.1
X174.1Y-34.1
X174.1Y-38.1
X174.1Y-46.1
X174.1Y-50.1
X174.1Y-54.1
X174.1Y-62.1
X174.1Y-66.1
X174.1Y-70.1
X174.1Y-74.1
X174.1Y-82.1
X174.1Y-86.1
X175.82Y-9.59
X178.1Y-2.1
X178.1Y-6.1
X178.1Y-18.1
X178.1Y-22.1
X178.1Y-26.1
X178.1Y-30.1
X178.1Y-34.1
X178.1Y-38.1
X178.1Y-46.1
X178.1Y-50.1
X178.1Y-54.1
X178.1Y-58.1
X178.1Y-62.1
X178.1Y-66.1
X178.1Y-70.1
X178.1Y-74.1
X178.1Y-82.1
X178.1Y-102.1
X182.1Y-2.1
X182.1Y-6.1
X182.1Y-18.1
X182.1Y-22.1
X182.1Y-26.1
X182.1Y-30.1
X182.1Y-34.1
X182.1Y-38.1
X182.1Y-46.1
X182.1Y-50.1
X182.1Y-54.1
X182.1Y-58.1
X182.1Y-62.1
X182.1Y-66.1
X182.1Y-70.1
X182.1Y-74.1
X182.1Y-86.1
X182.1Y-90.1
X182.1Y-94.1
X182.1Y-98.1
X182.1Y-102.1
X184.822Y-8.072
X186.1Y-2.1
X186.1Y-6.1
X186.1Y-18.1
X186.1Y-22.1
X186.1Y-26.1
X186.1Y-30.1
X186.1Y-34.1
X186.1Y-38.1
X186.1Y-46.1
X186.1Y-50.1
X186.1Y-54.1
X186.1Y-58.1
X186.1Y-62.1
X186.1Y-66.1
X186.1Y-74.1
X186.1Y-82.1
X186.1Y-86.1
X186.1Y-90.1
X186.1Y-94.1
X186.1Y-98.1
X186.1Y-102.1
X190.1Y-2.1
X190.1Y-6.1
X190.1Y-26.1
X190.1Y-30.1
X190.1Y-34.1
X190.1Y-46.1
X190.1Y-62.1
X190.1Y-66.1
X190.1Y-70.1
X190.1Y-82.1
X190.1Y-86.1
X190.1Y-90.1
X190.1Y-94.1
X190.1Y-98.1
X190.1Y-102.1
X190.845Y-33.285
X191.375Y-69.03
X191.75Y-15.03
X191.75Y-51.03
X194.1Y-2.1
X194.1Y-6.1
X194.1Y-26.1
X194.1Y-30.1
X194.1Y-34.1
X194.1Y-38.1
X194.1Y-42.1
X194.1Y-46.1
X194.1Y-62.1
X194.1Y-66.1
X194.1Y-70.1
X194.1Y-74.1
X194.1Y-78.1
X194.1Y-82.1
X194.1Y-86.1
X194.1Y-98.1
X194.1Y-102.1
X196.198Y-89.64
X198.1Y-2.1
X198.1Y-6.1
X198.1Y-18.1
X198.1Y-26.1
X198.1Y-30.1
X198.1Y-34.1
X198.1Y-38.1
X198.1Y-42.1
X198.1Y-46.1
X198.1Y-50.1
X198.1Y-54.1
X198.1Y-62.1
X198.1Y-66.1
X198.1Y-70.1
X198.1Y-74.1
X198.1Y-78.1
X198.1Y-82.1
X198.1Y-86.1
X198.1Y-98.1
X198.1Y-102.1
X200.0Y-49.311
X200.186Y-67.248
X202.1Y-2.1
X202.1Y-6.1
X202.1Y-18.1
X202.1Y-26.1
X202.1Y-30.1
X202.1Y-34.1
X202.1Y-38.1
X202.1Y-42.1
X202.1Y-46.1
X202.1Y-50.1
X202.1Y-54.1
X202.1Y-62.1
X202.1Y-66.1
X202.1Y-70.1
X202.1Y-74.1
X202.1Y-78.1
X202.1Y-82.1
X202.1Y-86.1
X202.1Y-90.1
X202.1Y-94.1
X202.1Y-98.1
X202.1Y-102.1
X205.25Y-31.561
X206.1Y-2.1
X206.1Y-6.1
X206.1Y-26.1
X206.1Y-34.1
X206.1Y-38.1
X206.1Y-42.1
X206.1Y-46.1
X206.1Y-62.1
X206.1Y-66.1
X206.1Y-70.1
X206.1Y-74.1
X206.1Y-78.1
X206.1Y-82.1
X206.1Y-86.1
X206.1Y-90.1
X206.1Y-94.1
X206.1Y-98.1
X206.1Y-102.1
X209.626Y-13.248
X210.1Y-2.1
X210.1Y-6.1
X210.1Y-30.1
X210.1Y-34.1
X210.1Y-38.1
X210.1Y-42.1
X210.1Y-46.1
X210.1Y-50.1
X210.1Y-54.1
X210.1Y-62.1
X210.1Y-66.1
X210.1Y-70.1
X210.1Y-74.1
X210.1Y-78.1
X210.1Y-82.1
X210.1Y-86.1
X210.1Y-90.1
X210.1Y-94.1
X210.1Y-98.1
X210.1Y-102.1
X214.1Y-2.1
X214.1Y-6.1
X214.1Y-26.1
X214.1Y-30.1
X214.1Y-34.1
X214.1Y-38.1
X214.1Y-42.1
X214.1Y-46.1
X214.1Y-62.1
X214.1Y-66.1
X214.1Y-70.1
X214.1Y-74.1
X214.1Y-78.1
X214.1Y-82.1
X214.1Y-86.1
X214.1Y-90.1
X214.1Y-94.1
X218.1Y-2.1
X218.1Y-6.1
X218.1Y-14.1
X218.1Y-18.1
X218.1Y-22.1
X218.1Y-26.1
X218.1Y-30.1
X218.1Y-34.1
X218.1Y-38.1
X218.1Y-46.1
X218.1Y-50.1
X218.1Y-54.1
X218.1Y-58.1
X218.1Y-62.1
X218.1Y-66.1
X218.1Y-70.1
X218.1Y-74.1
X218.1Y-82.1
X218.1Y-86.1
X218.1Y-90.1
X218.1Y-94.1
X218.1Y-98.1
X218.1Y-102.1
X222.1Y-2.1
X222.1Y-6.1
X222.1Y-14.1
X222.1Y-18.1
X222.1Y-22.1
X222.1Y-26.1
X222.1Y-30.1
X222.1Y-34.1
X222.1Y-38.1
X222.1Y-46.1
X222.1Y-50.1
X222.1Y-54.1
X222.1Y-58.1
X222.1Y-62.1
X222.1Y-66.1
X222.1Y-70.1
X222.1Y-74.1
X222.1Y-82.1
X222.1Y-86.1
X222.1Y-90.1
X222.1Y-94.1
X222.1Y-98.1
X222.1Y-102.1
X223.5Y-70.02
X223.995Y-93.564
X225.338Y-17.534
X226.1Y-2.1
X226.1Y-6.1
X226.1Y-14.1
X226.1Y-22.1
X226.1Y-26.1
X226.1Y-30.1
X226.1Y-46.1
X226.1Y-50.1
X226.1Y-54.1
X226.1Y-58.1
X226.1Y-62.1
X226.1Y-66.1
X226.1Y-82.1
X226.1Y-86.1
X226.1Y-90.1
X226.1Y-102.1
X227.875Y-34.519
X227.875Y-51.43
X230.1Y-2.1
X230.1Y-6.1
X230.1Y-14.1
X230.1Y-18.1
X230.1Y-22.1
X230.1Y-26.1
X230.1Y-30.1
X230.1Y-46.1
X230.1Y-50.1
X230.1Y-54.1
X230.1Y-58.1
X230.1Y-62.1
X230.1Y-66.1
X230.1Y-82.1
X230.1Y-86.1
X230.1Y-90.1
X230.1Y-102.1
X234.1Y-2.1
X234.1Y-6.1
X234.1Y-14.1
X234.1Y-18.1
X234.1Y-22.1
X234.1Y-26.1
X234.1Y-30.1
X234.1Y-34.1
X234.1Y-38.1
X234.1Y-42.1
X234.1Y-46.1
X234.1Y-50.1
X234.1Y-54.1
X234.1Y-58.1
X234.1Y-66.1
X234.1Y-70.1
X234.1Y-74.1
X234.1Y-78.1
X234.1Y-86.1
X234.1Y-90.1
X234.1Y-94.1
X234.1Y-98.1
X234.1Y-102.1
X238.1Y-2.1
X238.1Y-6.1
X238.1Y-14.1
X238.1Y-18.1
X238.1Y-26.1
X238.1Y-30.1
X238.1Y-34.1
X238.1Y-38.1
X238.1Y-42.1
X238.1Y-46.1
X238.1Y-50.1
X238.1Y-54.1
X238.1Y-58.1
X238.1Y-62.1
X238.1Y-66.1
X238.1Y-70.1
X238.1Y-74.1
X238.1Y-78.1
X238.1Y-82.1
X238.1Y-86.1
X238.1Y-90.1
X238.1Y-94.1
X238.1Y-98.1
X238.1Y-102.1
X242.1Y-2.1
X242.1Y-6.1
X242.1Y-14.1
X242.1Y-18.1
X242.1Y-26.1
X242.1Y-30.1
X242.1Y-34.1
X242.1Y-38.1
X242.1Y-42.1
X242.1Y-46.1
X242.1Y-50.1
X242.1Y-54.1
X242.1Y-58.1
X242.1Y-62.1
X242.1Y-66.1
X242.1Y-70.1
X242.1Y-74.1
X242.1Y-78.1
X242.1Y-82.1
X242.1Y-86.1
X242.1Y-90.1
X242.1Y-94.1
X242.1Y-98.1
X246.1Y-2.1
X246.1Y-6.1
X246.1Y-14.1
X246.1Y-18.1
X246.1Y-30.1
X246.1Y-34.1
X246.1Y-38.1
X246.1Y-42.1
X246.1Y-50.1
X246.1Y-54.1
X246.1Y-66.1
X246.1Y-70.1
X246.1Y-74.1
X246.1Y-78.1
X246.1Y-86.1
X246.1Y-90.1
X246.1Y-94.1
X250.1Y-2.1
X250.1Y-6.1
X250.1Y-14.1
X250.1Y-18.1
X250.1Y-30.1
X250.1Y-34.1
X250.1Y-38.1
X250.1Y-42.1
X250.1Y-46.1
X250.1Y-50.1
X250.1Y-54.1
X250.1Y-66.1
X250.1Y-70.1
X250.1Y-74.1
X250.1Y-78.1
X250.1Y-82.1
X250.1Y-86.1
X250.1Y-90.1
X250.1Y-94.1
X251.836Y-95.852
X252.0Y-21.711
X252.0Y-39.51
X252.0Y-57.386
X254.1Y-2.1
X254.1Y-6.1
X254.1Y-14.1
X254.1Y-18.1
X254.1Y-26.1
X254.1Y-30.1
X254.1Y-34.1
X254.1Y-38.1
X254.1Y-42.1
X254.1Y-46.1
X254.1Y-50.1
X254.1Y-54.1
X254.1Y-58.1
X254.1Y-62.1
X254.1Y-66.1
X254.1Y-70.1
X254.1Y-74.1
X254.1Y-82.1
X254.1Y-86.1
X254.1Y-90.1
X254.1Y-94.1
X254.1Y-98.1
X254.1Y-102.1
X258.1Y-2.1
X258.1Y-6.1
X258.1Y-14.1
X258.1Y-18.1
X258.1Y-26.1
X258.1Y-30.1
X258.1Y-34.1
X258.1Y-38.1
X258.1Y-42.1
X258.1Y-46.1
X258.1Y-50.1
X258.1Y-54.1
X258.1Y-58.1
X258.1Y-62.1
X258.1Y-66.1
X258.1Y-70.1
X258.1Y-74.1
X258.1Y-82.1
X258.1Y-86.1
X258.1Y-90.1
X258.1Y-94.1
X258.1Y-98.1
X258.1Y-102.1
X262.1Y-2.1
X262.1Y-14.1
X262.1Y-18.1
X262.1Y-30.1
X262.1Y-34.1
X262.1Y-38.1
X262.1Y-42.1
X262.1Y-46.1
X262.1Y-50.1
X262.1Y-54.1
X262.1Y-66.1
X262.1Y-70.1
X262.1Y-74.1
X262.1Y-82.1
X262.1Y-86.1
X262.1Y-90.1
X262.1Y-102.1
X265.4Y-57.564
X265.75Y-21.564
X265.875Y-39.564
X265.875Y-75.564
X266.1Y-2.1
X266.1Y-6.1
X266.1Y-14.1
X266.1Y-18.1
X266.1Y-82.1
X266.1Y-90.1
X266.1Y-102.1
X270.1Y-2.1
X270.1Y-14.1
X270.1Y-18.1
X270.1Y-30.1
X270.1Y-34.1
X270.1Y-38.1
X270.1Y-42.1
X270.1Y-46.1
X270.1Y-50.1
X270.1Y-54.1
X270.1Y-66.1
X270.1Y-70.1
X270.1Y-74.1
X270.1Y-102.1
X274.1Y-2.1
X274.1Y-6.1
X274.1Y-10.1
X274.1Y-14.1
X274.1Y-18.1
X274.1Y-22.1
X274.1Y-26.1
X274.1Y-30.1
X274.1Y-34.1
X274.1Y-38.1
X274.1Y-42.1
X274.1Y-46.1
X274.1Y-50.1
X274.1Y-54.1
X274.1Y-58.1
X274.1Y-62.1
X274.1Y-66.1
X274.1Y-70.1
X274.1Y-74.1
X274.1Y-78.1
X274.1Y-82.1
X274.1Y-86.1
X274.1Y-90.1
X274.1Y-94.1
X274.1Y-98.1
X274.1Y-102.1
T2
X115.68Y-3.5G85X115.68Y-2.9
G05
X115.68Y-7.93G85X115.68Y-6.83
G05
X124.32Y-3.5G85X124.32Y-2.9
G05
X124.32Y-7.93G85X124.32Y-6.83
G05
M30
