%TF.GenerationSoftware,KiCad,Pcbnew,9.0.9*%
%TF.CreationDate,2026-10-10T22:01:01+00:00*%
%TF.ProjectId,tomtho_mk2,746f6d74-686f-45f6-9d6b-322e6b696361,mk2-0.1*%
%TF.SameCoordinates,Original*%
%TF.FileFunction,Profile,NP*%
%FSLAX46Y46*%
G04 Gerber Fmt 4.6, Leading zero omitted, Abs format (unit mm)*
G04 Created by KiCad (PCBNEW 9.0.9) date 2026-10-10 22:01:01*
%MOMM*%
%LPD*%
G01*
G04 APERTURE LIST*
%TA.AperFunction,Profile*%
%ADD10C,0.100000*%
%TD*%
G04 APERTURE END LIST*
D10*
X600000Y-5000000D02*
G75*
G02*
X5000000Y-600000I4399897J103D01*
G01*
X600000Y-102500000D02*
X600000Y-5000000D01*
X5000000Y-600000D02*
X272000000Y-600000D01*
X5000000Y-106900000D02*
G75*
G02*
X600000Y-102500000I-100J4399900D01*
G01*
X112400000Y-22200000D02*
G75*
G02*
X113000000Y-21600000I599900J100D01*
G01*
X112400000Y-27000000D02*
X112400000Y-22200000D01*
X113000000Y-21600000D02*
G75*
G02*
X113600000Y-22200000I100J-599900D01*
G01*
X113000000Y-27600000D02*
G75*
G02*
X112400000Y-27000000I-100J599900D01*
G01*
X113600000Y-22200000D02*
X113600000Y-27000000D01*
X113600000Y-27000000D02*
G75*
G02*
X113000000Y-27600000I-599900J-100D01*
G01*
X116500000Y-28812000D02*
G75*
G02*
X117500000Y-27812000I1000000J0D01*
G01*
X116500000Y-67812000D02*
X116500000Y-28812000D01*
X117500000Y-27812000D02*
X159500000Y-27812000D01*
X117500000Y-68812000D02*
G75*
G02*
X116500000Y-67812000I0J1000000D01*
G01*
X159500000Y-27812000D02*
G75*
G02*
X160500000Y-28812000I0J-1000000D01*
G01*
X159500000Y-68812000D02*
X117500000Y-68812000D01*
X160500000Y-28812000D02*
X160500000Y-67812000D01*
X160500000Y-67812000D02*
G75*
G02*
X159500000Y-68812000I-1000000J0D01*
G01*
X272000000Y-600000D02*
G75*
G02*
X276400000Y-5000000I100J-4399900D01*
G01*
X272000000Y-106900000D02*
X5000000Y-106900000D01*
X276400000Y-5000000D02*
X276400000Y-102500000D01*
X276400000Y-102500000D02*
G75*
G02*
X272000000Y-106900000I-4399900J-100D01*
G01*
M02*
